<?xml version="1.0" encoding="UTF-8"?>
<svg id="Layer_1" data-name="Layer 1" xmlns="http://www.w3.org/2000/svg" viewBox="0 0 50 50">
  <defs>
    <style>
      .cls-1 {
        fill: #221f1f;
      }

      .cls-2, .cls-3 {
        fill: #212120;
      }

      .cls-2, .cls-4 {
        fill-rule: evenodd;
      }

      .cls-5, .cls-4 {
        fill: #e34497;
      }

      .cls-6 {
        fill: #373435;
      }
    </style>
  </defs>
  <path class="cls-3" d="M33.91,31.92c-.32-1.47-1.08-2.68-2.19-3.67-.52-.47-1.14-.8-1.68-1.23-.97-.76-1.67-1.69-1.98-2.9-.28-1.09-.24-2.18-.02-3.27-.08,1.44.05,2.84.75,4.14.71,1.32,1.87,2.11,3.13,2.79-2.12-2.16-2.88-4.71-2.63-7.63.09-.96.12-1.94.05-2.92.02.06.05.1.06.15.15.67.22,1.34.24,2.02,0,.68.02,1.36.08,2.04.08.89.34,1.72.73,2.52.46.93,1.06,1.76,1.69,2.57.43.56.84,1.12,1.26,1.68-.23-1.25-.67-2.44-1.21-3.58-.85-1.79-1.2-3.67-1.15-5.64.01-.5.03-1-.06-1.49-.22-1.15-.67-2.21-1.25-3.22-.69-1.19-1.55-2.27-2.39-3.35-.05-.06-.1-.12-.14-.19-.04-.05-.12-.08-.11-.19,1.78,1.8,3.32,3.73,4.17,6.16.06-.73.06-1.43-.12-2.11-.38-1.5-1.26-2.68-2.41-3.67-.79-.69-1.68-1.25-2.54-1.85-.15-.11-.3-.21-.44-.33-.14-.12-.3-.21-.44-.41.81.39,1.59.69,2.32,1.11,1.24.73,2.32,1.63,3.05,2.89.27.47.46.98.62,1.5-.03-.63-.12-1.26-.32-1.86-.46-1.39-1.14-2.65-2.32-3.55-1.5-1.14-3.2-1.55-5.06-1.17-2.62.53-4.32,2.1-5.08,4.67-.11.35-.19.72-.19,1.1.36-1.41,1.14-2.55,2.18-3.53-.62.8-1.2,1.62-1.61,2.56-.41.94-.57,1.94-.65,2.97.03-.03.05-.06.06-.08.13-.38.26-.76.37-1.15.5-1.73,1.49-3.09,3.02-4.04q.15-.1.29-.12c-1.3,1.04-2.39,2.23-2.79,3.9.49-1.06,1.24-1.9,2.13-2.64-.71.84-1.22,1.81-1.85,2.7.63-.55,1.34-1,1.97-1.54,1.03-.88,2.02-1.8,2.72-2.98.05-.09.09-.19.14-.28.02.14-.03.25-.1.36-.05.11-.08.21-.13.32-.6,1.26-1.45,2.32-2.47,3.25-.95.86-2,1.6-2.93,2.48-.97.91-1.85,1.9-2.45,3.1-.47.95-.78,1.94-.67,3.02.07.73.38,1.31,1.07,1.65.54.27,1.22.13,1.51-.33-.08.03-.14.06-.2.08-.55.21-1.07.08-1.45-.36-.37-.42-.47-.93-.43-1.47.05-.82.41-1.52.83-2.21.81-1.31,1.95-2.3,3.19-3.17,1.71-1.19,3.3-2.5,4.36-4.36-.13.42-.31.82-.55,1.2-.69,1.07-1.65,1.87-2.66,2.61-1.06.78-2.14,1.55-2.97,2.59-.3.38-.55.79-.77,1.21.33-.36.69-.68,1.11-1-.29.76-.41,1.5-.41,2.26.01,1.4.39,2.68,1.26,3.8.82,1.07,1.9,1.78,3.1,2.35,1.37.65,2.78,1.19,4.17,1.8.23.1.46.21.7.32-.32-.32-.69-.57-1.07-.8-1.02-.61-2.09-1.11-3.15-1.64-.8-.41-1.56-.87-2.21-1.5-1.23-1.2-1.71-2.65-1.46-4.34.19-1.26.77-2.35,1.53-3.36.69-.9,1.46-1.74,2.15-2.64.39-.51.77-1.04,1.12-1.58,0,.06-.02.12-.04.17-.56,1.32-1.23,2.56-2.11,3.69-.61.79-1.19,1.59-1.59,2.52-.54,1.25-.61,2.5,0,3.74.59,1.21,1.59,2,2.78,2.56.29.14.58.26.87.39-.21-.19-.45-.32-.68-.48-.96-.67-1.78-1.47-2.22-2.59-.23-.57-.36-1.15-.27-1.77.13-.88.55-1.63,1.07-2.33.56-.76,1.14-1.5,1.65-2.28,1.04-1.6,1.64-3.33,1.63-5.26,0-.13,0-.26.06-.42.3,1.72,1.12,3.1,2.42,4.25-.47-.13-.9-.11-1.33-.04-.28.04-.57.08-.82.26-.45.33-.44.82-.47,1.31.08-.2.18-.38.32-.54.57-.63,1.3-.76,2.09-.69.54.05.78.47.95.89.13.29,0,.65-.04.97-.09.63-.32,1.23-.53,1.82-.44,1.22-1.19,2.21-2.26,2.94-.7.48-1.4.46-2.09,0-.46-.31-.85-.69-1.2-1.11-.26-.32-.46-.67-.66-1.05-.28.57-.35,1.32-.21,1.96.24,1.03.78,1.89,1.52,2.63,1.13,1.14,2.49,1.91,3.94,2.57.38.17.77.35,1.15.53-.83-.13-1.64-.34-2.43-.58-.02.01-.03.03-.05.05.82.32,1.64.61,2.47.89,1.2.39,2.38.83,3.46,1.5.51.31.94.68,1.2,1.23.84,1.8.78,3.6,0,5.38-.74,1.65-1.98,2.86-3.53,3.75-1.31.76-2.74,1.1-4.24,1.14-.4.01-.81-.04-1.21-.08-.57-.06-1.12-.2-1.65-.39-2.91-.95-4.23-3.58-4.24-3.63h0c-.61-1.08-.9-2.28-.82-3.6.08-1.33.5-2.52,1.29-3.59.57-.76,1.26-1.35,2.22-1.56.53-.11,1.04-.11,1.47.27.28.24.41.56.31.93-.09.34-.33.54-.68.61-.39.08-.79-.14-1.05-.6-.17.61.44,1.29,1.16,1.19.62-.09,1.08-.56,1.16-1.14.08-.59-.25-1.23-.78-1.52-.51-.26-1.03-.21-1.56-.06-.74.21-1.32.69-1.87,1.17-1.68,1.49-2.43,3.4-2.37,5.63.04,1.22.41,2.34,1.07,3.35,1.6,2.44,3.84,3.86,6.79,4.1,1.01.08,2.01.01,2.98-.23,2.34-.58,4.17-1.89,5.5-3.87.88-1.3,1.28-2.74,1.22-4.31-.01-.4-.08-.8-.16-1.2ZM28.26,14.58c-.6-.67-1.22-1.33-1.69-2.11-.37-.61-.64-1.26-.81-1.95,0-.04,0-.07,0-.17.23.54.44,1.02.72,1.48.45.75.99,1.43,1.58,2.08.66.72,1.29,1.45,1.62,2.4.32.93.3,1.88.26,2.83-.09-.87-.26-1.72-.51-2.55-.23-.76-.64-1.42-1.16-2.01Z"/>
  <path class="cls-3" d="M24.64,42.13c-3.9-.17-6.6-2.29-8.29-5.66,1.06,3.96,5.05,7.31,10.13,6.56,1.79-.26,3.36-1,4.74-2.16,1.33-1.12,2.8-3.41,2.81-4.27-2.02,3.63-5.1,5.7-9.38,5.52"/>
  <path class="cls-3" d="M31.14,19.91c.1.41.26.79.45,1.17.41.82.9,1.61.71,2.59-.05.27.15.49.41.6.24.11.54.04.74-.17.28-.3.32-.65.21-1.02-.22-.74-.66-1.35-1.1-1.96-.48-.66-1.07-1.26-1.28-2.1-.09.29-.2.57-.13.89"/>
  <path class="cls-3" d="M32.31,15.76c-.23-.2-.49-.37-.73-.55,0,.15.09.24.17.33.42.47.86.92,1.26,1.4.57.68.99,1.43,1.04,2.34.05.83-.32,1.43-1.04,1.74.28.06.53-.01.75-.16.49-.34.71-.84.73-1.41.02-.66-.19-1.28-.52-1.84-.43-.73-1.02-1.31-1.67-1.85"/>
  <path class="cls-3" d="M17.78,28.94c.02-.13-.04-.23-.07-.33-.21-.67-.26-1.35-.05-2.03.16-.55.49-1.02.81-1.48.21-.29.45-.57.58-.9.06-.16.1-.31-.03-.47-.13.3-.31.55-.51.78-.63.73-1.23,1.47-1.35,2.47-.09.74.09,1.39.62,1.95"/>
  <path class="cls-3" d="M27.47,15.92c-.33.28-.73.33-1.14.29-.18-.02-.37-.05-.59-.07.28.26.51.51.87.68-.07-.09-.09-.12-.12-.16.21.1.4.22.7.21-.13-.05-.22-.08-.28-.18.31.06.61.12.93-.02q-.26-.04-.38-.15.5.01.73-.15c-.12,0-.2,0-.27,0-.05,0-.13.04-.16-.04-.03-.07.05-.1.09-.14.09-.11.19-.22.27-.34.03-.04.08-.1-.03-.13-.2-.04-.35-.17-.52-.29.19.2.08.35-.08.48"/>
  <path class="cls-3" d="M26.12,19.69c-.9-.19-1.79-.25-2.69.03.44.28,2.22.29,2.69-.03"/>
  <path class="cls-3" d="M24.77,19.02c.24-.05.48-.14.64-.38.03-.05.08-.13.03-.19-.04-.05-.12-.02-.17.01-.34.18-.68.18-1.01,0-.02-.01-.05,0-.07-.01-.13-.04-.15,0-.11.12.06.19.43.45.7.46"/>
  <path class="cls-1" d="M24,20.44c.47.42,1.05.41,1.51-.02-.27.07-.52.08-.77.08-.24,0-.48-.04-.75-.06"/>
  <path class="cls-1" d="M25.81,26.5c-.18-.06-.4-.16-.62-.19.19.08.38.16.57.24,0-.04,0-.06.05-.05"/>
  <path class="cls-5" d="M38.24,34.84c0,4.8-2.57,9.01-6.4,11.33v.86c4.26-2.4,7.15-6.96,7.15-12.19v-8.73h-.74v8.73ZM38.56,11.52h-.77c.3,1.1.45,2.25.45,3.45v8.16h.74v-8.16c0-1.19-.15-2.34-.43-3.45M11.45,11.52c-.28,1.1-.43,2.26-.43,3.45v8.16h.75v-8.16c0-1.19.16-2.35.45-3.45h-.77ZM11.77,34.84v-8.73h-.75v8.73c0,5.23,2.89,9.8,7.15,12.19v-.86c-3.83-2.32-6.4-6.54-6.4-11.34"/>
  <path class="cls-3" d="M13.58,9.04c-.1-.16-.22-.3-.38-.4l-.42-.18-.54,1.3.37.15.34-.83c.16.11.26.24.31.4.05.16.04.33-.04.51-.06.15-.15.26-.26.35-.11.09-.24.13-.38.15-.15.01-.3-.01-.46-.08-.16-.07-.28-.15-.38-.26-.09-.11-.15-.23-.17-.37-.02-.14,0-.28.06-.42.06-.13.13-.23.22-.31.09-.07.2-.12.32-.13l.23-.56c-.27-.02-.51.04-.73.18-.22.15-.38.35-.49.62-.09.23-.13.46-.1.69.03.23.11.44.25.62.14.18.33.32.57.42.23.1.47.13.7.1.23-.03.44-.12.62-.26.18-.14.32-.33.42-.56.09-.2.12-.41.1-.61-.01-.2-.07-.38-.17-.55"/>
  <polygon class="cls-3" points="14.7 7.42 14.24 8.14 12.4 6.96 12.12 7.4 14.3 8.8 15.05 7.64 14.7 7.42"/>
  <polygon class="cls-3" points="13.53 5.41 13.2 5.82 15.23 7.44 15.55 7.04 13.53 5.41"/>
  <polygon class="cls-3" points="15.07 4.38 15.57 3.89 15.27 3.59 13.91 4.92 14.2 5.22 14.7 4.74 16.22 6.3 16.59 5.93 15.07 4.38"/>
  <polygon class="cls-3" points="18.46 3.95 17.5 4.61 17.46 2.51 17.23 2.17 15.77 3.19 16.02 3.55 16.98 2.89 17.03 4.99 17.26 5.32 18.71 4.31 18.46 3.95"/>
  <path class="cls-5" d="M21.42,2.47c.02-.1.04-.2.06-.31l.09-.52-.51.19-.08.4s0,.01,0,.02c0,0,0,.01,0,.01l-.83-.39c-.11-.06-.19-.1-.25-.15-.06-.04-.09-.1-.12-.16-.02-.06-.01-.12.01-.17.03-.05.07-.09.14-.12.07-.03.13-.02.18,0,.05.03.09.08.12.16l.48-.17c-.03-.12-.09-.21-.18-.29s-.19-.12-.32-.14c-.12-.02-.26,0-.41.05-.15.05-.26.12-.35.21s-.15.19-.18.3c-.03.11-.02.22.02.34.03.08.07.15.12.21.06.06.13.12.22.18-.15.14-.25.29-.29.46-.04.16-.04.32.02.48.06.15.14.27.25.35.12.09.25.14.41.15.16.01.33-.01.51-.07.33-.12.57-.32.72-.6l.36.17.6-.22-.8-.37ZM20.4,3.08c-.13.05-.25.05-.35,0-.1-.04-.18-.12-.22-.22-.06-.18,0-.37.19-.55l.82.38c-.1.19-.24.32-.43.38"/>
  <path class="cls-3" d="M25.58,1.12l-1.4.07.02.4.89-.05c-.03.19-.1.34-.23.45-.12.11-.28.17-.48.18-.16,0-.31-.02-.43-.08-.13-.06-.23-.16-.3-.28-.07-.12-.12-.27-.13-.45,0-.17.02-.32.08-.45.06-.13.15-.23.26-.31.12-.07.25-.12.4-.12.14,0,.26.01.37.06.11.05.19.13.26.24l.6-.03c-.1-.25-.26-.44-.48-.58-.22-.13-.48-.19-.77-.17-.25.01-.47.08-.67.2-.19.12-.34.29-.45.5-.1.21-.15.44-.13.7.01.25.08.48.21.67.13.19.29.34.5.44.21.1.44.15.69.13.22-.01.42-.07.6-.17.18-.1.31-.23.42-.39.1-.16.17-.33.19-.51l-.02-.45Z"/>
  <polygon class="cls-3" points="26.51 2.28 26.77 .11 26.25 .05 25.94 2.63 27.31 2.79 27.36 2.38 26.51 2.28"/>
  <path class="cls-3" d="M29.61.71l-.58-.17-1.64,2.23.53.16.31-.43.99.29.02.53.53.16-.16-2.76ZM28.47,2.14l.67-.94.05,1.15-.72-.21Z"/>
  <polygon class="cls-3" points="33.21 2.41 31.53 3.67 31.78 1.59 31.27 1.29 29.97 3.54 30.42 3.8 31.27 2.34 31.03 4.15 31.37 4.35 32.82 3.23 31.98 4.69 32.43 4.95 33.72 2.7 33.21 2.41"/>
  <path class="cls-3" d="M35.77,4.72c-.07-.22-.19-.42-.37-.59-.18-.17-.38-.28-.6-.34-.23-.06-.45-.06-.68,0s-.42.19-.6.37c-.18.19-.29.39-.35.62-.05.23-.05.45.02.68.07.22.19.42.37.59.17.17.38.28.6.34.22.06.45.05.67-.01.23-.06.42-.19.6-.37.18-.18.29-.39.34-.62.06-.23.05-.45-.02-.67M35.3,5.24c-.04.14-.12.28-.24.4-.12.13-.25.21-.39.26-.14.05-.28.06-.41.03-.13-.03-.26-.1-.37-.21-.11-.11-.19-.23-.23-.37-.04-.13-.03-.27,0-.41.04-.14.12-.28.25-.4.12-.13.25-.21.39-.26.14-.05.28-.06.41-.02.13.03.26.1.37.21.11.11.19.23.22.36.04.13.04.27,0,.41"/>
  <path class="cls-3" d="M37.73,7.01l-1.33.9c-.15.1-.28.14-.41.11-.13-.02-.24-.1-.34-.25-.09-.13-.13-.27-.1-.4.03-.13.11-.24.26-.34l1.33-.9-.29-.43-1.33.9c-.18.12-.31.26-.39.43-.07.16-.1.33-.07.5.03.17.09.34.2.5.11.16.24.29.39.38.15.09.32.13.5.13.18,0,.36-.07.54-.2l1.33-.9-.29-.44Z"/>
  <path class="cls-3" d="M38.82,9.13l-.38-.89-2.39,1.02.2.48.93-.4.1.23-.7.92.23.56.73-.99c.12.16.27.26.44.3.16.04.32.02.48-.04.13-.06.25-.15.33-.26.08-.11.13-.25.14-.41.01-.16-.02-.33-.1-.51M38.44,9.61c-.03.09-.1.16-.21.2-.12.04-.22.05-.31.01-.09-.04-.16-.12-.22-.25l-.17-.4.7-.3.17.4c.06.13.07.24.03.33"/>
  <path class="cls-5" d="M20.41,47.95c-.07-.09-.16-.16-.26-.21-.1-.05-.23-.09-.39-.14-.12-.03-.2-.07-.27-.09-.07-.03-.12-.06-.16-.1-.04-.04-.06-.1-.06-.16,0-.09.03-.16.09-.21.06-.05.13-.07.23-.07.11,0,.2.03.26.08.07.06.1.13.11.21h.54c-.02-.22-.1-.39-.26-.51-.16-.12-.36-.19-.61-.19-.17,0-.32.03-.45.09-.13.06-.23.14-.31.25-.07.1-.11.23-.11.38,0,.15.03.28.1.37.07.09.16.16.26.21.1.04.23.09.39.14.12.03.21.06.28.09.06.03.12.06.16.11.04.05.07.11.07.18,0,.09-.03.16-.1.22-.07.06-.16.08-.27.08s-.2-.03-.26-.09c-.06-.06-.1-.14-.1-.24h-.53c0,.15.04.28.12.39.08.11.19.19.32.25.13.06.29.09.46.09s.34-.03.47-.1c.13-.07.23-.16.3-.27.07-.11.1-.23.1-.36,0-.15-.03-.28-.11-.37"/>
  <polygon class="cls-5" points="20.81 46.58 20.81 46.97 21.46 46.97 21.46 49.02 21.95 49.02 21.95 46.97 22.6 46.97 22.6 46.58 20.81 46.58"/>
  <path class="cls-5" d="M24.43,46.58v1.51c0,.16-.04.29-.13.38-.09.09-.21.13-.37.13s-.28-.04-.37-.13c-.09-.09-.13-.22-.13-.38v-1.51h-.49v1.51c0,.2.04.38.13.53.09.15.2.25.35.32.15.07.31.11.5.11s.35-.04.5-.11c.15-.07.27-.18.36-.32.09-.14.13-.32.13-.53v-1.51h-.5Z"/>
  <path class="cls-5" d="M27.38,47.16c-.11-.19-.26-.33-.45-.43-.2-.1-.42-.15-.68-.15h-.85v2.44h.85c.26,0,.48-.05.68-.15.19-.1.34-.24.45-.42.1-.18.16-.4.16-.64s-.06-.46-.16-.65M26.83,48.39c-.14.14-.34.21-.6.21h-.35v-1.61h.35c.26,0,.45.07.6.21.14.15.21.34.21.6s-.07.45-.21.59"/>
  <rect class="cls-5" x="27.91" y="46.58" width=".49" height="2.44"/>
  <path class="cls-5" d="M31.1,47.15c-.11-.19-.26-.34-.45-.44-.19-.11-.4-.16-.63-.16s-.44.06-.63.16c-.19.1-.34.25-.45.44-.12.19-.17.41-.17.64s.06.45.17.64c.11.19.26.34.45.45.19.11.4.16.63.16s.44-.05.63-.16c.19-.11.34-.26.45-.45.11-.19.16-.41.16-.64s-.06-.45-.16-.64M30.67,48.22c-.06.12-.15.22-.26.29-.11.07-.24.1-.39.1s-.28-.03-.39-.1c-.11-.07-.2-.16-.26-.29-.06-.12-.09-.26-.09-.43s.03-.31.09-.43c.06-.12.15-.22.26-.28.11-.06.24-.1.39-.1s.28.03.39.1c.11.07.2.16.26.28.06.12.09.26.09.43s-.03.31-.09.43"/>
  <path class="cls-3" d="M11.98,24.16c-.19.54-.37,1.07-.55,1.59-.04,0-.03-.03-.04-.05-.17-.48-.34-.97-.51-1.45-.02-.07-.03-.09.06-.09.34,0,.68,0,1.04,0"/>
  <path class="cls-3" d="M11.64,25.57c.16-.45.32-.91.47-1.36.02-.05.05-.05.09-.05.16,0,.32,0,.51,0-.36.48-.7.95-1.05,1.43,0,0-.01,0-.02-.01"/>
  <path class="cls-3" d="M11.19,25.58s-.02,0-.03-.01c-.34-.46-.68-.93-1.04-1.41h.55s.04.03.05.06c.16.45.31.91.47,1.36h0Z"/>
  <path class="cls-3" d="M10.12,24.02c.14-.2.27-.38.4-.56.01-.02.03-.03.05-.03.22,0,.43,0,.67,0-.18.2-.34.38-.51.56-.02.02-.04.03-.06.03-.18,0-.36,0-.56,0"/>
  <path class="cls-3" d="M12.71,24.02c-.2,0-.38,0-.56,0-.03,0-.05,0-.06-.03-.16-.18-.33-.36-.51-.56.24,0,.45,0,.67,0,.02,0,.04,0,.05.03.13.18.26.36.4.56"/>
  <path class="cls-3" d="M11.91,24.02h-1c.12-.14.24-.26.35-.38q.15-.17.3,0c.11.12.22.24.35.38"/>
  <path class="cls-3" d="M11.22,25.58s0,.01.01.02h-.01s0-.01,0-.02c0,0,0,0,0,0"/>
  <path class="cls-3" d="M39.15,24.16c-.19.54-.37,1.07-.55,1.59-.04,0-.03-.03-.04-.05-.17-.48-.34-.97-.51-1.45-.02-.07-.03-.09.06-.09.34,0,.68,0,1.04,0"/>
  <path class="cls-3" d="M38.81,25.57c.16-.45.32-.91.47-1.36.02-.05.05-.05.09-.05.16,0,.32,0,.51,0-.36.48-.7.95-1.05,1.43,0,0-.01,0-.02-.01"/>
  <path class="cls-3" d="M38.36,25.58s-.02,0-.03-.01c-.34-.46-.68-.93-1.04-1.41h.55s.04.03.05.06c.16.45.31.91.47,1.36h0Z"/>
  <path class="cls-3" d="M37.29,24.02c.14-.2.27-.38.4-.56.01-.02.03-.03.05-.03.22,0,.43,0,.67,0-.18.2-.34.38-.51.56-.02.02-.04.03-.06.03-.18,0-.36,0-.56,0"/>
  <path class="cls-3" d="M39.88,24.02c-.2,0-.38,0-.56,0-.03,0-.05,0-.06-.03-.16-.18-.33-.36-.51-.56.24,0,.45,0,.67,0,.02,0,.04,0,.05.03.13.18.26.36.4.56"/>
  <path class="cls-3" d="M39.08,24.02h-1c.12-.14.24-.26.35-.38q.15-.17.3,0c.11.12.22.24.35.38"/>
  <path class="cls-3" d="M38.39,25.58s0,.01.01.02h-.01s0-.01,0-.02c0,0,0,0,0,0"/>
  <g>
    <path class="cls-5" d="M23.69,40.02l.19-.23-.09-.07s-.01-.03,0-.04c0-.01.03-.01.04,0l.09.07.07-.08-.11-.09s-.01-.03,0-.04c0-.01.03-.01.04,0l.11.09.07-.08-.11-.09s-.01-.03,0-.04c0-.01.03-.01.04,0l.11.09.07-.08-.12-.09s-.01-.03,0-.04c0-.01.03-.01.04,0l.12.09.07-.08-.13-.1s-.01-.03,0-.04c0-.01.03-.01.04,0l.13.1.07-.08-.15-.12s-.01-.03,0-.04c0-.01.03-.01.04,0l.15.12.07-.08-.17-.13s-.01-.03,0-.04c0-.01.03-.01.04,0l.17.13.07-.08-.17-.13s-.01-.03,0-.04c0-.01.03-.01.04,0l.17.13.07-.08-.18-.14s-.01-.03,0-.04c0-.01.03-.01.04,0l.18.14.07-.08-.19-.15s-.01-.03,0-.04c0-.01.03-.01.04,0l.19.15.07-.08-.19-.15s-.01-.03,0-.04c0-.01.03-.01.04,0l.19.15.07-.08-.2-.16s-.01-.03,0-.04.03-.01.04,0l.2.16.07-.08-.19-.15s-.01-.03,0-.04c0-.01.03-.01.04,0l.19.15.07-.08-.2-.16s-.01-.03,0-.04c0-.01.03-.01.04,0l.2.16.07-.08-.21-.17s-.01-.03,0-.04c0-.01.03-.01.04,0l.21.17.07-.08-.21-.17s-.01-.03,0-.04c0-.01.03-.01.04,0l.21.17.07-.08-.21-.17s-.01-.03,0-.04c0-.01.03-.01.04,0l.21.17.07-.08-.21-.17s-.01-.03,0-.04.03-.01.04,0l.21.17.07-.08-.21-.17s-.01-.03,0-.04c0-.01.03-.01.04,0l.21.17.07-.08-.21-.17s-.01-.03,0-.04c0-.01.03-.01.04,0l.21.17.07-.08-.22-.17s-.01-.03,0-.04c0-.01.03-.01.04,0l.22.17.07-.08-.22-.17s-.01-.03,0-.04c0-.01.03-.01.04,0l.22.17.07-.08-.22-.17s-.01-.03,0-.04c0-.01.03-.01.04,0l.22.17.07-.08-.22-.17s-.01-.03,0-.04c0-.01.03-.01.04,0l.22.17.07-.08-.22-.17s-.01-.03,0-.04c0-.01.03-.01.04,0l.22.17.07-.08-.22-.18s-.01-.03,0-.04c0-.01.03-.01.04,0l.22.18.07-.08-.22-.18s-.01-.03,0-.04c0-.01.03-.01.04,0l.22.18.07-.08-.22-.18s-.01-.03,0-.04c0-.01.03-.01.04,0l.22.18.07-.08-.22-.18s-.01-.03,0-.04c0-.01.03-.01.04,0l.22.18.07-.08-.22-.18s-.01-.03,0-.04c0-.01.03-.01.04,0l.22.18.07-.08-.22-.18s-.01-.03,0-.04c0-.01.03-.01.04,0l.22.18.07-.08-.22-.18s-.01-.03,0-.04c0-.01.03-.01.04,0l.22.18.07-.08-.22-.18s-.01-.03,0-.04.03-.01.04,0l.22.18.07-.08-.23-.18s-.01-.03,0-.04c0-.01.03-.01.04,0l.23.18.07-.08-.23-.18s-.01-.03,0-.04c0-.01.03-.01.04,0l.23.18.07-.08-.23-.18s-.01-.03,0-.04.03-.01.04,0l.23.18.07-.08-.23-.18s-.01-.03,0-.04c0-.01.03-.01.04,0l.23.18.79-.98s.17-.25.53-.25c.08,0,.14-.07.14-.14,0-.3.08-.92.88-.9,0,0,1.34-.01,1.12-1.27,0-.04-.33-.85-1.27-.56-.55.17-.68,1.51-.68,1.51,0,0-.17,1.43-1.62,1.75-.17.04-.33.14-.43.29l-3.42,4.95c-.09.14,0,.23.11.34ZM29.45,31.89c.1-.36.48-.57.84-.47s.57.48.47.84c-.1.36-.48.57-.84.47-.36-.1-.57-.48-.47-.84ZM27.45,34.73c.05.02.08.07.07.13-.02.05-.07.08-.13.07-.05-.02-.08-.07-.07-.13.02-.05.07-.08.13-.07Z"/>
    <path class="cls-5" d="M27.85,31.69c.2.3.21.55.14.74h0c-.39.62-.62,1.55-.69,1.86-.02.07.19.02.27,0,.05,0,.25-.08.24-.16-.27-1.25.75-1.9.75-1.9,0,0,.79-.41.9-1.09.02-.13.13-.18.26-.19.07,0,.23,0,.27-.04.08-.07-.23-.18-.4-.21-.09-.02-.18-.08-.21-.17-.02-.04-.04-.09-.07-.14-.12-.21-.67-.43-.95-.34-1.26.4-.5,1.62-.5,1.62ZM28.98,30.51c.28.25.3.69.04.96-.25.28-.69.3-.96.04s-.3-.69-.04-.96c.25-.28.69-.3.96-.04Z"/>
  </g>
  <g>
    <path class="cls-5" d="M27.37,39.54l-3.99-4.5c-.12-.14-.28-.22-.46-.24-1.48-.14-1.82-1.54-1.82-1.54,0,0-.3-1.32-.86-1.42-.97-.17-1.19.67-1.2.71-.07,1.27,1.26,1.13,1.26,1.13.8-.12.96.49.99.78,0,.08.08.14.16.13.36-.04.56.18.56.18l.91.88.2-.21s.03-.01.04,0c.01.01.01.03,0,.04l-.2.21.07.07.2-.21s.03-.01.04,0,.01.03,0,.04l-.2.21.07.07.2-.21s.03-.01.04,0c.01.01.01.03,0,.04l-.2.21.07.07.2-.21s.03-.01.04,0c.01.01.01.03,0,.04l-.2.21.07.07.2-.21s.03-.01.04,0,.01.03,0,.04l-.2.21.07.07.2-.2s.03-.01.04,0c.01.01.01.03,0,.04l-.2.2.07.07.2-.2s.03-.01.04,0c.01.01.01.03,0,.04l-.2.2.07.07.2-.2s.03-.01.04,0c.01.01.01.03,0,.04l-.2.2.07.07.2-.2s.03-.01.04,0c.01.01.01.03,0,.04l-.2.2.07.07.2-.2s.03-.01.04,0c.01.01.01.03,0,.04l-.2.2.07.07.2-.2s.03-.01.04,0c.01.01.01.03,0,.04l-.2.2.07.07.2-.2s.03-.01.04,0c.01.01.01.03,0,.04l-.2.2.07.07.2-.2s.03-.01.04,0c.01.01.01.03,0,.04l-.2.2.07.07.2-.2s.03-.01.04,0c.01.01.01.03,0,.04l-.2.2.07.07.19-.2s.03-.01.04,0c.01.01.01.03,0,.04l-.19.2.07.07.19-.2s.03-.01.04,0c.01.01.01.03,0,.04l-.19.2.07.07.19-.2s.03-.01.04,0c.01.01.01.03,0,.04l-.19.2.07.07.19-.2s.03-.01.04,0c.01.01.01.03,0,.04l-.19.2.07.07.19-.2s.03-.01.04,0c.01.01.01.03,0,.04l-.19.2.07.07.19-.19s.03-.01.04,0,.01.03,0,.04l-.19.19.07.07.19-.19s.03-.01.04,0c.01.01.01.03,0,.04l-.19.19.07.07.19-.19s.03-.01.04,0c.01.01.01.03,0,.04l-.19.19.07.07.19-.19s.03-.01.04,0c.01.01.01.03,0,.04l-.19.19.07.07.18-.18s.03-.01.04,0c.01.01.01.03,0,.04l-.18.18.07.07.17-.17s.03-.01.04,0c.01.01.01.03,0,.04l-.17.17.07.07.18-.18s.03-.01.04,0,.01.03,0,.04l-.18.18.07.07.17-.17s.03-.01.04,0c.01.01.01.03,0,.04l-.17.17.07.07.17-.17s.03-.01.04,0c.01.01.01.03,0,.04l-.17.17.07.07.16-.16s.03-.01.04,0c.01.01.01.03,0,.04l-.16.16.07.07.15-.15s.03-.01.04,0c.01.01.01.03,0,.04l-.15.15.07.07.15-.15s.03-.01.04,0c.01.01.01.03,0,.04l-.15.15.07.07.13-.13s.03-.01.04,0c.01.01.01.03,0,.04l-.13.13.07.07.12-.12s.03-.01.04,0c.01.01.01.03,0,.04l-.12.12.07.07.11-.11s.03-.01.04,0c.01.01.01.03,0,.04l-.11.11.07.07.1-.1s.03-.01.04,0c.01.01.01.03,0,.04l-.1.1.07.07.1-.1s.03-.01.04,0c.01.01.01.03,0,.04l-.1.1.07.07.08-.08s.03-.01.04,0c.01.01.01.03,0,.04l-.08.08.21.21c.11-.12.18-.22.07-.35ZM20.24,33.4c-.35.15-.75-.01-.89-.36-.15-.35.01-.75.36-.89s.75.01.89.36c.15.35-.01.75-.36.89ZM23.06,35.14c.02.05,0,.11-.05.13-.05.02-.11,0-.13-.05-.02-.05,0-.11.05-.13.05-.02.11,0,.13.05Z"/>
    <path class="cls-5" d="M21.47,30.58c-.29-.06-.81.23-.91.45-.02.05-.04.1-.05.14-.03.09-.1.16-.19.19-.16.05-.46.19-.37.25.04.03.21,0,.27,0,.13,0,.24.04.28.16.19.66,1.03.97,1.03.97,0,0,1.09.52.97,1.79,0,.08.21.13.25.13.08,0,.29.03.27-.04-.11-.31-.45-1.2-.91-1.77h0c-.09-.18-.11-.43.05-.75,0,0,.61-1.3-.69-1.54ZM21.86,31.01c.29.24.32.68.07.96s-.68.32-.96.07c-.29-.24-.32-.68-.07-.96.24-.29.68-.32.96-.07Z"/>
  </g>
  <g>
    <path class="cls-3" d="M22.96,30.55c-.1.26.39.56.92.88.53.32,1.11.67,1.23,1.08l-.11.03c-.11-.36-.67-.7-1.18-1.01-.58-.35-1-.63-.87-.97ZM26.46,33.59c0-.1.02-.21.03-.3.05-.6-.1-.72-.69-1.2l-.03-.03c-.2-.16-.42-.33-.63-.47-.2-.14-.4-.26-.57-.35h0c-.39-.22-.85-.45-1.26-.63v-.06c.48.21.85.34,1.31.6h0c.17.09.37.22.58.36.22.15.44.31.64.48l.03.03c.63.51.79.64.73,1.3,0,.11-.02.21-.03.3-.05.57-.11,1.47-.06,2.05-.23-.67-.12-1.37-.05-2.06Z"/>
    <path class="cls-3" d="M22.76,31.96c.24.05,1.49.15,2.33.5.1.04.2.08.3.12.62.23,1.1.38.89,1.17.08-.7-.4-.86-.93-1.07-.1-.04-.2-.08-.3-.12-.65-.27-1.56-.39-2.28-.57v-.03Z"/>
    <path class="cls-3" d="M22.59,32.1c.14.32.5.4.88.5.09.02.17.05.24.07.29.09.56.18.8.27.24.09.46.18.65.27l-.05.1c-.19-.09-.4-.17-.64-.26-.24-.09-.5-.18-.8-.27-.08-.02-.15-.04-.23-.07-.4-.11-.74-.2-.89-.57l.05-.03Z"/>
    <path class="cls-3" d="M22.8,33.11c.05.14.84.34.98.38.33.1.93.18,1.15.48.1.13.09.3.05.44-.12-.68-.66-.65-1.23-.82-.23-.07-.86-.25-.95-.48M25.94,34.27c.05-.22.06-.53-.16-.67-.21-.13-.6-.27-1.02-.38-.34-.09-1.66-.47-1.88-.32.17-.26,1.59.13,1.91.21.43.11.83.25,1.05.39.29.18.19.56.1.76Z"/>
    <path class="cls-3" d="M24.28,33.7c-.02.85.45,1.28.29,1.87.02-.67-.44-.94-.42-1.9l.13.03Z"/>
    <polygon class="cls-6" points="24.27 33.08 24.28 32.94 24.39 32.94 24.38 33.08 24.27 33.08"/>
    <polygon class="cls-3" points="24.21 32.28 24.23 31.75 24.34 31.75 24.32 32.28 24.21 32.28"/>
    <path class="cls-3" d="M25.69,29.63c-.04.2-.05.47-.02.83h0c.02.28.03.54.02.77,0,.23-.03.44-.07.62l-.11-.02c.04-.18.06-.38.06-.61,0-.23,0-.48-.02-.76h0c-.03-.36-.03-.65.02-.86.05-.22.2-.36.36-.35-.06.04-.18.06-.25.38"/>
    <path class="cls-3" d="M26.07,29.6c.18.52.26,1.77.22,2.78h-.11c.03-.79,0-1.91-.12-2.64v-.14Z"/>
    <path class="cls-4" d="M25.91,29.09c.1.1.17.35.18.58,0,.07,0,.13,0,.19-.05-.04-.09-.09-.12-.15-.08-.14-.1-.35-.05-.62"/>
    <path class="cls-4" d="M23.05,30.66c-.32-.23-.36-.47.19-.18.07.04.14.08.18.12.19.17-.17.2-.37.06"/>
    <path class="cls-4" d="M22.7,32.19c-.14-.03-.27-.09-.27-.19,0-.07.14-.09.39-.05.16.03.28.11.25.18-.05.1-.29.07-.37.05"/>
    <path class="cls-4" d="M23.18,32.92s-.09-.02-.16-.03c-.27-.05-.42.14-.14.22.12.03.32.11.39-.04.02-.06,0-.12-.09-.15"/>
    <path class="cls-3" d="M24.63,28.92c-.01.25-.02.48-.03.7.12.01.24.02.35.03.11,0,.22,0,.32-.01,0-.14,0-.61-.03-1.5-.1-.02-.2-.03-.29-.03-.09,0-.17,0-.25,0-.03.29-.05.56-.06.81M24.33,31.05c-.05-.23-.09-.45-.1-.66-.01-.21-.01-.4.01-.58v-.03s.03-.01.03-.01c.04-.02.08-.04.12-.06.03-.02.07-.04.1-.06,0-.23.01-.47.03-.73.02-.27.04-.55.07-.86v-.04s.04,0,.04,0c.1-.02.2-.02.31-.02.11,0,.23.02.35.04h.05s0,.05,0,.05c.04,1.12.04,1.6.04,1.6v.05s-.05,0-.05,0c-.13.02-.26.03-.39.02-.13,0-.25-.01-.38-.03-.04.03-.08.05-.11.07-.03.02-.07.04-.1.05-.02.16-.02.34,0,.53.01.2.05.42.1.64l-.11.02Z"/>
    <path class="cls-3" d="M25.34,29.63c.07.02.14.06.21.09.03.02.06.03.08.04h.03s0,.04,0,.04c.02.17,0,.5-.05.82-.04.28-.1.56-.18.7l-.02.02s-.14.04-.25.05c-.09,0-.2,0-.31-.02l.02-.11c.11.02.21.02.29.01.09,0,.16-.02.19-.03.06-.13.12-.38.16-.64.04-.29.06-.59.05-.76-.02,0-.04-.02-.06-.03-.06-.03-.13-.07-.19-.08l.03-.11Z"/>
    <path class="cls-3" d="M24.3,29.76c.21.04.57.13.79.13-.26.05-.55.02-.8-.02l.02-.11Z"/>
    <polygon class="cls-4" points="23.79 28.52 23.86 28.79 23.91 28.94 24.06 28.98 24.32 29.05 24.06 29.13 23.91 29.17 23.86 29.32 23.79 29.58 23.72 29.32 23.67 29.17 23.53 29.13 23.26 29.05 23.53 28.98 23.67 28.94 23.72 28.79 23.79 28.52"/>
    <polygon class="cls-4" points="24.23 27.69 24.27 27.84 24.3 27.93 24.38 27.95 24.53 27.99 24.38 28.04 24.3 28.06 24.27 28.14 24.23 28.3 24.19 28.14 24.16 28.06 24.08 28.04 23.93 27.99 24.08 27.95 24.16 27.93 24.19 27.84 24.23 27.69"/>
    <polygon class="cls-4" points="23.41 28.07 23.45 28.22 23.48 28.3 23.56 28.33 23.71 28.37 23.56 28.41 23.48 28.44 23.45 28.52 23.41 28.67 23.37 28.52 23.34 28.44 23.26 28.41 23.11 28.37 23.26 28.33 23.34 28.3 23.37 28.22 23.41 28.07"/>
    <path class="cls-2" d="M23.14,33.09s-.29-.07-.33-.07c.05.03.31.07.33.07"/>
    <path class="cls-2" d="M22.95,32.14c-.06-.05-.36-.09-.42-.08.06.04.38.09.42.08"/>
    <path class="cls-2" d="M23.33,30.68c-.04-.07-.36-.24-.42-.25.05.07.38.25.42.25"/>
    <path class="cls-2" d="M26.03,29.75c.03-.08-.05-.43-.08-.49-.02.08.06.46.08.49"/>
    <path class="cls-4" d="M24.41,30.41c.01.17.04.36.09.55.05.03.11.06.16.09h0c.07.04.14.08.22.12.09.01.17.02.24.01.08,0,.14-.02.17-.03.05-.12.1-.33.14-.56,0-.01,0-.03,0-.04-.4-.04-.49-.26-1.02-.15"/>
  </g>
</svg>