<?xml version="1.0" encoding="UTF-8"?>
<svg id="Layer_1" data-name="Layer 1" xmlns="http://www.w3.org/2000/svg" viewBox="0 0 87.91 87.91">
  <defs>
    <style>
      .cls-1 {
        fill: #221f1f;
      }

      .cls-2 {
        fill: #2d2d2d;
      }

      .cls-3 {
        fill: #fff;
      }

      .cls-4, .cls-5 {
        fill: #212120;
      }

      .cls-4, .cls-6 {
        fill-rule: evenodd;
      }

      .cls-7 {
        fill: #e44398;
      }

      .cls-8, .cls-6 {
        fill: #e34497;
      }

      .cls-9 {
        fill: #373435;
      }
    </style>
  </defs>
  <rect class="cls-2" x=".05" width="87.79" height="87.79" rx="14.11" ry="14.11"/>
  <g>
    <g>
      <path class="cls-3" d="M45.14,47.29s.05-.05.07-.07c-.08-.03-.09,0-.07.07ZM45.14,47.29s.05-.05.07-.07c-.08-.03-.09,0-.07.07ZM45.14,47.29s.05-.05.07-.07c-.08-.03-.09,0-.07.07ZM45.14,47.29s.05-.05.07-.07c-.08-.03-.09,0-.07.07ZM47.78,60.14c-.09-.03-.17.02-.19.11-.03.08.02.17.11.19.08.03.17-.03.19-.11.03-.09-.03-.17-.11-.19ZM52.25,54.95c-.56-.16-1.16.16-1.32.73-.16.56.17,1.16.73,1.32.57.16,1.16-.16,1.32-.73.17-.56-.16-1.16-.73-1.32ZM52.25,54.95c-.56-.16-1.16.16-1.32.73-.16.56.17,1.16.73,1.32.57.16,1.16-.16,1.32-.73.17-.56-.16-1.16-.73-1.32ZM47.78,60.14c-.09-.03-.17.02-.19.11-.03.08.02.17.11.19.08.03.17-.03.19-.11.03-.09-.03-.17-.11-.19ZM45.14,47.29s.05-.05.07-.07c-.08-.03-.09,0-.07.07ZM37.03,56.65c-.23-.54-.86-.79-1.4-.56-.54.23-.8.86-.56,1.4.23.54.86.8,1.4.56.54-.23.79-.86.56-1.4ZM40.69,60.7c-.08.03-.12.13-.09.21.03.08.13.12.21.09s.12-.13.09-.21c-.03-.08-.13-.12-.21-.09ZM47.78,60.14c-.09-.03-.17.02-.19.11-.03.08.02.17.11.19.08.03.17-.03.19-.11.03-.09-.03-.17-.11-.19ZM50.19,53.51c-.43-.4-1.11-.37-1.51.07-.4.44-.37,1.11.07,1.51.44.4,1.11.37,1.51-.07.4-.43.37-1.11-.07-1.51ZM52.25,54.95c-.56-.16-1.16.16-1.32.73-.16.56.17,1.16.73,1.32.57.16,1.16-.16,1.32-.73.17-.56-.16-1.16-.73-1.32ZM52.25,54.95c-.56-.16-1.16.16-1.32.73-.16.56.17,1.16.73,1.32.57.16,1.16-.16,1.32-.73.17-.56-.16-1.16-.73-1.32ZM47.78,60.14c-.09-.03-.17.02-.19.11-.03.08.02.17.11.19.08.03.17-.03.19-.11.03-.09-.03-.17-.11-.19ZM40.69,60.7c-.08.03-.12.13-.09.21.03.08.13.12.21.09s.12-.13.09-.21c-.03-.08-.13-.12-.21-.09ZM37.03,56.65c-.23-.54-.86-.79-1.4-.56-.54.23-.8.86-.56,1.4.23.54.86.8,1.4.56.54-.23.79-.86.56-1.4ZM50.19,53.51c-.43-.4-1.11-.37-1.51.07-.4.44-.37,1.11.07,1.51.44.4,1.11.37,1.51-.07.4-.43.37-1.11-.07-1.51ZM45.14,47.29s.05-.05.07-.07c-.08-.03-.09,0-.07.07ZM37.03,56.65c-.23-.54-.86-.79-1.4-.56-.54.23-.8.86-.56,1.4.23.54.86.8,1.4.56.54-.23.79-.86.56-1.4ZM39.01,54.31c-.45-.38-1.12-.34-1.51.11-.38.45-.33,1.13.12,1.51s1.12.33,1.51-.12c.39-.45.34-1.12-.11-1.51ZM40.69,60.7c-.08.03-.12.13-.09.21.03.08.13.12.21.09s.12-.13.09-.21c-.03-.08-.13-.12-.21-.09ZM47.78,60.14c-.09-.03-.17.02-.19.11-.03.08.02.17.11.19.08.03.17-.03.19-.11.03-.09-.03-.17-.11-.19ZM50.19,53.51c-.43-.4-1.11-.37-1.51.07-.4.44-.37,1.11.07,1.51.44.4,1.11.37,1.51-.07.4-.43.37-1.11-.07-1.51ZM52.25,54.95c-.56-.16-1.16.16-1.32.73-.16.56.17,1.16.73,1.32.57.16,1.16-.16,1.32-.73.17-.56-.16-1.16-.73-1.32ZM39.01,54.31c-.45-.38-1.12-.34-1.51.11-.38.45-.33,1.13.12,1.51s1.12.33,1.51-.12c.39-.45.34-1.12-.11-1.51ZM52.25,54.95c-.56-.16-1.16.16-1.32.73-.16.56.17,1.16.73,1.32.57.16,1.16-.16,1.32-.73.17-.56-.16-1.16-.73-1.32ZM47.78,60.14c-.09-.03-.17.02-.19.11-.03.08.02.17.11.19.08.03.17-.03.19-.11.03-.09-.03-.17-.11-.19ZM40.69,60.7c-.08.03-.12.13-.09.21.03.08.13.12.21.09s.12-.13.09-.21c-.03-.08-.13-.12-.21-.09ZM37.03,56.65c-.23-.54-.86-.79-1.4-.56-.54.23-.8.86-.56,1.4.23.54.86.8,1.4.56.54-.23.79-.86.56-1.4ZM50.19,53.51c-.43-.4-1.11-.37-1.51.07-.4.44-.37,1.11.07,1.51.44.4,1.11.37,1.51-.07.4-.43.37-1.11-.07-1.51ZM45.14,47.29s.05-.05.07-.07c-.08-.03-.09,0-.07.07ZM37.03,56.65c-.23-.54-.86-.79-1.4-.56-.54.23-.8.86-.56,1.4.23.54.86.8,1.4.56.54-.23.79-.86.56-1.4ZM39.01,54.31c-.45-.38-1.12-.34-1.51.11-.38.45-.33,1.13.12,1.51s1.12.33,1.51-.12c.39-.45.34-1.12-.11-1.51ZM40.62,57.25s-.02.01-.03.03c.01,0,.03-.02.05-.03,0,0-.02,0-.02,0ZM40.69,60.7c-.08.03-.12.13-.09.21.03.08.13.12.21.09s.12-.13.09-.21c-.03-.08-.13-.12-.21-.09ZM40.5,57.46c.07.05.48.11.52.1-.07-.05-.44-.11-.52-.1ZM43.59,57.61c-.12-.03-.34-.09-.6-.15.04.02.08.03.11.05.38.14.71.28,1.01.41l.06-.13c-.19-.06-.38-.11-.58-.17ZM47.78,60.14c-.09-.03-.17.02-.19.11-.03.08.02.17.11.19.08.03.17-.03.19-.11.03-.09-.03-.17-.11-.19ZM50.19,53.51c-.43-.4-1.11-.37-1.51.07-.4.44-.37,1.11.07,1.51.44.4,1.11.37,1.51-.07.4-.43.37-1.11-.07-1.51ZM52.25,54.95c-.56-.16-1.16.16-1.32.73-.16.56.17,1.16.73,1.32.57.16,1.16-.16,1.32-.73.17-.56-.16-1.16-.73-1.32ZM43.59,57.61c-.12-.03-.34-.09-.6-.15.04.02.08.03.11.05.38.14.71.28,1.01.41l.06-.13c-.19-.06-.38-.11-.58-.17ZM42.97,57.44h.02-.02ZM40.5,57.46c.07.05.48.11.52.1-.07-.05-.44-.11-.52-.1ZM40.62,57.25s-.02.01-.03.03c.01,0,.03-.02.05-.03,0,0-.02,0-.02,0ZM39.01,54.31c-.45-.38-1.12-.34-1.51.11-.38.45-.33,1.13.12,1.51s1.12.33,1.51-.12c.39-.45.34-1.12-.11-1.51ZM52.25,54.95c-.56-.16-1.16.16-1.32.73-.16.56.17,1.16.73,1.32.57.16,1.16-.16,1.32-.73.17-.56-.16-1.16-.73-1.32ZM47.78,60.14c-.09-.03-.17.02-.19.11-.03.08.02.17.11.19.08.03.17-.03.19-.11.03-.09-.03-.17-.11-.19ZM40.69,60.7c-.08.03-.12.13-.09.21.03.08.13.12.21.09s.12-.13.09-.21c-.03-.08-.13-.12-.21-.09ZM37.03,56.65c-.23-.54-.86-.79-1.4-.56-.54.23-.8.86-.56,1.4.23.54.86.8,1.4.56.54-.23.79-.86.56-1.4ZM50.19,53.51c-.43-.4-1.11-.37-1.51.07-.4.44-.37,1.11.07,1.51.44.4,1.11.37,1.51-.07.4-.43.37-1.11-.07-1.51ZM45.14,47.29s.05-.05.07-.07c-.08-.03-.09,0-.07.07ZM37.03,56.65c-.23-.54-.86-.79-1.4-.56-.54.23-.8.86-.56,1.4.23.54.86.8,1.4.56.54-.23.79-.86.56-1.4ZM39.01,54.31c-.45-.38-1.12-.34-1.51.11-.38.45-.33,1.13.12,1.51s1.12.33,1.51-.12c.39-.45.34-1.12-.11-1.51ZM40.62,57.25s-.02.01-.03.03c.01,0,.03-.02.05-.03,0,0-.02,0-.02,0ZM40.69,60.7c-.08.03-.12.13-.09.21.03.08.13.12.21.09s.12-.13.09-.21c-.03-.08-.13-.12-.21-.09ZM40.5,57.46c.07.05.48.11.52.1-.07-.05-.44-.11-.52-.1ZM42.61,58.49v.02c.07.02.13.03.2.05v-.03l-.2-.04ZM43.59,57.61c-.12-.03-.34-.09-.6-.15.04.02.08.03.11.05.38.14.71.28,1.01.41l.06-.13c-.19-.06-.38-.11-.58-.17ZM47.78,60.14c-.09-.03-.17.02-.19.11-.03.08.02.17.11.19.08.03.17-.03.19-.11.03-.09-.03-.17-.11-.19ZM50.19,53.51c-.43-.4-1.11-.37-1.51.07-.4.44-.37,1.11.07,1.51.44.4,1.11.37,1.51-.07.4-.43.37-1.11-.07-1.51ZM52.25,54.95c-.56-.16-1.16.16-1.32.73-.16.56.17,1.16.73,1.32.57.16,1.16-.16,1.32-.73.17-.56-.16-1.16-.73-1.32ZM42.61,58.49v.02c.07.02.13.03.2.05v-.03l-.2-.04ZM43.59,57.61c-.12-.03-.34-.09-.6-.15.04.02.08.03.11.05.38.14.71.28,1.01.41l.06-.13c-.19-.06-.38-.11-.58-.17ZM42.97,57.44h.02-.02ZM40.5,57.46c.07.05.48.11.52.1-.07-.05-.44-.11-.52-.1ZM40.62,57.25s-.02.01-.03.03c.01,0,.03-.02.05-.03,0,0-.02,0-.02,0ZM39.01,54.31c-.45-.38-1.12-.34-1.51.11-.38.45-.33,1.13.12,1.51s1.12.33,1.51-.12c.39-.45.34-1.12-.11-1.51ZM52.25,54.95c-.56-.16-1.16.16-1.32.73-.16.56.17,1.16.73,1.32.57.16,1.16-.16,1.32-.73.17-.56-.16-1.16-.73-1.32ZM47.78,60.14c-.09-.03-.17.02-.19.11-.03.08.02.17.11.19.08.03.17-.03.19-.11.03-.09-.03-.17-.11-.19ZM40.69,60.7c-.08.03-.12.13-.09.21.03.08.13.12.21.09s.12-.13.09-.21c-.03-.08-.13-.12-.21-.09ZM37.03,56.65c-.23-.54-.86-.79-1.4-.56-.54.23-.8.86-.56,1.4.23.54.86.8,1.4.56.54-.23.79-.86.56-1.4ZM50.19,53.51c-.43-.4-1.11-.37-1.51.07-.4.44-.37,1.11.07,1.51.44.4,1.11.37,1.51-.07.4-.43.37-1.11-.07-1.51ZM45.14,47.29s.05-.05.07-.07c-.08-.03-.09,0-.07.07ZM37.03,56.65c-.23-.54-.86-.79-1.4-.56-.54.23-.8.86-.56,1.4.23.54.86.8,1.4.56.54-.23.79-.86.56-1.4ZM39.01,54.31c-.45-.38-1.12-.34-1.51.11-.38.45-.33,1.13.12,1.51s1.12.33,1.51-.12c.39-.45.34-1.12-.11-1.51ZM40.62,57.25s-.02.01-.03.03c.01,0,.03-.02.05-.03,0,0-.02,0-.02,0ZM40.69,60.7c-.08.03-.12.13-.09.21.03.08.13.12.21.09s.12-.13.09-.21c-.03-.08-.13-.12-.21-.09ZM40.5,57.46c.07.05.48.11.52.1-.07-.05-.44-.11-.52-.1ZM42.61,58.49v.02c.07.02.13.03.2.05v-.03l-.2-.04ZM43.59,57.61c-.12-.03-.34-.09-.6-.15.04.02.08.03.11.05.38.14.71.28,1.01.41l.06-.13c-.19-.06-.38-.11-.58-.17ZM46.29,61.26l-.05.07c.02.09.05.17.07.26,0-.1-.01-.22-.02-.33ZM47.78,60.14c-.09-.03-.17.02-.19.11-.03.08.02.17.11.19.08.03.17-.03.19-.11.03-.09-.03-.17-.11-.19ZM50.19,53.51c-.43-.4-1.11-.37-1.51.07-.4.44-.37,1.11.07,1.51.44.4,1.11.37,1.51-.07.4-.43.37-1.11-.07-1.51ZM52.25,54.95c-.56-.16-1.16.16-1.32.73-.16.56.17,1.16.73,1.32.57.16,1.16-.16,1.32-.73.17-.56-.16-1.16-.73-1.32ZM42.61,58.49v.02c.07.02.13.03.2.05v-.03l-.2-.04ZM43.59,57.61c-.12-.03-.34-.09-.6-.15.04.02.08.03.11.05.38.14.71.28,1.01.41l.06-.13c-.19-.06-.38-.11-.58-.17ZM42.97,57.44h.02-.02ZM40.5,57.46c.07.05.48.11.52.1-.07-.05-.44-.11-.52-.1ZM40.62,57.25s-.02.01-.03.03c.01,0,.03-.02.05-.03,0,0-.02,0-.02,0ZM39.01,54.31c-.45-.38-1.12-.34-1.51.11-.38.45-.33,1.13.12,1.51s1.12.33,1.51-.12c.39-.45.34-1.12-.11-1.51ZM50.19,53.51c-.43-.4-1.11-.37-1.51.07-.4.44-.37,1.11.07,1.51.44.4,1.11.37,1.51-.07.4-.43.37-1.11-.07-1.51ZM52.25,54.95c-.56-.16-1.16.16-1.32.73-.16.56.17,1.16.73,1.32.57.16,1.16-.16,1.32-.73.17-.56-.16-1.16-.73-1.32ZM47.78,60.14c-.09-.03-.17.02-.19.11-.03.08.02.17.11.19.08.03.17-.03.19-.11.03-.09-.03-.17-.11-.19ZM46.29,61.26l-.05.07c.02.09.05.17.07.26,0-.1-.01-.22-.02-.33ZM45.63,52.49c-.07-.05-.13-.13-.17-.22-.03-.05-.05-.1-.07-.16-.01-.05-.03-.12-.04-.19-.01-.1-.01-.21,0-.32-.1.05-.24.15-.32.54-.02.09-.03.18-.05.29h0c-.01.19-.02.4,0,.65v.03c0,.11.02.22.03.34.03.34.03.66.03.95v.26c-.01.34-.04.65-.1.93.11.08.22.17.32.25l.05.04c.19.16.36.3.5.42.03-1.16,0-2.71-.17-3.79ZM44.77,55.45s-.01.09-.02.13l.17.03s0-.03,0-.05c-.05-.04-.1-.08-.15-.12ZM43.72,54.74l-.02.13c.09.01.18.03.26.03-.09-.05-.15-.11-.24-.16ZM44.81,52.47h0s-.05-.03-.08-.05c-.09-.05-.19-.1-.28-.13h-.01c-.19.03-.38.04-.57.03s-.4-.02-.6-.05c-.05.04-.11.07-.16.1,0,0-.01,0-.02.01-.05.03-.11.06-.16.09v.03c-.03.25-.03.51-.01.79.03.32.07.65.15,1.01h-.05c.1.07.21.13.32.19.13.07.26.14.4.23v-.03c.17.03.33.03.46.02s.24-.03.3-.05c.1-.21.19-.6.25-1.01.03-.18.05-.36.06-.54v-.02c.03-.26.03-.48.01-.63h0ZM44.63,54.78l-.04.03c-.07.03-.22.07-.4.08-.06,0-.12,0-.19,0,.08.05.16.11.24.16.17.12.36.25.54.38.04-.24.07-.51.08-.81,0-.21,0-.43,0-.67-.06.34-.14.64-.23.81ZM40.69,60.7c-.08.03-.12.13-.09.21.03.08.13.12.21.09s.12-.13.09-.21c-.03-.08-.13-.12-.21-.09ZM37.03,56.65c-.23-.54-.86-.79-1.4-.56-.54.23-.8.86-.56,1.4.23.54.86.8,1.4.56.54-.23.79-.86.56-1.4ZM45.14,47.29s.05-.05.07-.07c-.08-.03-.09,0-.07.07ZM37.03,56.65c-.23-.54-.86-.79-1.4-.56-.54.23-.8.86-.56,1.4.23.54.86.8,1.4.56.54-.23.79-.86.56-1.4ZM39.01,54.31c-.45-.38-1.12-.34-1.51.11-.38.45-.33,1.13.12,1.51s1.12.33,1.51-.12c.39-.45.34-1.12-.11-1.51ZM40.62,57.25s-.02.01-.03.03c.01,0,.03-.02.05-.03,0,0-.02,0-.02,0ZM40.69,60.7c-.08.03-.12.13-.09.21.03.08.13.12.21.09s.12-.13.09-.21c-.03-.08-.13-.12-.21-.09ZM40.5,57.46c.07.05.48.11.52.1-.07-.05-.44-.11-.52-.1ZM42.61,58.49v.02c.07.02.13.03.2.05v-.03l-.2-.04ZM44.08,56.58c-.08-.03-.16-.07-.25-.1.05.07.09.15.11.23l.17-.05s-.01-.05-.03-.07ZM43.59,57.61c-.12-.03-.34-.09-.6-.15.04.02.08.03.11.05.38.14.71.28,1.01.41l.06-.13c-.19-.06-.38-.11-.58-.17ZM46.29,61.26l-.05.07c.02.09.05.17.07.26,0-.1-.01-.22-.02-.33ZM47.78,60.14c-.09-.03-.17.02-.19.11-.03.08.02.17.11.19.08.03.17-.03.19-.11.03-.09-.03-.17-.11-.19ZM50.19,53.51c-.43-.4-1.11-.37-1.51.07-.4.44-.37,1.11.07,1.51.44.4,1.11.37,1.51-.07.4-.43.37-1.11-.07-1.51ZM52.25,54.95c-.56-.16-1.16.16-1.32.73-.16.56.17,1.16.73,1.32.57.16,1.16-.16,1.32-.73.17-.56-.16-1.16-.73-1.32ZM42.61,58.49v.02c.07.02.13.03.2.05v-.03l-.2-.04ZM43.59,57.61c-.12-.03-.34-.09-.6-.15.04.02.08.03.11.05.38.14.71.28,1.01.41l.06-.13c-.19-.06-.38-.11-.58-.17ZM42.97,57.44h.02-.02ZM40.5,57.46c.07.05.48.11.52.1-.07-.05-.44-.11-.52-.1ZM40.62,57.25s-.02.01-.03.03c.01,0,.03-.02.05-.03,0,0-.02,0-.02,0ZM44.08,56.58c-.08-.03-.16-.07-.25-.1.05.07.09.15.11.23l.17-.05s-.01-.05-.03-.07ZM42.9,55.62l-.02.58c.33.08.65.17.95.28-.18-.3-.53-.58-.93-.85ZM39.01,54.31c-.45-.38-1.12-.34-1.51.11-.38.45-.33,1.13.12,1.51s1.12.33,1.51-.12c.39-.45.34-1.12-.11-1.51ZM50.19,53.51c-.43-.4-1.11-.37-1.51.07-.4.44-.37,1.11.07,1.51.44.4,1.11.37,1.51-.07.4-.43.37-1.11-.07-1.51ZM52.25,54.95c-.56-.16-1.16.16-1.32.73-.16.56.17,1.16.73,1.32.57.16,1.16-.16,1.32-.73.17-.56-.16-1.16-.73-1.32ZM47.78,60.14c-.09-.03-.17.02-.19.11-.03.08.02.17.11.19.08.03.17-.03.19-.11.03-.09-.03-.17-.11-.19ZM46.29,61.26l-.05.07c.02.09.05.17.07.26,0-.1-.01-.22-.02-.33ZM45.63,52.49c-.07-.05-.13-.13-.17-.22-.03-.05-.05-.1-.07-.16-.02-.05-.03-.12-.04-.19-.01-.1-.01-.21,0-.32-.1.05-.24.15-.32.54-.02.09-.03.18-.05.29h0c-.01.19-.02.4,0,.65v.03c0,.11.02.22.03.34.03.34.03.66.03.95v.26c-.01.34-.04.65-.1.93.11.08.22.17.32.25l.05.04c.19.16.36.3.5.42.03-1.16,0-2.71-.17-3.79ZM44.77,55.45s-.01.09-.02.13l.17.03s0-.03,0-.05c-.05-.04-.1-.08-.15-.12ZM43.72,54.74l-.02.13c.09.01.18.03.26.03-.09-.05-.15-.11-.24-.16ZM44.81,52.47h0s-.05-.03-.08-.05c-.09-.05-.19-.1-.28-.13h-.01c-.19.03-.38.04-.57.03s-.4-.02-.6-.05c-.05.04-.11.07-.16.1,0,0-.01,0-.02.01-.05.03-.11.06-.16.09v.03c-.03.25-.03.51-.01.79.03.32.07.65.15,1.01h-.05c.1.07.21.13.32.19.13.07.26.14.4.23v-.03c.17.03.33.03.46.02s.24-.03.3-.05c.1-.21.19-.6.25-1.01.03-.18.05-.36.06-.54v-.02c.03-.26.03-.48.01-.63h0ZM44.63,54.78l-.04.03c-.07.03-.22.07-.4.08-.06,0-.12,0-.19,0,.08.05.16.11.24.16.17.12.36.25.54.38.04-.24.07-.51.08-.81,0-.21,0-.43,0-.67-.06.34-.14.64-.23.81ZM40.69,60.7c-.08.03-.12.13-.09.21.03.08.13.12.21.09s.12-.13.09-.21c-.03-.08-.13-.12-.21-.09ZM37.03,56.65c-.23-.54-.86-.79-1.4-.56-.54.23-.8.86-.56,1.4.23.54.86.8,1.4.56.54-.23.79-.86.56-1.4ZM45.14,47.29s.05-.05.07-.07c-.08-.03-.09,0-.07.07ZM37.03,56.65c-.23-.54-.86-.79-1.4-.56-.54.23-.8.86-.56,1.4.23.54.86.8,1.4.56.54-.23.79-.86.56-1.4ZM39.01,54.31c-.45-.38-1.12-.34-1.51.11-.38.45-.33,1.13.12,1.51s1.12.33,1.51-.12c.39-.45.34-1.12-.11-1.51ZM40.16,56.02l-.07.05s.08.03.13.05c-.03-.03-.04-.06-.05-.09ZM40.62,57.25s-.02.01-.03.03c.01,0,.03-.02.05-.03,0,0-.02,0-.02,0ZM40.65,53.39c.07.11.6.4.67.4-.07-.11-.55-.38-.67-.4ZM40.06,55.95c.09.06.6.14.65.13-.09-.07-.56-.15-.65-.13ZM40.72,55.84c-.13-.02-.23-.03-.29-.05v.05c.15.03.3.07.44.1-.03-.04-.09-.08-.15-.11ZM40.69,60.7c-.08.03-.12.13-.09.21.03.08.13.12.21.09s.12-.13.09-.21c-.03-.08-.13-.12-.21-.09ZM40.5,57.46c.07.05.48.11.52.1-.07-.05-.44-.11-.52-.1ZM41.47,53.65s-.01-.01-.03-.02c-.05-.03-.11-.05-.16-.07l-.02.1c.09.04.19.09.3.13,0-.04-.02-.09-.09-.14ZM42.61,58.49v.02c.07.02.13.03.2.05v-.03l-.2-.04ZM44.08,56.58c-.08-.03-.16-.07-.25-.1.05.07.09.15.11.23l.17-.05s-.01-.05-.03-.07ZM43.59,57.61c-.12-.03-.34-.09-.6-.15.04.02.08.03.11.05.38.14.71.28,1.01.41l.06-.13c-.19-.06-.38-.11-.58-.17ZM46.29,61.26l-.05.07c.02.09.05.17.07.26,0-.1-.01-.22-.02-.33ZM47.78,60.14c-.09-.03-.17.02-.19.11-.03.08.02.17.11.19.08.03.17-.03.19-.11.03-.09-.03-.17-.11-.19ZM50.19,53.51c-.43-.4-1.11-.37-1.51.07-.4.44-.37,1.11.07,1.51.44.4,1.11.37,1.51-.07.4-.43.37-1.11-.07-1.51ZM52.25,54.95c-.56-.16-1.16.16-1.32.73-.16.56.17,1.16.73,1.32.57.16,1.16-.16,1.32-.73.17-.56-.16-1.16-.73-1.32ZM42.61,58.49v.02c.07.02.13.03.2.05v-.03l-.2-.04ZM39.01,54.31c-.45-.38-1.12-.34-1.51.11-.38.45-.33,1.13.12,1.51s1.12.33,1.51-.12c.39-.45.34-1.12-.11-1.51ZM50.19,53.51c-.43-.4-1.11-.37-1.51.07-.4.44-.37,1.11.07,1.51.44.4,1.11.37,1.51-.07.4-.43.37-1.11-.07-1.51ZM52.25,54.95c-.56-.16-1.16.16-1.32.73-.16.56.17,1.16.73,1.32.57.16,1.16-.16,1.32-.73.17-.56-.16-1.16-.73-1.32ZM47.78,60.14c-.09-.03-.17.02-.19.11-.03.08.02.17.11.19.08.03.17-.03.19-.11.03-.09-.03-.17-.11-.19ZM46.29,61.26l-.05.07c.02.09.05.17.07.26,0-.1-.01-.22-.02-.33ZM45.63,52.49c-.07-.05-.13-.13-.17-.22-.03-.05-.05-.1-.07-.16-.02-.05-.03-.12-.04-.19-.01-.1-.01-.21,0-.32-.1.05-.24.15-.32.54-.02.09-.03.18-.05.29h0c-.01.19-.02.4,0,.65v.03c0,.11.02.22.03.34.03.34.03.66.03.95v.26c-.01.34-.04.65-.1.93.11.08.22.17.32.25l.05.04c.19.16.36.3.5.42.03-1.16,0-2.71-.17-3.79ZM44.77,55.45s-.01.09-.02.13l.17.03s0-.03,0-.05c-.05-.04-.1-.08-.15-.12ZM43.72,54.74l-.02.13c.09.01.18.03.26.03-.09-.05-.15-.11-.24-.16ZM44.81,52.47h0s-.05-.03-.08-.05c-.09-.05-.19-.1-.28-.13h-.01c-.19.03-.38.04-.57.03s-.4-.02-.6-.05c-.05.04-.11.07-.16.1,0,0-.01,0-.02.01-.05.03-.11.06-.16.09v.03c-.03.25-.03.51-.01.79.03.32.07.65.15,1.01h-.05c.1.07.21.13.32.19.13.07.26.14.4.23v-.03c.17.03.33.03.46.02s.24-.03.3-.05c.1-.21.19-.6.25-1.01.03-.18.05-.36.06-.54v-.02c.03-.26.03-.48.01-.63h0ZM44.63,54.78l-.04.03c-.07.03-.22.07-.4.08-.06,0-.12,0-.19,0,.08.05.16.11.24.16.17.12.36.25.54.38.04-.24.07-.51.08-.81,0-.21,0-.43,0-.67-.06.34-.14.64-.23.81ZM43.59,57.61c-.12-.03-.34-.09-.6-.15.04.02.08.03.11.05.38.14.71.28,1.01.41l.06-.13c-.19-.06-.38-.11-.58-.17ZM44.08,56.58c-.08-.03-.16-.07-.25-.1.05.07.09.15.11.23l.17-.05s-.01-.05-.03-.07ZM42.9,55.62l-.02.58c.33.08.65.17.95.28-.18-.3-.53-.58-.93-.85ZM42.97,57.44h.02-.02ZM41.47,53.65s-.01-.01-.03-.02c-.05-.03-.11-.05-.16-.07l-.02.1c.09.04.19.09.3.13,0-.04-.02-.09-.09-.14ZM40.5,57.46c.07.05.48.11.52.1-.07-.05-.44-.11-.52-.1ZM40.69,60.7c-.08.03-.12.13-.09.21.03.08.13.12.21.09s.12-.13.09-.21c-.03-.08-.13-.12-.21-.09ZM40.72,55.84c-.13-.02-.23-.03-.29-.05v.05c.15.03.3.07.44.1-.03-.04-.09-.08-.15-.11ZM40.06,55.95c.09.06.6.14.65.13-.09-.07-.56-.15-.65-.13ZM40.65,53.39c.07.11.6.4.67.4-.07-.11-.55-.38-.67-.4ZM40.62,57.25s-.02.01-.03.03c.01,0,.03-.02.05-.03,0,0-.02,0-.02,0ZM40.16,56.02l-.07.05s.08.03.13.05c-.03-.03-.04-.06-.05-.09ZM37.03,56.65c-.23-.54-.86-.79-1.4-.56-.54.23-.8.86-.56,1.4.23.54.86.8,1.4.56.54-.23.79-.86.56-1.4ZM45.14,47.29s.05-.05.07-.07c-.08-.03-.09,0-.07.07ZM37.03,56.65c-.23-.54-.86-.79-1.4-.56-.54.23-.8.86-.56,1.4.23.54.86.8,1.4.56.54-.23.79-.86.56-1.4ZM39.01,54.31c-.45-.38-1.12-.34-1.51.11-.38.45-.33,1.13.12,1.51s1.12.33,1.51-.12c.39-.45.34-1.12-.11-1.51ZM40.16,56.02l-.07.05s.08.03.13.05c-.03-.03-.04-.06-.05-.09ZM40.62,57.25s-.02.01-.03.03c.01,0,.03-.02.05-.03,0,0-.02,0-.02,0ZM40.65,53.39c.07.11.6.4.67.4-.07-.11-.55-.38-.67-.4ZM40.06,55.95c.09.06.6.14.65.13-.09-.07-.56-.15-.65-.13ZM40.72,55.84c-.13-.02-.23-.03-.29-.05v.05c.15.03.3.07.44.1-.03-.04-.09-.08-.15-.11ZM40.69,60.7c-.08.03-.12.13-.09.21.03.08.13.12.21.09s.12-.13.09-.21c-.03-.08-.13-.12-.21-.09ZM40.5,57.46c.07.05.48.11.52.1-.07-.05-.44-.11-.52-.1ZM41.47,53.65s-.01-.01-.03-.02c-.05-.03-.11-.05-.16-.07l-.02.1c.09.04.19.09.3.13,0-.04-.02-.09-.09-.14ZM42.61,58.49v.02c.07.02.13.03.2.05v-.03l-.2-.04ZM42.86,54.27s.01.06.02.09l.12-.03s-.09-.05-.14-.07ZM44.08,56.58c-.08-.03-.16-.07-.25-.1.05.07.09.15.11.23l.17-.05s-.01-.05-.03-.07ZM43.59,57.61c-.12-.03-.34-.09-.6-.15.04.02.08.03.11.05.38.14.71.28,1.01.41l.06-.13c-.19-.06-.38-.11-.58-.17ZM44.31,49.78c-.16-.03-.32-.04-.46-.05-.13,0-.27,0-.39.01-.04.45-.07.87-.09,1.28-.03.39-.04.76-.05,1.1.19.02.37.04.54.04.17,0,.34,0,.5-.02,0-.22,0-.96-.05-2.36ZM46.29,61.26l-.05.07c.02.09.05.17.07.26,0-.1-.01-.22-.02-.33ZM47.78,60.14c-.09-.03-.17.02-.19.11-.03.08.02.17.11.19.08.03.17-.03.19-.11.03-.09-.03-.17-.11-.19ZM50.19,53.51c-.43-.4-1.11-.37-1.51.07-.4.44-.37,1.11.07,1.51.44.4,1.11.37,1.51-.07.4-.43.37-1.11-.07-1.51ZM52.25,54.95c-.56-.16-1.16.16-1.32.73-.16.56.17,1.16.73,1.32.57.16,1.16-.16,1.32-.73.17-.56-.16-1.16-.73-1.32ZM42.61,58.49v.02c.07.02.13.03.2.05v-.03l-.2-.04ZM39.01,54.31c-.45-.38-1.12-.34-1.51.11-.38.45-.33,1.13.12,1.51s1.12.33,1.51-.12c.39-.45.34-1.12-.11-1.51ZM50.19,53.51c-.43-.4-1.11-.37-1.51.07-.4.44-.37,1.11.07,1.51.44.4,1.11.37,1.51-.07.4-.43.37-1.11-.07-1.51ZM52.25,54.95c-.56-.16-1.16.16-1.32.73-.16.56.17,1.16.73,1.32.57.16,1.16-.16,1.32-.73.17-.56-.16-1.16-.73-1.32ZM47.78,60.14c-.09-.03-.17.02-.19.11-.03.08.02.17.11.19.08.03.17-.03.19-.11.03-.09-.03-.17-.11-.19ZM46.29,61.26l-.05.07c.02.09.05.17.07.26,0-.1-.01-.22-.02-.33ZM45.63,52.49c-.07-.05-.13-.13-.17-.22-.03-.05-.05-.1-.07-.16-.02-.05-.03-.12-.04-.19-.01-.1-.01-.21,0-.32-.1.05-.24.15-.32.54-.02.09-.03.18-.05.29h0c-.01.19-.02.4,0,.65v.03c0,.11.02.22.03.34.03.34.03.66.03.95v.26c-.01.34-.04.65-.1.93.11.08.22.17.32.25l.05.04c.19.16.36.3.5.42.03-1.16,0-2.71-.17-3.79ZM44.77,55.45s-.01.09-.02.13l.17.03s0-.03,0-.05c-.05-.04-.1-.08-.15-.12ZM43.72,54.74l-.02.13c.09.01.18.03.26.03-.09-.05-.15-.11-.24-.16ZM44.81,52.47h0s-.05-.03-.08-.05c-.09-.05-.19-.1-.28-.13h-.01c-.19.03-.38.04-.57.03s-.4-.02-.6-.05c-.05.04-.11.07-.16.1,0,0-.01,0-.02.01-.05.03-.11.06-.16.09v.03c-.03.25-.03.51-.01.79.03.32.07.65.15,1.01h-.05c.1.07.21.13.32.19.13.07.26.14.4.23v-.03c.17.03.33.03.46.02s.24-.03.3-.05c.1-.21.19-.6.25-1.01.03-.18.05-.36.06-.54v-.02c.03-.26.03-.48.01-.63h0ZM44.63,54.78l-.04.03c-.07.03-.22.07-.4.08-.06,0-.12,0-.19,0,.08.05.16.11.24.16.17.12.36.25.54.38.04-.24.07-.51.08-.81,0-.21,0-.43,0-.67-.06.34-.14.64-.23.81ZM44.31,49.78c-.16-.03-.32-.04-.46-.05-.13,0-.27,0-.39.01-.04.45-.07.87-.09,1.28-.03.39-.04.76-.05,1.1.19.02.37.04.54.04.17,0,.34,0,.5-.02,0-.22,0-.96-.05-2.36ZM43.59,57.61c-.12-.03-.34-.09-.6-.15.04.02.08.03.11.05.38.14.71.28,1.01.41l.06-.13c-.19-.06-.38-.11-.58-.17ZM44.08,56.58c-.08-.03-.16-.07-.25-.1.05.07.09.15.11.23l.17-.05s-.01-.05-.03-.07ZM42.9,55.62l-.02.58c.33.08.65.17.95.28-.18-.3-.53-.58-.93-.85ZM42.86,54.27s.01.06.02.09l.12-.03s-.09-.05-.14-.07ZM42.97,57.44h.02-.02ZM41.47,53.65s-.01-.01-.03-.02c-.05-.03-.11-.05-.16-.07l-.02.1c.09.04.19.09.3.13,0-.04-.02-.09-.09-.14ZM40.5,57.46c.07.05.48.11.52.1-.07-.05-.44-.11-.52-.1ZM40.69,60.7c-.08.03-.12.13-.09.21.03.08.13.12.21.09s.12-.13.09-.21c-.03-.08-.13-.12-.21-.09ZM40.72,55.84c-.13-.02-.23-.03-.29-.05v.05c.15.03.3.07.44.1-.03-.04-.09-.08-.15-.11ZM40.06,55.95c.09.06.6.14.65.13-.09-.07-.56-.15-.65-.13ZM40.65,53.39c.07.11.6.4.67.4-.07-.11-.55-.38-.67-.4ZM40.62,57.25s-.02.01-.03.03c.01,0,.03-.02.05-.03,0,0-.02,0-.02,0ZM40.16,56.02l-.07.05s.08.03.13.05c-.03-.03-.04-.06-.05-.09ZM37.03,56.65c-.23-.54-.86-.79-1.4-.56-.54.23-.8.86-.56,1.4.23.54.86.8,1.4.56.54-.23.79-.86.56-1.4ZM45.14,47.29s.05-.05.07-.07c-.08-.03-.09,0-.07.07ZM37.03,56.65c-.23-.54-.86-.79-1.4-.56-.54.23-.8.86-.56,1.4.23.54.86.8,1.4.56.54-.23.79-.86.56-1.4ZM39.01,54.31c-.45-.38-1.12-.34-1.51.11-.38.45-.33,1.13.12,1.51s1.12.33,1.51-.12c.39-.45.34-1.12-.11-1.51ZM40.16,56.02l-.07.05s.08.03.13.05c-.03-.03-.04-.06-.05-.09ZM40.62,57.25s-.02.01-.03.03c.01,0,.03-.02.05-.03,0,0-.02,0-.02,0ZM40.65,53.39c.07.11.6.4.67.4-.07-.11-.55-.38-.67-.4ZM40.06,55.95c.09.06.6.14.65.13-.09-.07-.56-.15-.65-.13ZM40.72,55.84c-.13-.02-.23-.03-.29-.05v.05c.15.03.3.07.44.1-.03-.04-.09-.08-.15-.11ZM40.69,60.7c-.08.03-.12.13-.09.21.03.08.13.12.21.09s.12-.13.09-.21c-.03-.08-.13-.12-.21-.09ZM40.5,57.46c.07.05.48.11.52.1-.07-.05-.44-.11-.52-.1ZM41.47,53.65s-.01-.01-.03-.02c-.05-.03-.11-.05-.16-.07l-.02.1c.09.04.19.09.3.13,0-.04-.02-.09-.09-.14ZM42.61,58.49v.02c.07.02.13.03.2.05v-.03l-.2-.04ZM42.86,54.27s.01.06.02.09l.12-.03s-.09-.05-.14-.07ZM44.08,56.58c-.08-.03-.16-.07-.25-.1.05.07.09.15.11.23l.17-.05s-.01-.05-.03-.07ZM43.59,57.61c-.12-.03-.34-.09-.6-.15.04.02.08.03.11.05.38.14.71.28,1.01.41l.06-.13c-.19-.06-.38-.11-.58-.17ZM44.31,49.78c-.16-.03-.32-.04-.46-.05-.13,0-.27,0-.39.01-.04.45-.07.87-.09,1.28-.03.39-.04.76-.05,1.1.19.02.37.04.54.04.17,0,.34,0,.5-.02,0-.22,0-.96-.05-2.36ZM46.29,61.26l-.05.07c.02.09.05.17.07.26,0-.1-.01-.22-.02-.33ZM47.78,60.14c-.09-.03-.17.02-.19.11-.03.08.02.17.11.19.08.03.17-.03.19-.11.03-.09-.03-.17-.11-.19ZM50.19,53.51c-.43-.4-1.11-.37-1.51.07-.4.44-.37,1.11.07,1.51.44.4,1.11.37,1.51-.07.4-.43.37-1.11-.07-1.51ZM52.25,54.95c-.56-.16-1.16.16-1.32.73-.16.56.17,1.16.73,1.32.57.16,1.16-.16,1.32-.73.17-.56-.16-1.16-.73-1.32ZM42.61,58.49v.02c.07.02.13.03.2.05v-.03l-.2-.04ZM39.01,54.31c-.45-.38-1.12-.34-1.51.11-.38.45-.33,1.13.12,1.51s1.12.33,1.51-.12c.39-.45.34-1.12-.11-1.51ZM50.19,53.51c-.43-.4-1.11-.37-1.51.07-.4.44-.37,1.11.07,1.51.44.4,1.11.37,1.51-.07.4-.43.37-1.11-.07-1.51ZM52.25,54.95c-.56-.16-1.16.16-1.32.73-.16.56.17,1.16.73,1.32.57.16,1.16-.16,1.32-.73.17-.56-.16-1.16-.73-1.32ZM47.78,60.14c-.09-.03-.17.02-.19.11-.03.08.02.17.11.19.08.03.17-.03.19-.11.03-.09-.03-.17-.11-.19ZM46.29,61.26l-.05.07c.02.09.05.17.07.26,0-.1-.01-.22-.02-.33ZM45.63,52.49c-.07-.05-.13-.13-.17-.22-.03-.05-.05-.1-.07-.16-.02-.05-.03-.12-.04-.19-.01-.1-.01-.21,0-.32-.1.05-.24.15-.32.54-.02.09-.03.18-.05.29h0c-.01.19-.02.4,0,.65v.03c0,.11.02.22.03.34.03.34.03.66.03.95v.26c-.01.34-.04.65-.1.93.11.08.22.17.32.25l.05.04c.19.16.36.3.5.42.03-1.16,0-2.71-.17-3.79ZM44.77,55.45s-.01.09-.02.13l.17.03s0-.03,0-.05c-.05-.04-.1-.08-.15-.12ZM43.72,54.74l-.02.13c.09.01.18.03.26.03-.09-.05-.15-.11-.24-.16ZM44.81,52.47h0s-.05-.03-.08-.05c-.09-.05-.19-.1-.28-.13h-.01c-.19.03-.38.04-.57.03s-.4-.02-.6-.05c-.05.04-.11.07-.16.1,0,0-.01,0-.02.01-.05.03-.11.06-.16.09v.03c-.03.25-.03.51-.01.79.03.32.07.65.15,1.01h-.05c.1.07.21.13.32.19.13.07.26.14.4.23v-.03c.17.03.33.03.46.02s.24-.03.3-.05c.1-.21.19-.6.25-1.01.03-.18.05-.36.06-.54v-.02c.03-.26.03-.48.01-.63h0ZM44.63,54.78l-.04.03c-.07.03-.22.07-.4.08-.06,0-.12,0-.19,0,.08.05.16.11.24.16.17.12.36.25.54.38.04-.24.07-.51.08-.81,0-.21,0-.43,0-.67-.06.34-.14.64-.23.81ZM44.31,49.78c-.16-.03-.32-.04-.46-.05-.13,0-.27,0-.39.01-.04.45-.07.87-.09,1.28-.03.39-.04.76-.05,1.1.19.02.37.04.54.04.17,0,.34,0,.5-.02,0-.22,0-.96-.05-2.36ZM43.59,57.61c-.12-.03-.34-.09-.6-.15.04.02.08.03.11.05.38.14.71.28,1.01.41l.06-.13c-.19-.06-.38-.11-.58-.17ZM44.08,56.58c-.08-.03-.16-.07-.25-.1.05.07.09.15.11.23l.17-.05s-.01-.05-.03-.07ZM42.9,55.62l-.02.58c.33.08.65.17.95.28-.18-.3-.53-.58-.93-.85ZM42.86,54.27s.01.06.02.09l.12-.03s-.09-.05-.14-.07ZM42.97,57.44h.02-.02ZM41.47,53.65s-.01-.01-.03-.02c-.05-.03-.11-.05-.16-.07l-.02.1c.09.04.19.09.3.13,0-.04-.02-.09-.09-.14ZM40.5,57.46c.07.05.48.11.52.1-.07-.05-.44-.11-.52-.1ZM40.69,60.7c-.08.03-.12.13-.09.21.03.08.13.12.21.09s.12-.13.09-.21c-.03-.08-.13-.12-.21-.09ZM40.72,55.84c-.13-.02-.23-.03-.29-.05v.05c.15.03.3.07.44.1-.03-.04-.09-.08-.15-.11ZM40.06,55.95c.09.06.6.14.65.13-.09-.07-.56-.15-.65-.13ZM40.65,53.39c.07.11.6.4.67.4-.07-.11-.55-.38-.67-.4ZM40.62,57.25s-.02.01-.03.03c.01,0,.03-.02.05-.03,0,0-.02,0-.02,0ZM40.16,56.02l-.07.05s.08.03.13.05c-.03-.03-.04-.06-.05-.09ZM37.03,56.65c-.23-.54-.86-.79-1.4-.56-.54.23-.8.86-.56,1.4.23.54.86.8,1.4.56.54-.23.79-.86.56-1.4ZM45.14,47.29s.05-.05.07-.07c-.08-.03-.09,0-.07.07ZM37.03,56.65c-.23-.54-.86-.79-1.4-.56-.54.23-.8.86-.56,1.4.23.54.86.8,1.4.56.54-.23.79-.86.56-1.4ZM39.01,54.31c-.45-.38-1.12-.34-1.51.11-.38.45-.33,1.13.12,1.51s1.12.33,1.51-.12c.39-.45.34-1.12-.11-1.51ZM40.16,56.02l-.07.05s.08.03.13.05c-.03-.03-.04-.06-.05-.09ZM40.62,57.25s-.02.01-.03.03c.01,0,.03-.02.05-.03,0,0-.02,0-.02,0ZM40.65,53.39c.07.11.6.4.67.4-.07-.11-.55-.38-.67-.4ZM40.06,55.95c.09.06.6.14.65.13-.09-.07-.56-.15-.65-.13ZM40.72,55.84c-.13-.02-.23-.03-.29-.05v.05c.15.03.3.07.44.1-.03-.04-.09-.08-.15-.11ZM40.69,60.7c-.08.03-.12.13-.09.21.03.08.13.12.21.09s.12-.13.09-.21c-.03-.08-.13-.12-.21-.09ZM40.5,57.46c.07.05.48.11.52.1-.07-.05-.44-.11-.52-.1ZM41.47,53.65s-.01-.01-.03-.02c-.05-.03-.11-.05-.16-.07l-.02.1c.09.04.19.09.3.13,0-.04-.02-.09-.09-.14ZM42.61,58.49v.02c.07.02.13.03.2.05v-.03l-.2-.04ZM42.86,54.27s.01.06.02.09l.12-.03s-.09-.05-.14-.07ZM44.08,56.58c-.08-.03-.16-.07-.25-.1.05.07.09.15.11.23l.17-.05s-.01-.05-.03-.07ZM43.59,57.61c-.12-.03-.34-.09-.6-.15.04.02.08.03.11.05.38.14.71.28,1.01.41l.06-.13c-.19-.06-.38-.11-.58-.17ZM44.31,49.78c-.16-.03-.32-.04-.46-.05-.13,0-.27,0-.39.01-.04.45-.07.87-.09,1.28-.03.39-.04.76-.05,1.1.19.02.37.04.54.04.17,0,.34,0,.5-.02,0-.22,0-.96-.05-2.36ZM46.29,61.26l-.05.07c.02.09.05.17.07.26,0-.1-.01-.22-.02-.33ZM47.78,60.14c-.09-.03-.17.02-.19.11-.03.08.02.17.11.19.08.03.17-.03.19-.11.03-.09-.03-.17-.11-.19ZM50.19,53.51c-.43-.4-1.11-.37-1.51.07-.4.44-.37,1.11.07,1.51.44.4,1.11.37,1.51-.07.4-.43.37-1.11-.07-1.51ZM52.25,54.95c-.56-.16-1.16.16-1.32.73-.16.56.17,1.16.73,1.32.57.16,1.16-.16,1.32-.73.17-.56-.16-1.16-.73-1.32ZM42.61,58.49v.02c.07.02.13.03.2.05v-.03l-.2-.04ZM39.01,54.31c-.45-.38-1.12-.34-1.51.11-.38.45-.33,1.13.12,1.51s1.12.33,1.51-.12c.39-.45.34-1.12-.11-1.51ZM50.19,53.51c-.43-.4-1.11-.37-1.51.07-.4.44-.37,1.11.07,1.51.44.4,1.11.37,1.51-.07.4-.43.37-1.11-.07-1.51ZM52.25,54.95c-.56-.16-1.16.16-1.32.73-.16.56.17,1.16.73,1.32.57.16,1.16-.16,1.32-.73.17-.56-.16-1.16-.73-1.32ZM47.78,60.14c-.09-.03-.17.02-.19.11-.03.08.02.17.11.19.08.03.17-.03.19-.11.03-.09-.03-.17-.11-.19ZM46.29,61.26l-.05.07c.02.09.05.17.07.26,0-.1-.01-.22-.02-.33ZM45.63,52.49c-.07-.05-.13-.13-.17-.22-.03-.05-.05-.1-.07-.16-.02-.05-.03-.12-.04-.19-.01-.1-.01-.21,0-.32-.1.05-.24.15-.32.54-.02.09-.03.18-.05.29h0c-.01.19-.02.4,0,.65v.03c0,.11.02.22.03.34.03.34.03.66.03.95v.26c-.01.34-.04.65-.1.93.11.08.22.17.32.25l.05.04c.19.16.36.3.5.42.03-1.16,0-2.71-.17-3.79ZM44.77,55.45s-.01.09-.02.13l.17.03s0-.03,0-.05c-.05-.04-.1-.08-.15-.12ZM43.72,54.74l-.02.13c.09.01.18.03.26.03-.09-.05-.15-.11-.24-.16ZM44.81,52.47h0s-.05-.03-.08-.05c-.09-.05-.19-.1-.28-.13h-.01c-.19.03-.38.04-.57.03s-.4-.02-.6-.05c-.05.04-.11.07-.16.1,0,0-.01,0-.02.01-.05.03-.11.06-.16.09v.03c-.03.25-.03.51-.01.79.03.32.07.65.15,1.01h-.05c.1.07.21.13.32.19.13.07.26.14.4.23v-.03c.17.03.33.03.46.02s.24-.03.3-.05c.1-.21.19-.6.25-1.01.03-.18.05-.36.06-.54v-.02c.03-.26.03-.48.01-.63h0ZM44.63,54.78l-.04.03c-.07.03-.22.07-.4.08-.06,0-.12,0-.19,0,.08.05.16.11.24.16.17.12.36.25.54.38.04-.24.07-.51.08-.81,0-.21,0-.43,0-.67-.06.34-.14.64-.23.81ZM44.31,49.78c-.16-.03-.32-.04-.46-.05-.13,0-.27,0-.39.01-.04.45-.07.87-.09,1.28-.03.39-.04.76-.05,1.1.19.02.37.04.54.04.17,0,.34,0,.5-.02,0-.22,0-.96-.05-2.36ZM43.59,57.61c-.12-.03-.34-.09-.6-.15.04.02.08.03.11.05.38.14.71.28,1.01.41l.06-.13c-.19-.06-.38-.11-.58-.17ZM44.08,56.58c-.08-.03-.16-.07-.25-.1.05.07.09.15.11.23l.17-.05s-.01-.05-.03-.07ZM42.9,55.62l-.02.58c.33.08.65.17.95.28-.18-.3-.53-.58-.93-.85ZM42.86,54.27s.01.06.02.09l.12-.03s-.09-.05-.14-.07ZM42.97,57.44h.02-.02ZM41.47,53.65s-.01-.01-.03-.02c-.05-.03-.11-.05-.16-.07l-.02.1c.09.04.19.09.3.13,0-.04-.02-.09-.09-.14ZM40.5,57.46c.07.05.48.11.52.1-.07-.05-.44-.11-.52-.1ZM40.69,60.7c-.08.03-.12.13-.09.21.03.08.13.12.21.09s.12-.13.09-.21c-.03-.08-.13-.12-.21-.09ZM40.72,55.84c-.13-.02-.23-.03-.29-.05v.05c.15.03.3.07.44.1-.03-.04-.09-.08-.15-.11ZM40.06,55.95c.09.06.6.14.65.13-.09-.07-.56-.15-.65-.13ZM40.65,53.39c.07.11.6.4.67.4-.07-.11-.55-.38-.67-.4ZM40.62,57.25s-.02.01-.03.03c.01,0,.03-.02.05-.03,0,0-.02,0-.02,0ZM40.16,56.02l-.07.05s.08.03.13.05c-.03-.03-.04-.06-.05-.09ZM37.03,56.65c-.23-.54-.86-.79-1.4-.56-.54.23-.8.86-.56,1.4.23.54.86.8,1.4.56.54-.23.79-.86.56-1.4ZM45.14,47.29s.05-.05.07-.07c-.08-.03-.09,0-.07.07ZM37.03,56.65c-.23-.54-.86-.79-1.4-.56-.54.23-.8.86-.56,1.4.23.54.86.8,1.4.56.54-.23.79-.86.56-1.4ZM39.01,54.31c-.45-.38-1.12-.34-1.51.11-.38.45-.33,1.13.12,1.51s1.12.33,1.51-.12c.39-.45.34-1.12-.11-1.51ZM40.16,56.02l-.07.05s.08.03.13.05c-.03-.03-.04-.06-.05-.09ZM40.62,57.25s-.02.01-.03.03c.01,0,.03-.02.05-.03,0,0-.02,0-.02,0ZM40.65,53.39c.07.11.6.4.67.4-.07-.11-.55-.38-.67-.4ZM40.06,55.95c.09.06.6.14.65.13-.09-.07-.56-.15-.65-.13ZM40.72,55.84c-.13-.02-.23-.03-.29-.05v.05c.15.03.3.07.44.1-.03-.04-.09-.08-.15-.11ZM40.69,60.7c-.08.03-.12.13-.09.21.03.08.13.12.21.09s.12-.13.09-.21c-.03-.08-.13-.12-.21-.09ZM40.5,57.46c.07.05.48.11.52.1-.07-.05-.44-.11-.52-.1ZM41.47,53.65s-.01-.01-.03-.02c-.05-.03-.11-.05-.16-.07l-.02.1c.09.04.19.09.3.13,0-.04-.02-.09-.09-.14ZM42.61,58.49v.02c.07.02.13.03.2.05v-.03l-.2-.04ZM42.86,54.27s.01.06.02.09l.12-.03s-.09-.05-.14-.07ZM44.08,56.58c-.08-.03-.16-.07-.25-.1.05.07.09.15.11.23l.17-.05s-.01-.05-.03-.07ZM43.59,57.61c-.12-.03-.34-.09-.6-.15.04.02.08.03.11.05.38.14.71.28,1.01.41l.06-.13c-.19-.06-.38-.11-.58-.17ZM44.31,49.78c-.16-.03-.32-.04-.46-.05-.13,0-.27,0-.39.01-.04.45-.07.87-.09,1.28-.03.39-.04.76-.05,1.1.19.02.37.04.54.04.17,0,.34,0,.5-.02,0-.22,0-.96-.05-2.36ZM45.8,56.28v.17h.17c-.05-.06-.11-.11-.17-.17ZM46.29,61.26l-.05.07c.02.09.05.17.07.26,0-.1-.01-.22-.02-.33ZM47.78,60.14c-.09-.03-.17.02-.19.11-.03.08.02.17.11.19.08.03.17-.03.19-.11.03-.09-.03-.17-.11-.19ZM50.19,53.51c-.43-.4-1.11-.37-1.51.07-.4.44-.37,1.11.07,1.51.44.4,1.11.37,1.51-.07.4-.43.37-1.11-.07-1.51ZM52.25,54.95c-.56-.16-1.16.16-1.32.73-.16.56.17,1.16.73,1.32.57.16,1.16-.16,1.32-.73.17-.56-.16-1.16-.73-1.32ZM42.61,58.49v.02c.07.02.13.03.2.05v-.03l-.2-.04ZM39.01,54.31c-.45-.38-1.12-.34-1.51.11-.38.45-.33,1.13.12,1.51s1.12.33,1.51-.12c.39-.45.34-1.12-.11-1.51ZM50.19,53.51c-.43-.4-1.11-.37-1.51.07-.4.44-.37,1.11.07,1.51.44.4,1.11.37,1.51-.07.4-.43.37-1.11-.07-1.51ZM52.25,54.95c-.56-.16-1.16.16-1.32.73-.16.56.17,1.16.73,1.32.57.16,1.16-.16,1.32-.73.17-.56-.16-1.16-.73-1.32ZM47.78,60.14c-.09-.03-.17.02-.19.11-.03.08.02.17.11.19.08.03.17-.03.19-.11.03-.09-.03-.17-.11-.19ZM46.29,61.26l-.05.07c.02.09.05.17.07.26,0-.1-.01-.22-.02-.33ZM45.8,56.28v.17h.17c-.05-.06-.11-.11-.17-.17ZM45.63,52.49c-.07-.05-.13-.13-.17-.22-.03-.05-.05-.1-.07-.16-.02-.05-.03-.12-.04-.19-.01-.1-.01-.21,0-.32-.1.05-.24.15-.32.54-.02.09-.03.18-.05.29h0c-.01.19-.02.4,0,.65v.03c0,.11.02.22.03.34.03.34.03.66.03.95v.26c-.01.34-.04.65-.1.93.11.08.22.17.32.25l.05.04c.19.16.36.3.5.42.03-1.16,0-2.71-.17-3.79ZM44.77,55.45s-.01.09-.02.13l.17.03s0-.03,0-.05c-.05-.04-.1-.08-.15-.12ZM43.72,54.74l-.02.13c.09.01.18.03.26.03-.09-.05-.15-.11-.24-.16ZM44.81,52.47h0s-.05-.03-.08-.05c-.09-.05-.19-.1-.28-.13h-.01c-.19.03-.38.04-.57.03s-.4-.02-.6-.05c-.05.04-.11.07-.16.1,0,0-.01,0-.02.01-.05.03-.11.06-.16.09v.03c-.03.25-.03.51-.01.79.03.32.07.65.15,1.01h-.05c.1.07.21.13.32.19.13.07.26.14.4.23v-.03c.17.03.33.03.46.02s.24-.03.3-.05c.1-.21.19-.6.25-1.01.03-.18.05-.36.06-.54v-.02c.03-.26.03-.48.01-.63h0ZM44.63,54.78l-.04.03c-.07.03-.22.07-.4.08-.06,0-.12,0-.19,0,.08.05.16.11.24.16.17.12.36.25.54.38.04-.24.07-.51.08-.81,0-.21,0-.43,0-.67-.06.34-.14.64-.23.81ZM44.31,49.78c-.16-.03-.32-.04-.46-.05-.13,0-.27,0-.39.01-.04.45-.07.87-.09,1.28-.03.39-.04.76-.05,1.1.19.02.37.04.54.04.17,0,.34,0,.5-.02,0-.22,0-.96-.05-2.36ZM43.59,57.61c-.12-.03-.34-.09-.6-.15.04.02.08.03.11.05.38.14.71.28,1.01.41l.06-.13c-.19-.06-.38-.11-.58-.17ZM44.08,56.58c-.08-.03-.16-.07-.25-.1.05.07.09.15.11.23l.17-.05s-.01-.05-.03-.07ZM42.9,55.62l-.02.58c.33.08.65.17.95.28-.18-.3-.53-.58-.93-.85ZM42.86,54.27s.01.06.02.09l.12-.03s-.09-.05-.14-.07ZM42.97,57.44h.02-.02ZM41.47,53.65s-.01-.01-.03-.02c-.05-.03-.11-.05-.16-.07l-.02.1c.09.04.19.09.3.13,0-.04-.02-.09-.09-.14ZM40.5,57.46c.07.05.48.11.52.1-.07-.05-.44-.11-.52-.1ZM40.69,60.7c-.08.03-.12.13-.09.21.03.08.13.12.21.09s.12-.13.09-.21c-.03-.08-.13-.12-.21-.09ZM40.72,55.84c-.13-.02-.23-.03-.29-.05v.05c.15.03.3.07.44.1-.03-.04-.09-.08-.15-.11ZM40.06,55.95c.09.06.6.14.65.13-.09-.07-.56-.15-.65-.13ZM40.65,53.39c.07.11.6.4.67.4-.07-.11-.55-.38-.67-.4ZM40.62,57.25s-.02.01-.03.03c.01,0,.03-.02.05-.03,0,0-.02,0-.02,0ZM40.16,56.02l-.07.05s.08.03.13.05c-.03-.03-.04-.06-.05-.09ZM37.03,56.65c-.23-.54-.86-.79-1.4-.56-.54.23-.8.86-.56,1.4.23.54.86.8,1.4.56.54-.23.79-.86.56-1.4ZM45.14,47.29s.05-.05.07-.07c-.08-.03-.09,0-.07.07ZM37.03,56.65c-.23-.54-.86-.79-1.4-.56-.54.23-.8.86-.56,1.4.23.54.86.8,1.4.56.54-.23.79-.86.56-1.4ZM39.01,54.31c-.45-.38-1.12-.34-1.51.11-.38.45-.33,1.13.12,1.51s1.12.33,1.51-.12c.39-.45.34-1.12-.11-1.51ZM40.16,56.02l-.07.05s.08.03.13.05c-.03-.03-.04-.06-.05-.09ZM40.62,57.25s-.02.01-.03.03c.01,0,.03-.02.05-.03,0,0-.02,0-.02,0ZM40.65,53.39c.07.11.6.4.67.4-.07-.11-.55-.38-.67-.4ZM40.06,55.95c.09.06.6.14.65.13-.09-.07-.56-.15-.65-.13ZM40.72,55.84c-.13-.02-.23-.03-.29-.05v.05c.15.03.3.07.44.1-.03-.04-.09-.08-.15-.11ZM40.69,60.7c-.08.03-.12.13-.09.21.03.08.13.12.21.09s.12-.13.09-.21c-.03-.08-.13-.12-.21-.09ZM40.5,57.46c.07.05.48.11.52.1-.07-.05-.44-.11-.52-.1ZM41.47,53.65s-.01-.01-.03-.02c-.05-.03-.11-.05-.16-.07l-.02.1c.09.04.19.09.3.13,0-.04-.02-.09-.09-.14ZM42.61,58.49v.02c.07.02.13.03.2.05v-.03l-.2-.04ZM42.86,54.27s.01.06.02.09l.12-.03s-.09-.05-.14-.07ZM43.72,54.74l-.02.13c.09.01.18.03.26.03-.09-.05-.15-.11-.24-.16ZM44.08,56.58c-.08-.03-.16-.07-.25-.1.05.07.09.15.11.23l.17-.05s-.01-.05-.03-.07ZM43.59,57.61c-.12-.03-.34-.09-.6-.15.04.02.08.03.11.05.38.14.71.28,1.01.41l.06-.13c-.19-.06-.38-.11-.58-.17ZM44.31,49.78c-.16-.03-.32-.04-.46-.05-.13,0-.27,0-.39.01-.04.45-.07.87-.09,1.28-.03.39-.04.76-.05,1.1.19.02.37.04.54.04.17,0,.34,0,.5-.02,0-.22,0-.96-.05-2.36ZM44.81,52.47h0s-.05-.03-.08-.05c-.09-.05-.19-.1-.28-.13h-.01c-.19.03-.38.04-.57.03s-.4-.02-.6-.05c-.05.04-.11.07-.16.1,0,0-.01,0-.02.01-.05.03-.11.06-.16.09v.03c-.03.25-.03.51-.01.79.03.32.07.65.15,1.01h-.05c.1.07.21.13.32.19.13.07.26.14.4.23v-.03c.17.03.33.03.46.02s.24-.03.3-.05c.1-.21.19-.6.25-1.01.03-.18.05-.36.06-.54v-.02c.03-.26.03-.48.01-.63h0ZM44.63,54.78l-.04.03c-.07.03-.22.07-.4.08-.06,0-.12,0-.19,0,.08.05.16.11.24.16.17.12.36.25.54.38.04-.24.07-.51.08-.81,0-.21,0-.43,0-.67-.06.34-.14.64-.23.81ZM44.77,55.45s-.01.09-.02.13l.17.03s0-.03,0-.05c-.05-.04-.1-.08-.15-.12ZM45.8,56.28v.17h.17c-.05-.06-.11-.11-.17-.17ZM46.29,61.26l-.05.07c.02.09.05.17.07.26,0-.1-.01-.22-.02-.33ZM47.78,60.14c-.09-.03-.17.02-.19.11-.03.08.02.17.11.19.08.03.17-.03.19-.11.03-.09-.03-.17-.11-.19ZM50.19,53.51c-.43-.4-1.11-.37-1.51.07-.4.44-.37,1.11.07,1.51.44.4,1.11.37,1.51-.07.4-.43.37-1.11-.07-1.51ZM52.25,54.95c-.56-.16-1.16.16-1.32.73-.16.56.17,1.16.73,1.32.57.16,1.16-.16,1.32-.73.17-.56-.16-1.16-.73-1.32ZM42.61,58.49v.02c.07.02.13.03.2.05v-.03l-.2-.04ZM39.01,54.31c-.45-.38-1.12-.34-1.51.11-.38.45-.33,1.13.12,1.51s1.12.33,1.51-.12c.39-.45.34-1.12-.11-1.51ZM50.19,53.51c-.43-.4-1.11-.37-1.51.07-.4.44-.37,1.11.07,1.51.44.4,1.11.37,1.51-.07.4-.43.37-1.11-.07-1.51ZM52.25,54.95c-.56-.16-1.16.16-1.32.73-.16.56.17,1.16.73,1.32.57.16,1.16-.16,1.32-.73.17-.56-.16-1.16-.73-1.32ZM47.78,60.14c-.09-.03-.17.02-.19.11-.03.08.02.17.11.19.08.03.17-.03.19-.11.03-.09-.03-.17-.11-.19ZM46.24,61.34c.02.09.05.17.07.26,0-.1-.01-.22-.02-.33l-.05.07ZM45.8,56.44h.17c-.05-.06-.11-.11-.17-.17v.17ZM45.63,52.49c-.07-.05-.13-.13-.17-.22-.03-.05-.05-.1-.07-.16-.02-.05-.03-.12-.04-.19-.01-.1-.01-.21,0-.32-.1.05-.24.15-.32.54-.02.09-.03.18-.05.29h0c-.01.19-.02.4,0,.65v.03c0,.11.02.22.03.34.03.34.03.66.03.95v.26c-.01.34-.04.65-.1.93.11.08.22.17.32.25l.05.04c.19.16.36.3.5.42.03-1.16,0-2.71-.17-3.79ZM44.75,55.58l.17.03s0-.03,0-.05c-.05-.04-.1-.08-.15-.12,0,.05-.01.09-.02.13ZM44.85,53.97c-.06.34-.14.64-.23.81l-.04.03c-.07.03-.22.07-.4.08-.06,0-.12,0-.19,0,.08.05.16.11.24.16.17.12.36.25.54.38.04-.24.07-.51.08-.81,0-.21,0-.43,0-.67ZM43.32,54.51c.13.07.26.14.4.23v-.03c.17.03.33.03.46.02s.24-.03.3-.05c.1-.21.19-.6.25-1.01.03-.18.05-.36.06-.54v-.02c.03-.26.03-.48.01-.63h0s-.05-.03-.08-.05c-.09-.05-.19-.1-.28-.13h-.01c-.19.03-.38.04-.57.03s-.4-.02-.6-.05c-.05.04-.11.07-.16.1,0,0-.01,0-.02.01-.05.03-.11.06-.16.09v.03c-.03.25-.03.51-.01.79.03.32.07.65.15,1.01h-.05c.1.07.21.13.32.19h0ZM44.36,52.14c0-.22,0-.96-.05-2.36-.16-.03-.32-.04-.46-.05-.13,0-.27,0-.39.01-.04.45-.07.87-.09,1.28-.03.39-.04.76-.05,1.1.19.02.37.04.54.04.17,0,.34,0,.5-.02ZM42.99,57.45s.08.03.11.05c.38.14.71.28,1.01.41l.06-.13c-.19-.06-.38-.11-.58-.17-.12-.03-.34-.09-.6-.15ZM44.11,56.65s-.01-.05-.03-.07c-.08-.03-.16-.07-.25-.1.05.07.09.15.11.23,0,0,.17-.05.17-.05ZM43.96,54.9c-.09-.05-.15-.11-.24-.16l-.02.13c.09.01.18.03.26.03ZM42.9,55.62l-.02.58c.33.08.65.17.95.28-.18-.3-.53-.58-.93-.85ZM42.88,54.36l.12-.03s-.09-.05-.14-.07c0,.03.01.06.02.09ZM42.97,57.45h.02-.02ZM41.44,53.63c-.05-.03-.11-.05-.16-.07l-.02.1c.09.04.19.09.3.13,0-.04-.02-.09-.09-.14,0,0-.01-.01-.03-.02ZM41.02,57.57c-.07-.05-.44-.11-.52-.1.07.05.48.11.52.1ZM40.6,60.91c.03.08.13.12.21.09s.12-.13.09-.21c-.03-.08-.13-.12-.21-.09-.08.03-.12.13-.09.21ZM40.72,55.84c-.13-.02-.23-.03-.29-.05v.05c.15.03.3.07.44.1-.03-.04-.09-.08-.15-.11ZM40.71,56.07c-.09-.07-.56-.15-.65-.13.09.06.6.14.65.13ZM40.65,53.39c.07.11.6.4.67.4-.07-.11-.55-.38-.67-.4ZM40.64,57.25h-.02s-.02.01-.03.03c.01,0,.03-.02.05-.03ZM40.09,56.07s.08.03.13.05c-.03-.03-.04-.06-.05-.09l-.07.05ZM35.63,56.09c-.54.23-.8.86-.56,1.4.23.54.86.8,1.4.56.54-.23.79-.86.56-1.4s-.86-.79-1.4-.56ZM45.14,47.29s.05-.05.07-.07c-.08-.03-.09,0-.07.07ZM47.58,10.08v.33c-1.18-.22-2.39-.33-3.63-.33s-2.45.11-3.62.33v-.33c-9.61,1.72-16.92,10.13-16.92,20.22v29.55c0,10.09,7.31,18.51,16.92,20.23v-.33c1.18.21,2.39.33,3.62.33s2.45-.12,3.63-.33v.33c9.61-1.72,16.92-10.13,16.92-20.23v-29.55c0-10.09-7.31-18.5-16.92-20.22ZM53.69,69.8c-2.16,1.82-4.63,2.97-7.43,3.38-7.98,1.18-14.25-4.09-15.91-10.3,2.66,5.29,6.89,8.62,13.02,8.88,6.72.28,11.55-2.96,14.72-8.66-.02,1.34-2.33,4.95-4.41,6.7ZM29.09,39.09c-.17-1.69.32-3.25,1.05-4.74.94-1.9,2.33-3.44,3.84-4.87,1.46-1.38,3.11-2.54,4.6-3.89,1.61-1.45,2.94-3.12,3.88-5.1.07-.15.13-.32.2-.49.11-.17.19-.35.16-.57-.07.15-.14.3-.22.44-1.1,1.86-2.65,3.31-4.27,4.68-.99.85-2.11,1.56-3.1,2.43,1-1.4,1.8-2.92,2.91-4.23-1.4,1.16-2.58,2.49-3.35,4.15.64-2.63,2.35-4.49,4.38-6.13-.15.03-.3.09-.46.19-2.4,1.5-3.96,3.63-4.74,6.34-.17.61-.38,1.21-.58,1.81-.02.03-.05.07-.1.12.14-1.62.39-3.19,1.03-4.66.64-1.48,1.56-2.77,2.53-4.03-1.65,1.53-2.87,3.33-3.43,5.54,0-.6.12-1.18.29-1.73,1.2-4.02,3.87-6.48,7.98-7.32,2.91-.58,5.58.05,7.94,1.84,1.85,1.42,2.92,3.4,3.65,5.58.31.95.44,1.93.49,2.92-.24-.82-.54-1.61-.97-2.35-1.16-1.98-2.85-3.39-4.79-4.54-1.14-.67-2.37-1.13-3.64-1.74.22.3.47.46.69.64.22.19.45.36.68.52,1.35.95,2.74,1.82,3.98,2.91,1.81,1.56,3.2,3.41,3.78,5.77.27,1.08.27,2.17.18,3.32-1.33-3.83-3.75-6.85-6.55-9.68-.01.17.11.22.17.3.07.11.14.2.22.3,1.32,1.69,2.67,3.39,3.75,5.25.91,1.59,1.61,3.26,1.96,5.07.15.77.13,1.55.1,2.33-.07,3.09.48,6.04,1.81,8.85.86,1.79,1.54,3.66,1.9,5.62-.66-.88-1.3-1.77-1.98-2.64-.98-1.28-1.93-2.58-2.65-4.04-.61-1.24-1.01-2.55-1.14-3.94-.09-1.06-.11-2.14-.12-3.21-.02-1.07-.13-2.13-.37-3.18-.02-.08-.06-.15-.09-.24.11,1.54.06,3.06-.07,4.58-.4,4.58.81,8.59,4.13,11.97-1.98-1.08-3.8-2.31-4.91-4.39-1.1-2.04-1.3-4.23-1.17-6.49-.34,1.71-.4,3.42.03,5.13.49,1.89,1.59,3.35,3.11,4.54.86.67,1.83,1.2,2.64,1.93,1.74,1.57,2.93,3.46,3.43,5.77.13.62.24,1.24.26,1.88.09,2.47-.54,4.73-1.92,6.77-2.1,3.12-4.97,5.17-8.64,6.07-1.53.38-3.1.49-4.68.36-4.62-.37-8.14-2.6-10.65-6.44-1.04-1.58-1.63-3.34-1.69-5.25-.09-3.51,1.09-6.5,3.72-8.84.87-.77,1.78-1.51,2.94-1.84.83-.24,1.65-.33,2.45.09.84.44,1.36,1.44,1.23,2.38-.13.9-.85,1.64-1.83,1.78-1.13.16-2.09-.91-1.83-1.86.41.71,1.03,1.07,1.65.94.54-.12.91-.42,1.06-.96.15-.58-.05-1.08-.49-1.46-.67-.6-1.48-.6-2.31-.42-1.51.33-2.59,1.26-3.48,2.45-1.25,1.67-1.91,3.54-2.03,5.63-.13,2.07.34,3.96,1.3,5.67h-.02c.02.06,2.1,4.19,6.67,5.68.84.31,1.71.52,2.59.62.62.07,1.26.15,1.9.13,2.36-.07,4.6-.61,6.66-1.8,2.44-1.4,4.39-3.29,5.54-5.89,1.24-2.8,1.33-5.63,0-8.45-.4-.87-1.08-1.45-1.87-1.94-1.7-1.05-3.55-1.73-5.44-2.35-1.31-.43-2.59-.89-3.88-1.39h0s.05-.05.07-.07c1.25.38,2.52.71,3.82.91-.6-.28-1.2-.56-1.81-.83-2.27-1.03-4.41-2.25-6.18-4.04-1.16-1.16-2.01-2.51-2.38-4.12-.23-1.01-.11-2.18.33-3.08.3.59.62,1.15,1.03,1.65.54.66,1.16,1.26,1.88,1.73,1.09.74,2.19.76,3.29,0,1.68-1.15,2.85-2.69,3.55-4.61.34-.93.69-1.87.83-2.86.08-.51.26-1.07.07-1.53-.27-.65-.65-1.32-1.5-1.39-1.24-.12-2.39.09-3.29,1.08-.23.25-.38.54-.5.85.05-.75.04-1.53.75-2.05.38-.28.83-.35,1.28-.41.68-.11,1.36-.14,2.1.06-2.05-1.8-3.34-3.97-3.8-6.67-.1.25-.1.46-.1.66.02,3.03-.93,5.74-2.56,8.26-.8,1.24-1.72,2.4-2.6,3.58-.81,1.1-1.47,2.27-1.67,3.66-.13.97.07,1.88.43,2.77.69,1.75,1.98,3.01,3.49,4.07.36.25.73.46,1.06.76-.46-.21-.92-.4-1.37-.62-1.87-.88-3.44-2.11-4.37-4.02-.95-1.96-.85-3.92,0-5.87.63-1.45,1.54-2.71,2.5-3.95,1.38-1.77,2.44-3.73,3.31-5.8.03-.09.05-.17.06-.27-.54.86-1.14,1.68-1.76,2.49-1.08,1.42-2.29,2.73-3.37,4.15-1.2,1.58-2.11,3.3-2.41,5.28-.39,2.65.36,4.93,2.3,6.81,1.02.99,2.21,1.72,3.46,2.36,1.66.84,3.35,1.62,4.95,2.58.6.36,1.17.75,1.68,1.25-.36-.17-.73-.34-1.09-.49-2.18-.96-4.39-1.81-6.54-2.82-1.87-.9-3.56-2.02-4.86-3.7-1.37-1.77-1.96-3.77-1.98-5.97,0-1.2.19-2.37.65-3.55-.67.5-1.23,1-1.75,1.57.35-.67.74-1.32,1.21-1.91,1.3-1.64,2.98-2.85,4.65-4.07,1.59-1.16,3.09-2.41,4.18-4.09.37-.58.65-1.22.85-1.88-1.67,2.91-4.17,4.97-6.85,6.84-1.96,1.36-3.75,2.92-5.01,4.97-.65,1.07-1.22,2.18-1.3,3.46-.05.85.09,1.65.68,2.3.61.7,1.42.9,2.28.57.09-.04.19-.08.31-.13-.45.73-1.52.95-2.37.52-1.08-.53-1.55-1.44-1.67-2.59h0ZM54.28,38.72c-.3-.58-.54-1.19-.71-1.83-.12-.5.06-.93.2-1.4.33,1.32,1.25,2.26,2.01,3.3.7.96,1.38,1.93,1.73,3.08.17.58.11,1.14-.32,1.61-.3.32-.78.42-1.16.26-.41-.17-.73-.51-.65-.94.3-1.55-.46-2.79-1.11-4.07ZM32.5,50.54c.05.15.14.3.11.51-.83-.88-1.11-1.91-.97-3.06.19-1.58,1.13-2.74,2.12-3.88.32-.36.58-.76.8-1.22.2.25.15.49.05.74-.22.53-.59.95-.91,1.42-.51.73-1.02,1.46-1.28,2.32-.32,1.07-.25,2.13.09,3.19ZM41.18,53.47c.1.05.19.11.26.17.51.22.95.39,1.42.63-.07-.33-.11-.65-.14-.94-.02-.32-.01-.62.02-.91v-.05l.05-.02c.07-.03.13-.06.19-.09.05-.03.11-.06.15-.1,0-.36.02-.73.05-1.14.03-.42.06-.87.11-1.34v-.07h.07c.15-.04.32-.05.5-.04.17,0,.36.03.54.06h.07v.09c.05,1.49.06,2.25.06,2.45.08.03.17.07.26.11,0,0,0,0,.01,0,.01-.06.02-.12.03-.17.07-.32.28-.52.5-.54,0,.01,0,.03,0,.04-.1.05-.24.15-.32.54-.02.09-.03.18-.05.29h0c-.01.19-.02.4,0,.65v.03c0,.11.02.22.03.34.03.34.03.66.03.95v.26c-.01.34-.04.65-.1.93.11.08.22.17.32.25l.05.04c.19.16.36.3.5.42.03-1.16,0-2.71-.17-3.79-.11-.72-.11-.72.01.01.01-.09.02-.19.01-.28.26.87.37,2.71.32,4.22.42.41.53.72.46,1.46-.01.17-.03.32-.04.48-.08.79-.15,2-.11,2.89l.77-1.12c.15-.24.4-.4.67-.46,2.28-.5,2.55-2.74,2.55-2.74,0,0,.22-2.12,1.08-2.38,1.48-.45,1.98.82,2,.88.34,1.97-1.76,1.99-1.76,1.99-1.26-.03-1.4.94-1.38,1.41,0,.12-.1.23-.22.23-.57,0-.83.38-.83.38l-1.25,1.55-.36-.29s-.05-.01-.06,0-.01.05,0,.06l.36.29-.1.13-.36-.29s-.05,0-.06,0c-.02.02-.01.05,0,.06l.36.29-.11.13-.36-.28s-.04-.01-.06,0c-.01.01,0,.04,0,.06l.36.28-.1.13-.36-.28s-.05-.01-.06,0c-.01.01-.01.05,0,.06l.36.28-.11.13-.35-.28s-.05-.01-.06,0-.01.05,0,.06l.35.28-.1.13-.35-.28s-.05-.01-.07,0c-.01.02,0,.05,0,.06l.36.28-.11.13-.35-.28s-.05-.01-.06,0-.01.05,0,.06l.35.28-.1.13-.35-.28s-.05,0-.06,0c-.01.02-.01.05,0,.07l.35.28-.11.13-.34-.28s-.05-.01-.06,0c-.02.01-.01.04,0,.06l.34.28-.1.13-.35-.28s-.05-.01-.06,0-.01.05,0,.06l.35.28-.1.13-.35-.28s-.05-.01-.06,0-.01.05,0,.06l.34.28-.1.13-.34-.28s-.05-.01-.06,0c-.02.02-.01.05,0,.06l.34.28-.1.13-.35-.28s-.04-.01-.06,0c-.01.02,0,.05,0,.06l.34.28-.1.13-.34-.28s-.05,0-.06,0c-.01.02-.01.05,0,.07l.34.27-.1.13-.34-.27s-.05-.01-.06,0c-.01.01-.01.05,0,.06l.34.27-.1.13-.34-.27s-.05-.01-.07,0c-.01.02,0,.05,0,.06l.34.27-.1.13-.34-.27s-.05-.01-.06,0-.01.05,0,.06l.34.27-.11.13-.34-.27s-.05-.01-.06,0c-.01.02-.01.05,0,.06l.34.27-.1.13-.34-.27s-.05,0-.06,0c-.02.02-.01.05,0,.06l.34.27-.06.07-.56-.63-.49.71-.11-.11.3-.31s.01-.05,0-.06c-.01-.02-.04-.02-.06,0l-.3.31-.11-.11.3-.31s.01-.05,0-.06c-.02-.02-.05-.02-.06,0l-.31.31-.11-.11.3-.31s.02-.05,0-.07c-.01-.01-.04-.01-.06,0l-.3.32-.12-.11.31-.32s.01-.04,0-.06c-.02-.01-.05-.01-.07,0l-.3.32-.12-.11.31-.32s.01-.04,0-.06c-.02-.01-.05-.01-.06,0l-.31.32-.11-.11.3-.32s.02-.05,0-.06c-.01-.02-.04-.02-.06,0l-.31.32-.11-.11.31-.32s.01-.05,0-.06c-.02-.02-.05-.02-.07,0l-.31.32-.11-.11.31-.32s.02-.05,0-.06c-.02-.02-.05-.02-.06,0l-.31.32-.12-.11.31-.32s.02-.05,0-.07c-.01-.01-.04-.01-.06,0l-.31.32-.12-.11.32-.32s.01-.04,0-.06c-.02-.01-.05-.01-.06,0l-.32.32-.11-.11.31-.32s.02-.04,0-.06c-.01-.01-.05-.01-.06,0l-.32.32-.11-.11.32-.32s.01-.05,0-.06c-.01-.02-.04-.02-.06,0l-.32.32-.11-.11.32-.32s.01-.05,0-.06c-.02-.02-.05-.02-.06,0l-.32.32-.12-.11.32-.32s.02-.05,0-.06c-.01-.02-.04-.02-.06,0l-.32.32-.12-.11.32-.32s.01-.05,0-.07c-.02-.01-.05-.01-.07,0l-.32.32-.11-.11.32-.33s.01-.04,0-.06c-.02-.01-.05-.01-.06,0l-.32.33-.11-.11.32-.33s.02-.04,0-.06c-.01-.01-.04-.01-.06,0l-.32.33-.11-.11.32-.33s.01-.05,0-.06c-.02-.02-.05-.02-.07,0l-.32.33-1.42-1.38s-.31-.35-.87-.28c-.13.01-.24-.07-.25-.2-.05-.46-.29-1.42-1.55-1.23,0,0-2.09.23-1.98-1.77,0-.06.36-1.38,1.87-1.12.88.16,1.35,2.23,1.35,2.23,0,0,.54,2.2,2.86,2.43.28.03.54.16.72.38l3,3.38,1.84-2.67c-.26-.97-.11-1.98-.01-2.98.01-.17.03-.33.05-.48.08-.94-.15-1.14-1.09-1.89l-.05-.04c-.32-.26-.67-.52-1-.75-.32-.22-.63-.41-.89-.55-.52-.29-1.12-.6-1.69-.86-.02.13-.42.13-.67-.05-.06-.04-.11-.09-.16-.13-.12.4.64.85,1.46,1.35.8.49,1.67,1.01,1.9,1.61h0c.15.07.32.13.47.19.96.36,1.72.59,1.4,1.83.12-1.1-.62-1.36-1.46-1.67-.15-.06-.31-.12-.47-.19-.03-.01-.05-.02-.08-.03-.88-.35-2.04-.53-3.05-.75.03.04.04.07.03.11-.07.16-.45.11-.58.09-.04,0-.08-.02-.11-.03.24.42.77.54,1.32.69.13.03.26.07.37.11.46.14.87.29,1.26.43.38.14.72.28,1.01.42v.02c.44.13.82.29,1.07.44.44.28.29.87.16,1.2.08-.35.09-.83-.26-1.05-.34-.22-.95-.42-1.61-.59-.48-.13-2.3-.65-2.85-.53.04,0,.08,0,.13.01.11.01.19.03.25.05.15.04.17.15.14.24-.1.24-.42.11-.6.06-.37-.1-.27-.32,0-.35.26-.25,1.37-.04,2.18.15v.13h.17s0-.09,0-.09h.03-.02v-.11h-.17s0,.05,0,.05c-.3-.1-.61-.21-.95-.31-.11-.04-.24-.07-.36-.11-.62-.17-1.16-.32-1.4-.9-.11-.05-.19-.13-.18-.22,0-.11.22-.15.61-.07.07.01.14.03.2.06.43.06,1.2.15,1.98.32v.13h.17s0-.09,0-.09c.34.08.66.17.96.28-.18-.3-.53-.58-.93-.85v-.15h-.17s0,.04,0,.04c-.21-.13-.42-.26-.64-.4-.89-.54-1.56-.97-1.37-1.5-.34-.31-.3-.56.46-.15h.02ZM45.42,51.56c.06.09.17.64.13.77-.04-.05-.16-.64-.13-.77ZM48.41,55.36s-1.2-1.91.79-2.53c.44-.14,1.31.2,1.49.53.04.07.08.14.11.21.06.14.19.24.34.27.26.05.75.22.62.33-.06.05-.32.05-.42.05-.19.01-.37.1-.4.3-.17,1.07-1.42,1.71-1.42,1.71,0,0-1.6,1.02-1.18,2.98.03.13-.3.24-.37.26-.12.03-.45.1-.43,0,.05-.25.17-.74.36-1.28.18-.55.42-1.16.73-1.65.11-.3.09-.69-.22-1.16ZM39.41,57.22c.73.89,1.26,2.29,1.43,2.78.03.1-.3.07-.42.06-.07,0-.41-.07-.4-.21.18-2-1.53-2.82-1.53-2.82,0,0-1.31-.48-1.61-1.53-.06-.19-.24-.26-.44-.25-.1,0-.36.04-.42,0-.13-.09.32-.32.58-.4.14-.04.26-.15.3-.3.03-.07.05-.15.08-.22.15-.35.97-.79,1.42-.71,2.04.38,1.08,2.42,1.08,2.42-.13.27-.18.5-.18.71,0,.18.04.34.11.47h0ZM43.27,61.46c.03-1.03-.69-1.46-.66-2.96-.2-.05-.41-.09-.62-.15-.35-.1-1.28-.38-1.46-.72.2.22,1.3.49,1.52.55.51.15,1.46.29,1.8.76.15.22.15.47.08.7-.13-.73-.56-.93-1.11-1.08-.02,1.32.71,1.99.46,2.9ZM45.69,36.53c-.75.5-3.53.48-4.22.04,1.4-.44,2.8-.35,4.22-.04ZM42.67,34.58s.07,0,.1.02c.53.3,1.06.3,1.59.01.08-.04.21-.09.27-.01.07.08.01.22-.04.29-.26.37-.64.52-1.01.59-.42,0-1-.42-1.1-.71-.06-.19-.02-.26.18-.19ZM47.94,29.86c.26.19.5.39.81.46.18.03.1.13.05.19-.13.18-.28.36-.43.53-.06.07-.17.11-.13.23.04.12.17.05.25.06.12.01.24,0,.43,0-.24.17-.62.24-1.14.23.13.12.33.2.6.24-.49.22-.95.13-1.45.03.11.15.24.19.45.28-.46.02-.76-.17-1.1-.32.04.05.09.11.19.25-.57-.28-.93-.67-1.36-1.08.35.05.64.09.93.12.65.06,1.26-.03,1.79-.46.26-.21.42-.44.12-.76ZM44.75,37.68c-.72.68-1.63.69-2.37.03.41.03.79.08,1.17.09.39,0,.78-.01,1.2-.12ZM57.7,38.38c-.35.24-.74.36-1.18.26,1.14-.5,1.7-1.44,1.63-2.74-.08-1.43-.75-2.61-1.64-3.68-.63-.75-1.32-1.46-1.98-2.19-.13-.14-.26-.28-.27-.52.38.29.78.56,1.15.87,1.01.84,1.94,1.75,2.61,2.9.52.89.85,1.85.81,2.9-.03.9-.36,1.69-1.14,2.21ZM51.65,57c.57.16,1.16-.16,1.32-.73.17-.56-.16-1.16-.73-1.32-.56-.16-1.16.16-1.32.73-.16.56.17,1.16.73,1.32ZM50.26,55.03c.4-.43.37-1.11-.07-1.51-.43-.4-1.11-.37-1.51.07-.4.44-.37,1.11.07,1.51.44.4,1.11.37,1.51-.07ZM47.7,60.44c.08.03.17-.03.19-.11.03-.09-.03-.17-.11-.19-.09-.03-.17.02-.19.11-.03.08.02.17.11.19ZM46.31,61.59c0-.1-.01-.22-.02-.33l-.05.07c.02.09.05.17.07.26ZM45.98,56.45h0c-.05-.07-.11-.12-.17-.17v.17h.17ZM44.75,55.58l.17.03s0-.03,0-.05c-.05-.04-.1-.08-.15-.12,0,.05-.01.09-.02.13ZM44.85,53.97c-.06.34-.14.64-.23.81l-.04.03c-.07.03-.22.07-.4.08-.06,0-.12,0-.19,0,.08.05.16.11.24.16.17.12.36.25.54.38.04-.24.07-.51.08-.81,0-.21,0-.43,0-.67ZM43.72,54.74v-.03c.17.03.33.03.46.02s.24-.03.3-.05c.1-.21.19-.6.25-1.01.03-.18.05-.36.06-.54v-.02c.03-.26.03-.48.01-.63h0s-.05-.03-.08-.05c-.09-.05-.19-.1-.28-.13h-.01c-.19.03-.38.04-.57.03s-.4-.02-.6-.05c-.05.04-.11.07-.16.1,0,0-.01,0-.02.01-.05.03-.11.06-.16.09v.03c-.03.25-.03.51-.01.79.03.32.07.65.15,1.01h-.05c.1.07.21.13.32.19.13.07.26.14.4.23h0ZM43.85,49.73c-.13,0-.27,0-.39.01-.04.45-.07.87-.09,1.28-.03.39-.04.76-.05,1.1.19.02.37.04.54.04.17,0,.34,0,.5-.02,0-.22,0-.96-.05-2.36-.16-.03-.32-.04-.46-.05ZM42.99,57.45s.08.03.11.05c.38.14.71.28,1.01.41l.06-.13c-.19-.06-.38-.11-.58-.17-.12-.03-.34-.09-.6-.15ZM43.94,56.71l.17-.05s-.01-.05-.03-.07c-.08-.03-.16-.07-.25-.1.05.07.09.15.11.23ZM43.96,54.9c-.09-.05-.15-.11-.24-.16l-.02.13c.09.01.18.03.26.03ZM43.01,54.33s-.09-.05-.14-.07c0,.03.01.06.02.09,0,0,.12-.03.12-.03ZM42.61,58.49v.02c.07.02.13.03.2.05v-.03l-.2-.04ZM41.26,53.66c.09.04.19.09.3.13,0-.04-.02-.09-.09-.14,0,0-.01-.01-.03-.02-.05-.03-.11-.05-.16-.07l-.02.1ZM41.02,57.57c-.07-.05-.44-.11-.52-.1.07.05.48.11.52.1ZM40.6,60.91c.03.08.13.12.21.09s.12-.13.09-.21c-.03-.08-.13-.12-.21-.09-.08.03-.12.13-.09.21ZM40.44,55.85c.14.03.29.07.44.1-.03-.04-.09-.08-.15-.11-.13-.02-.23-.03-.29-.05v.05h0ZM40.71,56.07c-.09-.07-.56-.15-.65-.13.09.06.6.14.65.13ZM41.31,53.79c-.07-.11-.55-.38-.67-.4.07.11.6.4.67.4ZM40.64,57.25h-.02s-.02.01-.03.03c.01,0,.03-.02.05-.03ZM40.09,56.07s.08.03.13.05c-.03-.03-.04-.06-.05-.09l-.07.05ZM37.5,54.42c-.38.45-.33,1.13.12,1.51s1.12.33,1.51-.12c.39-.45.34-1.12-.11-1.51s-1.12-.34-1.51.11ZM35.63,56.09c-.54.23-.8.86-.56,1.4.23.54.86.8,1.4.56.54-.23.79-.86.56-1.4s-.86-.79-1.4-.56ZM45.14,47.29s.05-.05.07-.07c-.08-.03-.09,0-.07.07ZM37.03,56.65c-.23-.54-.86-.79-1.4-.56-.54.23-.8.86-.56,1.4.23.54.86.8,1.4.56.54-.23.79-.86.56-1.4ZM40.16,56.02l-.07.05s.08.03.13.05c-.03-.03-.04-.06-.05-.09ZM40.62,57.25s-.02.01-.03.03c.01,0,.03-.02.05-.03,0,0-.02,0-.02,0ZM40.65,53.39c.07.11.6.4.67.4-.07-.11-.55-.38-.67-.4ZM40.06,55.95c.09.06.6.14.65.13-.09-.07-.56-.15-.65-.13ZM40.72,55.84c-.13-.02-.23-.03-.29-.05v.05c.15.03.3.07.44.1-.03-.04-.09-.08-.15-.11ZM40.69,60.7c-.08.03-.12.13-.09.21.03.08.13.12.21.09s.12-.13.09-.21c-.03-.08-.13-.12-.21-.09ZM40.5,57.46c.07.05.48.11.52.1-.07-.05-.44-.11-.52-.1ZM41.47,53.65s-.01-.01-.03-.02c-.05-.03-.11-.05-.16-.07l-.02.1c.09.04.19.09.3.13,0-.04-.02-.09-.09-.14ZM42.97,57.44h.02-.02ZM42.86,54.27s.01.06.02.09l.12-.03s-.09-.05-.14-.07ZM42.9,55.62l-.02.58c.33.08.65.17.95.28-.18-.3-.53-.58-.93-.85ZM43.72,54.74l-.02.13c.09.01.18.03.26.03-.09-.05-.15-.11-.24-.16ZM44.08,56.58c-.08-.03-.16-.07-.25-.1.05.07.09.15.11.23l.17-.05s-.01-.05-.03-.07ZM43.59,57.61c-.12-.03-.34-.09-.6-.15.04.02.08.03.11.05.38.14.71.28,1.01.41l.06-.13c-.19-.06-.38-.11-.58-.17ZM44.31,49.78c-.16-.03-.32-.04-.46-.05-.13,0-.27,0-.39.01-.04.45-.07.87-.09,1.28-.03.39-.04.76-.05,1.1.19.02.37.04.54.04.17,0,.34,0,.5-.02,0-.22,0-.96-.05-2.36ZM44.81,52.47h0s-.05-.03-.08-.05c-.09-.05-.19-.1-.28-.13h-.01c-.19.03-.38.04-.57.03s-.4-.02-.6-.05c-.05.04-.11.07-.16.1,0,0-.01,0-.02.01-.05.03-.11.06-.16.09v.03c-.03.25-.03.51-.01.79.03.32.07.65.15,1.01h-.05c.1.07.21.13.32.19.13.07.26.14.4.23v-.03c.17.03.33.03.46.02s.24-.03.3-.05c.1-.21.19-.6.25-1.01.03-.18.05-.36.06-.54v-.02c.03-.26.03-.48.01-.63h0ZM44.63,54.78l-.04.03c-.07.03-.22.07-.4.08-.06,0-.12,0-.19,0,.08.05.16.11.24.16.17.12.36.25.54.38.04-.24.07-.51.08-.81,0-.21,0-.43,0-.67-.06.34-.14.64-.23.81ZM44.77,55.45s-.01.09-.02.13l.17.03s0-.03,0-.05c-.05-.04-.1-.08-.15-.12ZM45.63,52.49c-.07-.05-.13-.13-.17-.22-.03-.05-.05-.1-.07-.16-.02-.05-.03-.12-.04-.19-.01-.1-.01-.21,0-.32-.1.05-.24.15-.32.54-.02.09-.03.18-.05.29h0c-.01.19-.02.4,0,.65v.03c0,.11.02.22.03.34.03.34.03.66.03.95v.26c-.01.34-.04.65-.1.93.11.08.22.17.32.25l.05.04c.19.16.36.3.5.42.03-1.16,0-2.71-.17-3.79ZM45.8,56.28v.17h.17c-.05-.06-.11-.11-.17-.17ZM46.29,61.26l-.05.07c.02.09.05.17.07.26,0-.1-.01-.22-.02-.33ZM47.78,60.14c-.09-.03-.17.02-.19.11-.03.08.02.17.11.19.08.03.17-.03.19-.11.03-.09-.03-.17-.11-.19ZM52.25,54.95c-.56-.16-1.16.16-1.32.73-.16.56.17,1.16.73,1.32.57.16,1.16-.16,1.32-.73.17-.56-.16-1.16-.73-1.32ZM50.19,53.51c-.43-.4-1.11-.37-1.51.07-.4.44-.37,1.11.07,1.51.44.4,1.11.37,1.51-.07.4-.43.37-1.11-.07-1.51ZM39.01,54.31c-.45-.38-1.12-.34-1.51.11-.38.45-.33,1.13.12,1.51s1.12.33,1.51-.12c.39-.45.34-1.12-.11-1.51ZM42.61,58.49v.02c.07.02.13.03.2.05v-.03l-.2-.04ZM52.25,54.95c-.56-.16-1.16.16-1.32.73-.16.56.17,1.16.73,1.32.57.16,1.16-.16,1.32-.73.17-.56-.16-1.16-.73-1.32ZM50.19,53.51c-.43-.4-1.11-.37-1.51.07-.4.44-.37,1.11.07,1.51.44.4,1.11.37,1.51-.07.4-.43.37-1.11-.07-1.51ZM47.78,60.14c-.09-.03-.17.02-.19.11-.03.08.02.17.11.19.08.03.17-.03.19-.11.03-.09-.03-.17-.11-.19ZM46.29,61.26l-.05.07c.02.09.05.17.07.26,0-.1-.01-.22-.02-.33ZM45.8,56.28v.17h.17c-.05-.06-.11-.11-.17-.17ZM44.77,55.45s-.01.09-.02.13l.17.03s0-.03,0-.05c-.05-.04-.1-.08-.15-.12ZM43.72,54.74l-.02.13c.09.01.18.03.26.03-.09-.05-.15-.11-.24-.16ZM44.81,52.47h0s-.05-.03-.08-.05c-.09-.05-.19-.1-.28-.13h-.01c-.19.03-.38.04-.57.03s-.4-.02-.6-.05c-.05.04-.11.07-.16.1,0,0-.01,0-.02.01-.05.03-.11.06-.16.09v.03c-.03.25-.03.51-.01.79.03.32.07.65.15,1.01h-.05c.1.07.21.13.32.19.13.07.26.14.4.23v-.03c.17.03.33.03.46.02s.24-.03.3-.05c.1-.21.19-.6.25-1.01.03-.18.05-.36.06-.54v-.02c.03-.26.03-.48.01-.63h0ZM44.63,54.78l-.04.03c-.07.03-.22.07-.4.08-.06,0-.12,0-.19,0,.08.05.16.11.24.16.17.12.36.25.54.38.04-.24.07-.51.08-.81,0-.21,0-.43,0-.67-.06.34-.14.64-.23.81ZM44.31,49.78c-.16-.03-.32-.04-.46-.05-.13,0-.27,0-.39.01-.04.45-.07.87-.09,1.28-.03.39-.04.76-.05,1.1.19.02.37.04.54.04.17,0,.34,0,.5-.02,0-.22,0-.96-.05-2.36ZM43.59,57.61c-.12-.03-.34-.09-.6-.15.04.02.08.03.11.05.38.14.71.28,1.01.41l.06-.13c-.19-.06-.38-.11-.58-.17ZM44.08,56.58c-.08-.03-.16-.07-.25-.1.05.07.09.15.11.23l.17-.05s-.01-.05-.03-.07ZM42.86,54.27s.01.06.02.09l.12-.03s-.09-.05-.14-.07ZM42.61,58.49v.02c.07.02.13.03.2.05v-.03l-.2-.04ZM41.47,53.65s-.01-.01-.03-.02c-.05-.03-.11-.05-.16-.07l-.02.1c.09.04.19.09.3.13,0-.04-.02-.09-.09-.14ZM40.5,57.46c.07.05.48.11.52.1-.07-.05-.44-.11-.52-.1ZM40.69,60.7c-.08.03-.12.13-.09.21.03.08.13.12.21.09s.12-.13.09-.21c-.03-.08-.13-.12-.21-.09ZM40.72,55.84c-.13-.02-.23-.03-.29-.05v.05c.15.03.3.07.44.1-.03-.04-.09-.08-.15-.11ZM40.06,55.95c.09.06.6.14.65.13-.09-.07-.56-.15-.65-.13ZM40.65,53.39c.07.11.6.4.67.4-.07-.11-.55-.38-.67-.4ZM40.62,57.25s-.02.01-.03.03c.01,0,.03-.02.05-.03,0,0-.02,0-.02,0ZM40.16,56.02l-.07.05s.08.03.13.05c-.03-.03-.04-.06-.05-.09ZM39.01,54.31c-.45-.38-1.12-.34-1.51.11-.38.45-.33,1.13.12,1.51s1.12.33,1.51-.12c.39-.45.34-1.12-.11-1.51ZM37.03,56.65c-.23-.54-.86-.79-1.4-.56-.54.23-.8.86-.56,1.4.23.54.86.8,1.4.56.54-.23.79-.86.56-1.4ZM45.14,47.29s.05-.05.07-.07c-.08-.03-.09,0-.07.07ZM37.03,56.65c-.23-.54-.86-.79-1.4-.56-.54.23-.8.86-.56,1.4.23.54.86.8,1.4.56.54-.23.79-.86.56-1.4ZM40.16,56.02l-.07.05s.08.03.13.05c-.03-.03-.04-.06-.05-.09ZM40.62,57.25s-.02.01-.03.03c.01,0,.03-.02.05-.03,0,0-.02,0-.02,0ZM40.65,53.39c.07.11.6.4.67.4-.07-.11-.55-.38-.67-.4ZM40.06,55.95c.09.06.6.14.65.13-.09-.07-.56-.15-.65-.13ZM40.72,55.84c-.13-.02-.23-.03-.29-.05v.05c.15.03.3.07.44.1-.03-.04-.09-.08-.15-.11ZM40.69,60.7c-.08.03-.12.13-.09.21.03.08.13.12.21.09s.12-.13.09-.21c-.03-.08-.13-.12-.21-.09ZM40.5,57.46c.07.05.48.11.52.1-.07-.05-.44-.11-.52-.1ZM41.47,53.65s-.01-.01-.03-.02c-.05-.03-.11-.05-.16-.07l-.02.1c.09.04.19.09.3.13,0-.04-.02-.09-.09-.14ZM42.97,57.44h.02-.02ZM42.86,54.27s.01.06.02.09l.12-.03s-.09-.05-.14-.07ZM42.9,55.62l-.02.58c.33.08.65.17.95.28-.18-.3-.53-.58-.93-.85ZM44.08,56.58c-.08-.03-.16-.07-.25-.1.05.07.09.15.11.23l.17-.05s-.01-.05-.03-.07ZM43.59,57.61c-.12-.03-.34-.09-.6-.15.04.02.08.03.11.05.38.14.71.28,1.01.41l.06-.13c-.19-.06-.38-.11-.58-.17ZM44.31,49.78c-.16-.03-.32-.04-.46-.05-.13,0-.27,0-.39.01-.04.45-.07.87-.09,1.28-.03.39-.04.76-.05,1.1.19.02.37.04.54.04.17,0,.34,0,.5-.02,0-.22,0-.96-.05-2.36ZM45.63,52.49c-.07-.05-.13-.13-.17-.22-.03-.05-.05-.1-.07-.16-.02-.05-.03-.12-.04-.19-.01-.1-.01-.21,0-.32-.1.05-.24.15-.32.54-.02.09-.03.18-.05.29h0c-.01.19-.02.4,0,.65v.03c0,.11.02.22.03.34.03.34.03.66.03.95v.26c-.01.34-.04.65-.1.93.11.08.22.17.32.25l.05.04c.19.16.36.3.5.42.03-1.16,0-2.71-.17-3.79ZM44.77,55.45s-.01.09-.02.13l.17.03s0-.03,0-.05c-.05-.04-.1-.08-.15-.12ZM43.72,54.74l-.02.13c.09.01.18.03.26.03-.09-.05-.15-.11-.24-.16ZM44.81,52.47h0s-.05-.03-.08-.05c-.09-.05-.19-.1-.28-.13h-.01c-.19.03-.38.04-.57.03s-.4-.02-.6-.05c-.05.04-.11.07-.16.1,0,0-.01,0-.02.01-.05.03-.11.06-.16.09v.03c-.03.25-.03.51-.01.79.03.32.07.65.15,1.01h-.05c.1.07.21.13.32.19.13.07.26.14.4.23v-.03c.17.03.33.03.46.02s.24-.03.3-.05c.1-.21.19-.6.25-1.01.03-.18.05-.36.06-.54v-.02c.03-.26.03-.48.01-.63h0ZM44.63,54.78l-.04.03c-.07.03-.22.07-.4.08-.06,0-.12,0-.19,0,.08.05.16.11.24.16.17.12.36.25.54.38.04-.24.07-.51.08-.81,0-.21,0-.43,0-.67-.06.34-.14.64-.23.81ZM46.29,61.26l-.05.07c.02.09.05.17.07.26,0-.1-.01-.22-.02-.33ZM47.78,60.14c-.09-.03-.17.02-.19.11-.03.08.02.17.11.19.08.03.17-.03.19-.11.03-.09-.03-.17-.11-.19ZM52.25,54.95c-.56-.16-1.16.16-1.32.73-.16.56.17,1.16.73,1.32.57.16,1.16-.16,1.32-.73.17-.56-.16-1.16-.73-1.32ZM50.19,53.51c-.43-.4-1.11-.37-1.51.07-.4.44-.37,1.11.07,1.51.44.4,1.11.37,1.51-.07.4-.43.37-1.11-.07-1.51ZM39.01,54.31c-.45-.38-1.12-.34-1.51.11-.38.45-.33,1.13.12,1.51s1.12.33,1.51-.12c.39-.45.34-1.12-.11-1.51ZM42.61,58.49v.02c.07.02.13.03.2.05v-.03l-.2-.04ZM52.25,54.95c-.56-.16-1.16.16-1.32.73-.16.56.17,1.16.73,1.32.57.16,1.16-.16,1.32-.73.17-.56-.16-1.16-.73-1.32ZM50.19,53.51c-.43-.4-1.11-.37-1.51.07-.4.44-.37,1.11.07,1.51.44.4,1.11.37,1.51-.07.4-.43.37-1.11-.07-1.51ZM47.78,60.14c-.09-.03-.17.02-.19.11-.03.08.02.17.11.19.08.03.17-.03.19-.11.03-.09-.03-.17-.11-.19ZM46.29,61.26l-.05.07c.02.09.05.17.07.26,0-.1-.01-.22-.02-.33ZM44.31,49.78c-.16-.03-.32-.04-.46-.05-.13,0-.27,0-.39.01-.04.45-.07.87-.09,1.28-.03.39-.04.76-.05,1.1.19.02.37.04.54.04.17,0,.34,0,.5-.02,0-.22,0-.96-.05-2.36ZM43.59,57.61c-.12-.03-.34-.09-.6-.15.04.02.08.03.11.05.38.14.71.28,1.01.41l.06-.13c-.19-.06-.38-.11-.58-.17ZM44.08,56.58c-.08-.03-.16-.07-.25-.1.05.07.09.15.11.23l.17-.05s-.01-.05-.03-.07ZM42.86,54.27s.01.06.02.09l.12-.03s-.09-.05-.14-.07ZM42.61,58.49v.02c.07.02.13.03.2.05v-.03l-.2-.04ZM41.47,53.65s-.01-.01-.03-.02c-.05-.03-.11-.05-.16-.07l-.02.1c.09.04.19.09.3.13,0-.04-.02-.09-.09-.14ZM40.5,57.46c.07.05.48.11.52.1-.07-.05-.44-.11-.52-.1ZM40.69,60.7c-.08.03-.12.13-.09.21.03.08.13.12.21.09s.12-.13.09-.21c-.03-.08-.13-.12-.21-.09ZM40.72,55.84c-.13-.02-.23-.03-.29-.05v.05c.15.03.3.07.44.1-.03-.04-.09-.08-.15-.11ZM40.06,55.95c.09.06.6.14.65.13-.09-.07-.56-.15-.65-.13ZM40.65,53.39c.07.11.6.4.67.4-.07-.11-.55-.38-.67-.4ZM40.62,57.25s-.02.01-.03.03c.01,0,.03-.02.05-.03,0,0-.02,0-.02,0ZM40.16,56.02l-.07.05s.08.03.13.05c-.03-.03-.04-.06-.05-.09ZM39.01,54.31c-.45-.38-1.12-.34-1.51.11-.38.45-.33,1.13.12,1.51s1.12.33,1.51-.12c.39-.45.34-1.12-.11-1.51ZM37.03,56.65c-.23-.54-.86-.79-1.4-.56-.54.23-.8.86-.56,1.4.23.54.86.8,1.4.56.54-.23.79-.86.56-1.4ZM45.14,47.29s.05-.05.07-.07c-.08-.03-.09,0-.07.07ZM37.03,56.65c-.23-.54-.86-.79-1.4-.56-.54.23-.8.86-.56,1.4.23.54.86.8,1.4.56.54-.23.79-.86.56-1.4ZM40.16,56.02l-.07.05s.08.03.13.05c-.03-.03-.04-.06-.05-.09ZM40.62,57.25s-.02.01-.03.03c.01,0,.03-.02.05-.03,0,0-.02,0-.02,0ZM40.65,53.39c.07.11.6.4.67.4-.07-.11-.55-.38-.67-.4ZM40.06,55.95c.09.06.6.14.65.13-.09-.07-.56-.15-.65-.13ZM40.72,55.84c-.13-.02-.23-.03-.29-.05v.05c.15.03.3.07.44.1-.03-.04-.09-.08-.15-.11ZM40.69,60.7c-.08.03-.12.13-.09.21.03.08.13.12.21.09s.12-.13.09-.21c-.03-.08-.13-.12-.21-.09ZM40.5,57.46c.07.05.48.11.52.1-.07-.05-.44-.11-.52-.1ZM41.47,53.65s-.01-.01-.03-.02c-.05-.03-.11-.05-.16-.07l-.02.1c.09.04.19.09.3.13,0-.04-.02-.09-.09-.14ZM42.97,57.44h.02-.02ZM42.86,54.27s.01.06.02.09l.12-.03s-.09-.05-.14-.07ZM42.9,55.62l-.02.58c.33.08.65.17.95.28-.18-.3-.53-.58-.93-.85ZM44.08,56.58c-.08-.03-.16-.07-.25-.1.05.07.09.15.11.23l.17-.05s-.01-.05-.03-.07ZM43.59,57.61c-.12-.03-.34-.09-.6-.15.04.02.08.03.11.05.38.14.71.28,1.01.41l.06-.13c-.19-.06-.38-.11-.58-.17ZM44.31,49.78c-.16-.03-.32-.04-.46-.05-.13,0-.27,0-.39.01-.04.45-.07.87-.09,1.28-.03.39-.04.76-.05,1.1.19.02.37.04.54.04.17,0,.34,0,.5-.02,0-.22,0-.96-.05-2.36ZM45.63,52.49c-.07-.05-.13-.13-.17-.22-.03-.05-.05-.1-.07-.16-.02-.05-.03-.12-.04-.19-.01-.1-.01-.21,0-.32-.1.05-.24.15-.32.54-.02.09-.03.18-.05.29h0c-.01.19-.02.4,0,.65v.03c0,.11.02.22.03.34.03.34.03.66.03.95v.26c-.01.34-.04.65-.1.93.11.08.22.17.32.25l.05.04c.19.16.36.3.5.42.03-1.16,0-2.71-.17-3.79ZM44.77,55.45s-.01.09-.02.13l.17.03s0-.03,0-.05c-.05-.04-.1-.08-.15-.12ZM43.72,54.74l-.02.13c.09.01.18.03.26.03-.09-.05-.15-.11-.24-.16ZM44.81,52.47h0s-.05-.03-.08-.05c-.09-.05-.19-.1-.28-.13h-.01c-.19.03-.38.04-.57.03s-.4-.02-.6-.05c-.05.04-.11.07-.16.1,0,0-.01,0-.02.01-.05.03-.11.06-.16.09v.03c-.03.25-.03.51-.01.79.03.32.07.65.15,1.01h-.05c.1.07.21.13.32.19.13.07.26.14.4.23v-.03c.17.03.33.03.46.02s.24-.03.3-.05c.1-.21.19-.6.25-1.01.03-.18.05-.36.06-.54v-.02c.03-.26.03-.48.01-.63h0ZM44.63,54.78l-.04.03c-.07.03-.22.07-.4.08-.06,0-.12,0-.19,0,.08.05.16.11.24.16.17.12.36.25.54.38.04-.24.07-.51.08-.81,0-.21,0-.43,0-.67-.06.34-.14.64-.23.81ZM46.29,61.26l-.05.07c.02.09.05.17.07.26,0-.1-.01-.22-.02-.33ZM47.78,60.14c-.09-.03-.17.02-.19.11-.03.08.02.17.11.19.08.03.17-.03.19-.11.03-.09-.03-.17-.11-.19ZM52.25,54.95c-.56-.16-1.16.16-1.32.73-.16.56.17,1.16.73,1.32.57.16,1.16-.16,1.32-.73.17-.56-.16-1.16-.73-1.32ZM50.19,53.51c-.43-.4-1.11-.37-1.51.07-.4.44-.37,1.11.07,1.51.44.4,1.11.37,1.51-.07.4-.43.37-1.11-.07-1.51ZM39.01,54.31c-.45-.38-1.12-.34-1.51.11-.38.45-.33,1.13.12,1.51s1.12.33,1.51-.12c.39-.45.34-1.12-.11-1.51ZM42.61,58.49v.02c.07.02.13.03.2.05v-.03l-.2-.04ZM52.25,54.95c-.56-.16-1.16.16-1.32.73-.16.56.17,1.16.73,1.32.57.16,1.16-.16,1.32-.73.17-.56-.16-1.16-.73-1.32ZM50.19,53.51c-.43-.4-1.11-.37-1.51.07-.4.44-.37,1.11.07,1.51.44.4,1.11.37,1.51-.07.4-.43.37-1.11-.07-1.51ZM47.78,60.14c-.09-.03-.17.02-.19.11-.03.08.02.17.11.19.08.03.17-.03.19-.11.03-.09-.03-.17-.11-.19ZM46.29,61.26l-.05.07c.02.09.05.17.07.26,0-.1-.01-.22-.02-.33ZM44.31,49.78c-.16-.03-.32-.04-.46-.05-.13,0-.27,0-.39.01-.04.45-.07.87-.09,1.28-.03.39-.04.76-.05,1.1.19.02.37.04.54.04.17,0,.34,0,.5-.02,0-.22,0-.96-.05-2.36ZM43.59,57.61c-.12-.03-.34-.09-.6-.15.04.02.08.03.11.05.38.14.71.28,1.01.41l.06-.13c-.19-.06-.38-.11-.58-.17ZM44.08,56.58c-.08-.03-.16-.07-.25-.1.05.07.09.15.11.23l.17-.05s-.01-.05-.03-.07ZM42.86,54.27s.01.06.02.09l.12-.03s-.09-.05-.14-.07ZM42.61,58.49v.02c.07.02.13.03.2.05v-.03l-.2-.04ZM41.47,53.65s-.01-.01-.03-.02c-.05-.03-.11-.05-.16-.07l-.02.1c.09.04.19.09.3.13,0-.04-.02-.09-.09-.14ZM40.5,57.46c.07.05.48.11.52.1-.07-.05-.44-.11-.52-.1ZM40.69,60.7c-.08.03-.12.13-.09.21.03.08.13.12.21.09s.12-.13.09-.21c-.03-.08-.13-.12-.21-.09ZM40.72,55.84c-.13-.02-.23-.03-.29-.05v.05c.15.03.3.07.44.1-.03-.04-.09-.08-.15-.11ZM40.06,55.95c.09.06.6.14.65.13-.09-.07-.56-.15-.65-.13ZM40.65,53.39c.07.11.6.4.67.4-.07-.11-.55-.38-.67-.4ZM40.62,57.25s-.02.01-.03.03c.01,0,.03-.02.05-.03,0,0-.02,0-.02,0ZM40.16,56.02l-.07.05s.08.03.13.05c-.03-.03-.04-.06-.05-.09ZM39.01,54.31c-.45-.38-1.12-.34-1.51.11-.38.45-.33,1.13.12,1.51s1.12.33,1.51-.12c.39-.45.34-1.12-.11-1.51ZM37.03,56.65c-.23-.54-.86-.79-1.4-.56-.54.23-.8.86-.56,1.4.23.54.86.8,1.4.56.54-.23.79-.86.56-1.4ZM45.14,47.29s.05-.05.07-.07c-.08-.03-.09,0-.07.07ZM37.03,56.65c-.23-.54-.86-.79-1.4-.56-.54.23-.8.86-.56,1.4.23.54.86.8,1.4.56.54-.23.79-.86.56-1.4ZM40.16,56.02l-.07.05s.08.03.13.05c-.03-.03-.04-.06-.05-.09ZM40.62,57.25s-.02.01-.03.03c.01,0,.03-.02.05-.03,0,0-.02,0-.02,0ZM40.65,53.39c.07.11.6.4.67.4-.07-.11-.55-.38-.67-.4ZM40.06,55.95c.09.06.6.14.65.13-.09-.07-.56-.15-.65-.13ZM40.72,55.84c-.13-.02-.23-.03-.29-.05v.05c.15.03.3.07.44.1-.03-.04-.09-.08-.15-.11ZM40.69,60.7c-.08.03-.12.13-.09.21.03.08.13.12.21.09s.12-.13.09-.21c-.03-.08-.13-.12-.21-.09ZM40.5,57.46c.07.05.48.11.52.1-.07-.05-.44-.11-.52-.1ZM41.47,53.65s-.01-.01-.03-.02c-.05-.03-.11-.05-.16-.07l-.02.1c.09.04.19.09.3.13,0-.04-.02-.09-.09-.14ZM42.97,57.44h.02-.02ZM42.86,54.27s.01.06.02.09l.12-.03s-.09-.05-.14-.07ZM42.9,55.62l-.02.58c.33.08.65.17.95.28-.18-.3-.53-.58-.93-.85ZM44.08,56.58c-.08-.03-.16-.07-.25-.1.05.07.09.15.11.23l.17-.05s-.01-.05-.03-.07ZM43.59,57.61c-.12-.03-.34-.09-.6-.15.04.02.08.03.11.05.38.14.71.28,1.01.41l.06-.13c-.19-.06-.38-.11-.58-.17ZM44.31,49.78c-.16-.03-.32-.04-.46-.05-.13,0-.27,0-.39.01-.04.45-.07.87-.09,1.28-.03.39-.04.76-.05,1.1.19.02.37.04.54.04.17,0,.34,0,.5-.02,0-.22,0-.96-.05-2.36ZM45.63,52.49c-.07-.05-.13-.13-.17-.22-.03-.05-.05-.1-.07-.16-.02-.05-.03-.12-.04-.19-.01-.1-.01-.21,0-.32-.1.05-.24.15-.32.54-.02.09-.03.18-.05.29h0c-.01.19-.02.4,0,.65v.03c0,.11.02.22.03.34.03.34.03.66.03.95v.26c-.01.34-.04.65-.1.93.11.08.22.17.32.25l.05.04c.19.16.36.3.5.42.03-1.16,0-2.71-.17-3.79ZM44.77,55.45s-.01.09-.02.13l.17.03s0-.03,0-.05c-.05-.04-.1-.08-.15-.12ZM43.72,54.74l-.02.13c.09.01.18.03.26.03-.09-.05-.15-.11-.24-.16ZM44.81,52.47h0s-.05-.03-.08-.05c-.09-.05-.19-.1-.28-.13h-.01c-.19.03-.38.04-.57.03s-.4-.02-.6-.05c-.05.04-.11.07-.16.1,0,0-.01,0-.02.01-.05.03-.11.06-.16.09v.03c-.03.25-.03.51-.01.79.03.32.07.65.15,1.01h-.05c.1.07.21.13.32.19.13.07.26.14.4.23v-.03c.17.03.33.03.46.02s.24-.03.3-.05c.1-.21.19-.6.25-1.01.03-.18.05-.36.06-.54v-.02c.03-.26.03-.48.01-.63h0ZM44.63,54.78l-.04.03c-.07.03-.22.07-.4.08-.06,0-.12,0-.19,0,.08.05.16.11.24.16.17.12.36.25.54.38.04-.24.07-.51.08-.81,0-.21,0-.43,0-.67-.06.34-.14.64-.23.81ZM46.29,61.26l-.05.07c.02.09.05.17.07.26,0-.1-.01-.22-.02-.33ZM47.78,60.14c-.09-.03-.17.02-.19.11-.03.08.02.17.11.19.08.03.17-.03.19-.11.03-.09-.03-.17-.11-.19ZM52.25,54.95c-.56-.16-1.16.16-1.32.73-.16.56.17,1.16.73,1.32.57.16,1.16-.16,1.32-.73.17-.56-.16-1.16-.73-1.32ZM50.19,53.51c-.43-.4-1.11-.37-1.51.07-.4.44-.37,1.11.07,1.51.44.4,1.11.37,1.51-.07.4-.43.37-1.11-.07-1.51ZM39.01,54.31c-.45-.38-1.12-.34-1.51.11-.38.45-.33,1.13.12,1.51s1.12.33,1.51-.12c.39-.45.34-1.12-.11-1.51ZM42.61,58.49v.02c.07.02.13.03.2.05v-.03l-.2-.04ZM52.25,54.95c-.56-.16-1.16.16-1.32.73-.16.56.17,1.16.73,1.32.57.16,1.16-.16,1.32-.73.17-.56-.16-1.16-.73-1.32ZM50.19,53.51c-.43-.4-1.11-.37-1.51.07-.4.44-.37,1.11.07,1.51.44.4,1.11.37,1.51-.07.4-.43.37-1.11-.07-1.51ZM47.78,60.14c-.09-.03-.17.02-.19.11-.03.08.02.17.11.19.08.03.17-.03.19-.11.03-.09-.03-.17-.11-.19ZM46.29,61.26l-.05.07c.02.09.05.17.07.26,0-.1-.01-.22-.02-.33ZM44.31,49.78c-.16-.03-.32-.04-.46-.05-.13,0-.27,0-.39.01-.04.45-.07.87-.09,1.28-.03.39-.04.76-.05,1.1.19.02.37.04.54.04.17,0,.34,0,.5-.02,0-.22,0-.96-.05-2.36ZM43.59,57.61c-.12-.03-.34-.09-.6-.15.04.02.08.03.11.05.38.14.71.28,1.01.41l.06-.13c-.19-.06-.38-.11-.58-.17ZM44.08,56.58c-.08-.03-.16-.07-.25-.1.05.07.09.15.11.23l.17-.05s-.01-.05-.03-.07ZM42.86,54.27s.01.06.02.09l.12-.03s-.09-.05-.14-.07ZM42.61,58.49v.02c.07.02.13.03.2.05v-.03l-.2-.04ZM41.47,53.65s-.01-.01-.03-.02c-.05-.03-.11-.05-.16-.07l-.02.1c.09.04.19.09.3.13,0-.04-.02-.09-.09-.14ZM40.5,57.46c.07.05.48.11.52.1-.07-.05-.44-.11-.52-.1ZM40.69,60.7c-.08.03-.12.13-.09.21.03.08.13.12.21.09s.12-.13.09-.21c-.03-.08-.13-.12-.21-.09ZM40.72,55.84c-.13-.02-.23-.03-.29-.05v.05c.15.03.3.07.44.1-.03-.04-.09-.08-.15-.11ZM40.06,55.95c.09.06.6.14.65.13-.09-.07-.56-.15-.65-.13ZM40.65,53.39c.07.11.6.4.67.4-.07-.11-.55-.38-.67-.4ZM40.62,57.25s-.02.01-.03.03c.01,0,.03-.02.05-.03,0,0-.02,0-.02,0ZM40.16,56.02l-.07.05s.08.03.13.05c-.03-.03-.04-.06-.05-.09ZM39.01,54.31c-.45-.38-1.12-.34-1.51.11-.38.45-.33,1.13.12,1.51s1.12.33,1.51-.12c.39-.45.34-1.12-.11-1.51ZM37.03,56.65c-.23-.54-.86-.79-1.4-.56-.54.23-.8.86-.56,1.4.23.54.86.8,1.4.56.54-.23.79-.86.56-1.4ZM45.14,47.29s.05-.05.07-.07c-.08-.03-.09,0-.07.07ZM37.03,56.65c-.23-.54-.86-.79-1.4-.56-.54.23-.8.86-.56,1.4.23.54.86.8,1.4.56.54-.23.79-.86.56-1.4ZM40.16,56.02l-.07.05s.08.03.13.05c-.03-.03-.04-.06-.05-.09ZM40.62,57.25s-.02.01-.03.03c.01,0,.03-.02.05-.03,0,0-.02,0-.02,0ZM40.65,53.39c.07.11.6.4.67.4-.07-.11-.55-.38-.67-.4ZM40.06,55.95c.09.06.6.14.65.13-.09-.07-.56-.15-.65-.13ZM40.72,55.84c-.13-.02-.23-.03-.29-.05v.05c.15.03.3.07.44.1-.03-.04-.09-.08-.15-.11ZM40.69,60.7c-.08.03-.12.13-.09.21.03.08.13.12.21.09s.12-.13.09-.21c-.03-.08-.13-.12-.21-.09ZM40.5,57.46c.07.05.48.11.52.1-.07-.05-.44-.11-.52-.1ZM41.47,53.65s-.01-.01-.03-.02c-.05-.03-.11-.05-.16-.07l-.02.1c.09.04.19.09.3.13,0-.04-.02-.09-.09-.14ZM42.97,57.44h.02-.02ZM42.86,54.27s.01.06.02.09l.12-.03s-.09-.05-.14-.07ZM42.9,55.62l-.02.58c.33.08.65.17.95.28-.18-.3-.53-.58-.93-.85ZM44.08,56.58c-.08-.03-.16-.07-.25-.1.05.07.09.15.11.23l.17-.05s-.01-.05-.03-.07ZM43.59,57.61c-.12-.03-.34-.09-.6-.15.04.02.08.03.11.05.38.14.71.28,1.01.41l.06-.13c-.19-.06-.38-.11-.58-.17ZM44.31,49.78c-.16-.03-.32-.04-.46-.05-.13,0-.27,0-.39.01-.04.45-.07.87-.09,1.28-.03.39-.04.76-.05,1.1.19.02.37.04.54.04.17,0,.34,0,.5-.02,0-.22,0-.96-.05-2.36ZM45.63,52.49c-.07-.05-.13-.13-.17-.22-.03-.05-.05-.1-.07-.16-.02-.05-.03-.12-.04-.19-.01-.1-.01-.21,0-.32-.1.05-.24.15-.32.54-.02.09-.03.18-.05.29h0c-.01.19-.02.4,0,.65v.03c0,.11.02.22.03.34.03.34.03.66.03.95v.26c-.01.34-.04.65-.1.93.11.08.22.17.32.25l.05.04c.19.16.36.3.5.42.03-1.16,0-2.71-.17-3.79ZM44.77,55.45s-.01.09-.02.13l.17.03s0-.03,0-.05c-.05-.04-.1-.08-.15-.12ZM43.72,54.74l-.02.13c.09.01.18.03.26.03-.09-.05-.15-.11-.24-.16ZM44.81,52.47h0s-.05-.03-.08-.05c-.09-.05-.19-.1-.28-.13h-.01c-.19.03-.38.04-.57.03s-.4-.02-.6-.05c-.05.04-.11.07-.16.1,0,0-.01,0-.02.01-.05.03-.11.06-.16.09v.03c-.03.25-.03.51-.01.79.03.32.07.65.15,1.01h-.05c.1.07.21.13.32.19.13.07.26.14.4.23v-.03c.17.03.33.03.46.02s.24-.03.3-.05c.1-.21.19-.6.25-1.01.03-.18.05-.36.06-.54v-.02c.03-.26.03-.48.01-.63h0ZM44.63,54.78l-.04.03c-.07.03-.22.07-.4.08-.06,0-.12,0-.19,0,.08.05.16.11.24.16.17.12.36.25.54.38.04-.24.07-.51.08-.81,0-.21,0-.43,0-.67-.06.34-.14.64-.23.81ZM46.29,61.26l-.05.07c.02.09.05.17.07.26,0-.1-.01-.22-.02-.33ZM47.78,60.14c-.09-.03-.17.02-.19.11-.03.08.02.17.11.19.08.03.17-.03.19-.11.03-.09-.03-.17-.11-.19ZM52.25,54.95c-.56-.16-1.16.16-1.32.73-.16.56.17,1.16.73,1.32.57.16,1.16-.16,1.32-.73.17-.56-.16-1.16-.73-1.32ZM50.19,53.51c-.43-.4-1.11-.37-1.51.07-.4.44-.37,1.11.07,1.51.44.4,1.11.37,1.51-.07.4-.43.37-1.11-.07-1.51ZM39.01,54.31c-.45-.38-1.12-.34-1.51.11-.38.45-.33,1.13.12,1.51s1.12.33,1.51-.12c.39-.45.34-1.12-.11-1.51ZM42.61,58.49v.02c.07.02.13.03.2.05v-.03l-.2-.04ZM52.25,54.95c-.56-.16-1.16.16-1.32.73-.16.56.17,1.16.73,1.32.57.16,1.16-.16,1.32-.73.17-.56-.16-1.16-.73-1.32ZM50.19,53.51c-.43-.4-1.11-.37-1.51.07-.4.44-.37,1.11.07,1.51.44.4,1.11.37,1.51-.07.4-.43.37-1.11-.07-1.51ZM47.78,60.14c-.09-.03-.17.02-.19.11-.03.08.02.17.11.19.08.03.17-.03.19-.11.03-.09-.03-.17-.11-.19ZM46.29,61.26l-.05.07c.02.09.05.17.07.26,0-.1-.01-.22-.02-.33ZM44.31,49.78c-.16-.03-.32-.04-.46-.05-.13,0-.27,0-.39.01-.04.45-.07.87-.09,1.28-.03.39-.04.76-.05,1.1.19.02.37.04.54.04.17,0,.34,0,.5-.02,0-.22,0-.96-.05-2.36ZM43.59,57.61c-.12-.03-.34-.09-.6-.15.04.02.08.03.11.05.38.14.71.28,1.01.41l.06-.13c-.19-.06-.38-.11-.58-.17ZM44.08,56.58c-.08-.03-.16-.07-.25-.1.05.07.09.15.11.23l.17-.05s-.01-.05-.03-.07ZM42.86,54.27s.01.06.02.09l.12-.03s-.09-.05-.14-.07ZM42.61,58.49v.02c.07.02.13.03.2.05v-.03l-.2-.04ZM41.47,53.65s-.01-.01-.03-.02c-.05-.03-.11-.05-.16-.07l-.02.1c.09.04.19.09.3.13,0-.04-.02-.09-.09-.14ZM40.5,57.46c.07.05.48.11.52.1-.07-.05-.44-.11-.52-.1ZM40.69,60.7c-.08.03-.12.13-.09.21.03.08.13.12.21.09s.12-.13.09-.21c-.03-.08-.13-.12-.21-.09ZM40.72,55.84c-.13-.02-.23-.03-.29-.05v.05c.15.03.3.07.44.1-.03-.04-.09-.08-.15-.11ZM40.06,55.95c.09.06.6.14.65.13-.09-.07-.56-.15-.65-.13ZM40.65,53.39c.07.11.6.4.67.4-.07-.11-.55-.38-.67-.4ZM40.62,57.25s-.02.01-.03.03c.01,0,.03-.02.05-.03,0,0-.02,0-.02,0ZM40.16,56.02l-.07.05s.08.03.13.05c-.03-.03-.04-.06-.05-.09ZM39.01,54.31c-.45-.38-1.12-.34-1.51.11-.38.45-.33,1.13.12,1.51s1.12.33,1.51-.12c.39-.45.34-1.12-.11-1.51ZM37.03,56.65c-.23-.54-.86-.79-1.4-.56-.54.23-.8.86-.56,1.4.23.54.86.8,1.4.56.54-.23.79-.86.56-1.4ZM45.14,47.29s.05-.05.07-.07c-.08-.03-.09,0-.07.07ZM37.03,56.65c-.23-.54-.86-.79-1.4-.56-.54.23-.8.86-.56,1.4.23.54.86.8,1.4.56.54-.23.79-.86.56-1.4ZM40.69,60.7c-.08.03-.12.13-.09.21.03.08.13.12.21.09s.12-.13.09-.21c-.03-.08-.13-.12-.21-.09ZM45.63,52.49c-.07-.05-.13-.13-.17-.22-.03-.05-.05-.1-.07-.16-.02-.05-.03-.12-.04-.19-.01-.1-.01-.21,0-.32-.1.05-.24.15-.32.54-.02.09-.03.18-.05.29h0c-.01.19-.02.4,0,.65v.03c0,.11.02.22.03.34.03.34.03.66.03.95v.26c-.01.34-.04.65-.1.93.11.08.22.17.32.25l.05.04c.19.16.36.3.5.42.03-1.16,0-2.71-.17-3.79ZM44.77,55.45s-.01.09-.02.13l.17.03s0-.03,0-.05c-.05-.04-.1-.08-.15-.12ZM43.72,54.74l-.02.13c.09.01.18.03.26.03-.09-.05-.15-.11-.24-.16ZM44.81,52.47h0s-.05-.03-.08-.05c-.09-.05-.19-.1-.28-.13h-.01c-.19.03-.38.04-.57.03s-.4-.02-.6-.05c-.05.04-.11.07-.16.1,0,0-.01,0-.02.01-.05.03-.11.06-.16.09v.03c-.03.25-.03.51-.01.79.03.32.07.65.15,1.01h-.05c.1.07.21.13.32.19.13.07.26.14.4.23v-.03c.17.03.33.03.46.02s.24-.03.3-.05c.1-.21.19-.6.25-1.01.03-.18.05-.36.06-.54v-.02c.03-.26.03-.48.01-.63h0ZM44.63,54.78l-.04.03c-.07.03-.22.07-.4.08-.06,0-.12,0-.19,0,.08.05.16.11.24.16.17.12.36.25.54.38.04-.24.07-.51.08-.81,0-.21,0-.43,0-.67-.06.34-.14.64-.23.81ZM46.29,61.26l-.05.07c.02.09.05.17.07.26,0-.1-.01-.22-.02-.33ZM47.78,60.14c-.09-.03-.17.02-.19.11-.03.08.02.17.11.19.08.03.17-.03.19-.11.03-.09-.03-.17-.11-.19ZM52.25,54.95c-.56-.16-1.16.16-1.32.73-.16.56.17,1.16.73,1.32.57.16,1.16-.16,1.32-.73.17-.56-.16-1.16-.73-1.32ZM50.19,53.51c-.43-.4-1.11-.37-1.51.07-.4.44-.37,1.11.07,1.51.44.4,1.11.37,1.51-.07.4-.43.37-1.11-.07-1.51ZM39.01,54.31c-.45-.38-1.12-.34-1.51.11-.38.45-.33,1.13.12,1.51s1.12.33,1.51-.12c.39-.45.34-1.12-.11-1.51ZM40.16,56.02l-.07.05s.08.03.13.05c-.03-.03-.04-.06-.05-.09ZM40.62,57.25s-.02.01-.03.03c.01,0,.03-.02.05-.03,0,0-.02,0-.02,0ZM40.06,55.95c.09.06.6.14.65.13-.09-.07-.56-.15-.65-.13ZM40.72,55.84c-.13-.02-.23-.03-.29-.05v.05c.15.03.3.07.44.1-.03-.04-.09-.08-.15-.11ZM40.5,57.46c.07.05.48.11.52.1-.07-.05-.44-.11-.52-.1ZM42.97,57.44h.02-.02ZM42.9,55.62l-.02.58c.33.08.65.17.95.28-.18-.3-.53-.58-.93-.85ZM44.08,56.58c-.08-.03-.16-.07-.25-.1.05.07.09.15.11.23l.17-.05s-.01-.05-.03-.07ZM43.59,57.61c-.12-.03-.34-.09-.6-.15.04.02.08.03.11.05.38.14.71.28,1.01.41l.06-.13c-.19-.06-.38-.11-.58-.17ZM42.61,58.49v.02c.07.02.13.03.2.05v-.03l-.2-.04ZM52.25,54.95c-.56-.16-1.16.16-1.32.73-.16.56.17,1.16.73,1.32.57.16,1.16-.16,1.32-.73.17-.56-.16-1.16-.73-1.32ZM50.19,53.51c-.43-.4-1.11-.37-1.51.07-.4.44-.37,1.11.07,1.51.44.4,1.11.37,1.51-.07.4-.43.37-1.11-.07-1.51ZM47.78,60.14c-.09-.03-.17.02-.19.11-.03.08.02.17.11.19.08.03.17-.03.19-.11.03-.09-.03-.17-.11-.19ZM46.29,61.26l-.05.07c.02.09.05.17.07.26,0-.1-.01-.22-.02-.33ZM43.59,57.61c-.12-.03-.34-.09-.6-.15.04.02.08.03.11.05.38.14.71.28,1.01.41l.06-.13c-.19-.06-.38-.11-.58-.17ZM44.08,56.58c-.08-.03-.16-.07-.25-.1.05.07.09.15.11.23l.17-.05s-.01-.05-.03-.07ZM42.61,58.49v.02c.07.02.13.03.2.05v-.03l-.2-.04ZM40.5,57.46c.07.05.48.11.52.1-.07-.05-.44-.11-.52-.1ZM40.69,60.7c-.08.03-.12.13-.09.21.03.08.13.12.21.09s.12-.13.09-.21c-.03-.08-.13-.12-.21-.09ZM40.72,55.84c-.13-.02-.23-.03-.29-.05v.05c.15.03.3.07.44.1-.03-.04-.09-.08-.15-.11ZM40.06,55.95c.09.06.6.14.65.13-.09-.07-.56-.15-.65-.13ZM40.62,57.25s-.02.01-.03.03c.01,0,.03-.02.05-.03,0,0-.02,0-.02,0ZM40.16,56.02l-.07.05s.08.03.13.05c-.03-.03-.04-.06-.05-.09ZM39.01,54.31c-.45-.38-1.12-.34-1.51.11-.38.45-.33,1.13.12,1.51s1.12.33,1.51-.12c.39-.45.34-1.12-.11-1.51ZM37.03,56.65c-.23-.54-.86-.79-1.4-.56-.54.23-.8.86-.56,1.4.23.54.86.8,1.4.56.54-.23.79-.86.56-1.4ZM45.14,47.29s.05-.05.07-.07c-.08-.03-.09,0-.07.07ZM37.03,56.65c-.23-.54-.86-.79-1.4-.56-.54.23-.8.86-.56,1.4.23.54.86.8,1.4.56.54-.23.79-.86.56-1.4ZM40.69,60.7c-.08.03-.12.13-.09.21.03.08.13.12.21.09s.12-.13.09-.21c-.03-.08-.13-.12-.21-.09ZM45.63,52.49c-.07-.05-.13-.13-.17-.22-.03-.05-.05-.1-.07-.16-.02-.05-.03-.12-.04-.19-.01-.1-.01-.21,0-.32-.1.05-.24.15-.32.54-.02.09-.03.18-.05.29h0c-.01.19-.02.4,0,.65v.03c0,.11.02.22.03.34.03.34.03.66.03.95v.26c-.01.34-.04.65-.1.93.11.08.22.17.32.25l.05.04c.19.16.36.3.5.42.03-1.16,0-2.71-.17-3.79ZM44.77,55.45s-.01.09-.02.13l.17.03s0-.03,0-.05c-.05-.04-.1-.08-.15-.12ZM43.72,54.74l-.02.13c.09.01.18.03.26.03-.09-.05-.15-.11-.24-.16ZM44.81,52.47h0s-.05-.03-.08-.05c-.09-.05-.19-.1-.28-.13h-.01c-.19.03-.38.04-.57.03s-.4-.02-.6-.05c-.05.04-.11.07-.16.1,0,0-.01,0-.02.01-.05.03-.11.06-.16.09v.03c-.03.25-.03.51-.01.79.03.32.07.65.15,1.01h-.05c.1.07.21.13.32.19.13.07.26.14.4.23v-.03c.17.03.33.03.46.02s.24-.03.3-.05c.1-.21.19-.6.25-1.01.03-.18.05-.36.06-.54v-.02c.03-.26.03-.48.01-.63h0ZM44.63,54.78l-.04.03c-.07.03-.22.07-.4.08-.06,0-.12,0-.19,0,.08.05.16.11.24.16.17.12.36.25.54.38.04-.24.07-.51.08-.81,0-.21,0-.43,0-.67-.06.34-.14.64-.23.81ZM46.29,61.26l-.05.07c.02.09.05.17.07.26,0-.1-.01-.22-.02-.33ZM47.78,60.14c-.09-.03-.17.02-.19.11-.03.08.02.17.11.19.08.03.17-.03.19-.11.03-.09-.03-.17-.11-.19ZM52.25,54.95c-.56-.16-1.16.16-1.32.73-.16.56.17,1.16.73,1.32.57.16,1.16-.16,1.32-.73.17-.56-.16-1.16-.73-1.32ZM50.19,53.51c-.43-.4-1.11-.37-1.51.07-.4.44-.37,1.11.07,1.51.44.4,1.11.37,1.51-.07.4-.43.37-1.11-.07-1.51ZM39.01,54.31c-.45-.38-1.12-.34-1.51.11-.38.45-.33,1.13.12,1.51s1.12.33,1.51-.12c.39-.45.34-1.12-.11-1.51ZM40.62,57.25s-.02.01-.03.03c.01,0,.03-.02.05-.03,0,0-.02,0-.02,0ZM40.5,57.46c.07.05.48.11.52.1-.07-.05-.44-.11-.52-.1ZM42.97,57.44h.02-.02ZM43.59,57.61c-.12-.03-.34-.09-.6-.15.04.02.08.03.11.05.38.14.71.28,1.01.41l.06-.13c-.19-.06-.38-.11-.58-.17ZM42.61,58.49v.02c.07.02.13.03.2.05v-.03l-.2-.04ZM52.25,54.95c-.56-.16-1.16.16-1.32.73-.16.56.17,1.16.73,1.32.57.16,1.16-.16,1.32-.73.17-.56-.16-1.16-.73-1.32ZM50.19,53.51c-.43-.4-1.11-.37-1.51.07-.4.44-.37,1.11.07,1.51.44.4,1.11.37,1.51-.07.4-.43.37-1.11-.07-1.51ZM47.78,60.14c-.09-.03-.17.02-.19.11-.03.08.02.17.11.19.08.03.17-.03.19-.11.03-.09-.03-.17-.11-.19ZM46.29,61.26l-.05.07c.02.09.05.17.07.26,0-.1-.01-.22-.02-.33ZM43.59,57.61c-.12-.03-.34-.09-.6-.15.04.02.08.03.11.05.38.14.71.28,1.01.41l.06-.13c-.19-.06-.38-.11-.58-.17ZM42.61,58.49v.02c.07.02.13.03.2.05v-.03l-.2-.04ZM40.5,57.46c.07.05.48.11.52.1-.07-.05-.44-.11-.52-.1ZM40.69,60.7c-.08.03-.12.13-.09.21.03.08.13.12.21.09s.12-.13.09-.21c-.03-.08-.13-.12-.21-.09ZM40.62,57.25s-.02.01-.03.03c.01,0,.03-.02.05-.03,0,0-.02,0-.02,0ZM39.01,54.31c-.45-.38-1.12-.34-1.51.11-.38.45-.33,1.13.12,1.51s1.12.33,1.51-.12c.39-.45.34-1.12-.11-1.51ZM37.03,56.65c-.23-.54-.86-.79-1.4-.56-.54.23-.8.86-.56,1.4.23.54.86.8,1.4.56.54-.23.79-.86.56-1.4ZM45.14,47.29s.05-.05.07-.07c-.08-.03-.09,0-.07.07ZM37.03,56.65c-.23-.54-.86-.79-1.4-.56-.54.23-.8.86-.56,1.4.23.54.86.8,1.4.56.54-.23.79-.86.56-1.4ZM40.69,60.7c-.08.03-.12.13-.09.21.03.08.13.12.21.09s.12-.13.09-.21c-.03-.08-.13-.12-.21-.09ZM45.63,52.49c-.07-.05-.13-.13-.17-.22-.03-.05-.05-.1-.07-.16-.01-.05-.03-.12-.04-.19-.01-.1-.01-.21,0-.32-.1.05-.24.15-.32.54-.02.09-.03.18-.05.29h0c-.01.19-.02.4,0,.65v.03c0,.11.02.22.03.34.03.34.03.66.03.95v.26c-.01.34-.04.65-.1.93.11.08.22.17.32.25l.05.04c.19.16.36.3.5.42.03-1.16,0-2.71-.17-3.79ZM44.77,55.45s-.01.09-.02.13l.17.03s0-.03,0-.05c-.05-.04-.1-.08-.15-.12ZM43.72,54.74l-.02.13c.09.01.18.03.26.03-.09-.05-.15-.11-.24-.16ZM44.81,52.47h0s-.05-.03-.08-.05c-.09-.05-.19-.1-.28-.13h-.01c-.19.03-.38.04-.57.03s-.4-.02-.6-.05c-.05.04-.11.07-.16.1,0,0-.01,0-.02.01-.05.03-.11.06-.16.09v.03c-.03.25-.03.51-.01.79.03.32.07.65.15,1.01h-.05c.1.07.21.13.32.19.13.07.26.14.4.23v-.03c.17.03.33.03.46.02s.24-.03.3-.05c.1-.21.19-.6.25-1.01.03-.18.05-.36.06-.54v-.02c.03-.26.03-.48.01-.63h0ZM44.63,54.78l-.04.03c-.07.03-.22.07-.4.08-.06,0-.12,0-.19,0,.08.05.16.11.24.16.17.12.36.25.54.38.04-.24.07-.51.08-.81,0-.21,0-.43,0-.67-.06.34-.14.64-.23.81ZM46.29,61.26l-.05.07c.02.09.05.17.07.26,0-.1-.01-.22-.02-.33ZM47.78,60.14c-.09-.03-.17.02-.19.11-.03.08.02.17.11.19.08.03.17-.03.19-.11.03-.09-.03-.17-.11-.19ZM52.25,54.95c-.56-.16-1.16.16-1.32.73-.16.56.17,1.16.73,1.32.57.16,1.16-.16,1.32-.73.17-.56-.16-1.16-.73-1.32ZM50.19,53.51c-.43-.4-1.11-.37-1.51.07-.4.44-.37,1.11.07,1.51.44.4,1.11.37,1.51-.07.4-.43.37-1.11-.07-1.51ZM39.01,54.31c-.45-.38-1.12-.34-1.51.11-.38.45-.33,1.13.12,1.51s1.12.33,1.51-.12c.39-.45.34-1.12-.11-1.51ZM40.62,57.25s-.02.01-.03.03c.01,0,.03-.02.05-.03,0,0-.02,0-.02,0ZM40.5,57.46c.07.05.48.11.52.1-.07-.05-.44-.11-.52-.1ZM42.97,57.44h.02-.02ZM43.59,57.61c-.12-.03-.34-.09-.6-.15.04.02.08.03.11.05.38.14.71.28,1.01.41l.06-.13c-.19-.06-.38-.11-.58-.17ZM42.61,58.49v.02c.07.02.13.03.2.05v-.03l-.2-.04ZM52.25,54.95c-.56-.16-1.16.16-1.32.73-.16.56.17,1.16.73,1.32.57.16,1.16-.16,1.32-.73.17-.56-.16-1.16-.73-1.32ZM50.19,53.51c-.43-.4-1.11-.37-1.51.07-.4.44-.37,1.11.07,1.51.44.4,1.11.37,1.51-.07.4-.43.37-1.11-.07-1.51ZM47.78,60.14c-.09-.03-.17.02-.19.11-.03.08.02.17.11.19.08.03.17-.03.19-.11.03-.09-.03-.17-.11-.19ZM46.29,61.26l-.05.07c.02.09.05.17.07.26,0-.1-.01-.22-.02-.33ZM43.59,57.61c-.12-.03-.34-.09-.6-.15.04.02.08.03.11.05.38.14.71.28,1.01.41l.06-.13c-.19-.06-.38-.11-.58-.17ZM42.61,58.49v.02c.07.02.13.03.2.05v-.03l-.2-.04ZM40.5,57.46c.07.05.48.11.52.1-.07-.05-.44-.11-.52-.1ZM40.69,60.7c-.08.03-.12.13-.09.21.03.08.13.12.21.09s.12-.13.09-.21c-.03-.08-.13-.12-.21-.09ZM40.62,57.25s-.02.01-.03.03c.01,0,.03-.02.05-.03,0,0-.02,0-.02,0ZM39.01,54.31c-.45-.38-1.12-.34-1.51.11-.38.45-.33,1.13.12,1.51s1.12.33,1.51-.12c.39-.45.34-1.12-.11-1.51ZM37.03,56.65c-.23-.54-.86-.79-1.4-.56-.54.23-.8.86-.56,1.4.23.54.86.8,1.4.56.54-.23.79-.86.56-1.4ZM45.14,47.29s.05-.05.07-.07c-.08-.03-.09,0-.07.07ZM50.19,53.51c-.43-.4-1.11-.37-1.51.07-.4.44-.37,1.11.07,1.51.44.4,1.11.37,1.51-.07.4-.43.37-1.11-.07-1.51ZM37.03,56.65c-.23-.54-.86-.79-1.4-.56-.54.23-.8.86-.56,1.4.23.54.86.8,1.4.56.54-.23.79-.86.56-1.4ZM40.69,60.7c-.08.03-.12.13-.09.21.03.08.13.12.21.09s.12-.13.09-.21c-.03-.08-.13-.12-.21-.09ZM47.78,60.14c-.09-.03-.17.02-.19.11-.03.08.02.17.11.19.08.03.17-.03.19-.11.03-.09-.03-.17-.11-.19ZM52.25,54.95c-.56-.16-1.16.16-1.32.73-.16.56.17,1.16.73,1.32.57.16,1.16-.16,1.32-.73.17-.56-.16-1.16-.73-1.32ZM39.01,54.31c-.45-.38-1.12-.34-1.51.11-.38.45-.33,1.13.12,1.51s1.12.33,1.51-.12c.39-.45.34-1.12-.11-1.51ZM40.62,57.25s-.02.01-.03.03c.01,0,.03-.02.05-.03,0,0-.02,0-.02,0ZM40.5,57.46c.07.05.48.11.52.1-.07-.05-.44-.11-.52-.1ZM42.97,57.44h.02-.02ZM43.59,57.61c-.12-.03-.34-.09-.6-.15.04.02.08.03.11.05.38.14.71.28,1.01.41l.06-.13c-.19-.06-.38-.11-.58-.17ZM52.25,54.95c-.56-.16-1.16.16-1.32.73-.16.56.17,1.16.73,1.32.57.16,1.16-.16,1.32-.73.17-.56-.16-1.16-.73-1.32ZM50.19,53.51c-.43-.4-1.11-.37-1.51.07-.4.44-.37,1.11.07,1.51.44.4,1.11.37,1.51-.07.4-.43.37-1.11-.07-1.51ZM47.78,60.14c-.09-.03-.17.02-.19.11-.03.08.02.17.11.19.08.03.17-.03.19-.11.03-.09-.03-.17-.11-.19ZM43.59,57.61c-.12-.03-.34-.09-.6-.15.04.02.08.03.11.05.38.14.71.28,1.01.41l.06-.13c-.19-.06-.38-.11-.58-.17ZM40.5,57.46c.07.05.48.11.52.1-.07-.05-.44-.11-.52-.1ZM40.69,60.7c-.08.03-.12.13-.09.21.03.08.13.12.21.09s.12-.13.09-.21c-.03-.08-.13-.12-.21-.09ZM40.62,57.25s-.02.01-.03.03c.01,0,.03-.02.05-.03,0,0-.02,0-.02,0ZM39.01,54.31c-.45-.38-1.12-.34-1.51.11-.38.45-.33,1.13.12,1.51s1.12.33,1.51-.12c.39-.45.34-1.12-.11-1.51ZM37.03,56.65c-.23-.54-.86-.79-1.4-.56-.54.23-.8.86-.56,1.4.23.54.86.8,1.4.56.54-.23.79-.86.56-1.4ZM45.14,47.29s.05-.05.07-.07c-.08-.03-.09,0-.07.07ZM50.19,53.51c-.43-.4-1.11-.37-1.51.07-.4.44-.37,1.11.07,1.51.44.4,1.11.37,1.51-.07.4-.43.37-1.11-.07-1.51ZM37.03,56.65c-.23-.54-.86-.79-1.4-.56-.54.23-.8.86-.56,1.4.23.54.86.8,1.4.56.54-.23.79-.86.56-1.4ZM40.69,60.7c-.08.03-.12.13-.09.21.03.08.13.12.21.09s.12-.13.09-.21c-.03-.08-.13-.12-.21-.09ZM47.78,60.14c-.09-.03-.17.02-.19.11-.03.08.02.17.11.19.08.03.17-.03.19-.11.03-.09-.03-.17-.11-.19ZM52.25,54.95c-.56-.16-1.16.16-1.32.73-.16.56.17,1.16.73,1.32.57.16,1.16-.16,1.32-.73.17-.56-.16-1.16-.73-1.32ZM39.01,54.31c-.45-.38-1.12-.34-1.51.11-.38.45-.33,1.13.12,1.51s1.12.33,1.51-.12c.39-.45.34-1.12-.11-1.51ZM42.97,57.44h.02-.02ZM43.59,57.61c-.12-.03-.34-.09-.6-.15.04.02.08.03.11.05.38.14.71.28,1.01.41l.06-.13c-.19-.06-.38-.11-.58-.17ZM52.25,54.95c-.56-.16-1.16.16-1.32.73-.16.56.17,1.16.73,1.32.57.16,1.16-.16,1.32-.73.17-.56-.16-1.16-.73-1.32ZM50.19,53.51c-.43-.4-1.11-.37-1.51.07-.4.44-.37,1.11.07,1.51.44.4,1.11.37,1.51-.07.4-.43.37-1.11-.07-1.51ZM47.78,60.14c-.09-.03-.17.02-.19.11-.03.08.02.17.11.19.08.03.17-.03.19-.11.03-.09-.03-.17-.11-.19ZM43.59,57.61c-.12-.03-.34-.09-.6-.15.04.02.08.03.11.05.38.14.71.28,1.01.41l.06-.13c-.19-.06-.38-.11-.58-.17ZM40.69,60.7c-.08.03-.12.13-.09.21.03.08.13.12.21.09s.12-.13.09-.21c-.03-.08-.13-.12-.21-.09ZM39.01,54.31c-.45-.38-1.12-.34-1.51.11-.38.45-.33,1.13.12,1.51s1.12.33,1.51-.12c.39-.45.34-1.12-.11-1.51ZM37.03,56.65c-.23-.54-.86-.79-1.4-.56-.54.23-.8.86-.56,1.4.23.54.86.8,1.4.56.54-.23.79-.86.56-1.4ZM45.14,47.29s.05-.05.07-.07c-.08-.03-.09,0-.07.07ZM50.19,53.51c-.43-.4-1.11-.37-1.51.07-.4.44-.37,1.11.07,1.51.44.4,1.11.37,1.51-.07.4-.43.37-1.11-.07-1.51ZM37.03,56.65c-.23-.54-.86-.79-1.4-.56-.54.23-.8.86-.56,1.4.23.54.86.8,1.4.56.54-.23.79-.86.56-1.4ZM40.69,60.7c-.08.03-.12.13-.09.21.03.08.13.12.21.09s.12-.13.09-.21c-.03-.08-.13-.12-.21-.09ZM47.78,60.14c-.09-.03-.17.02-.19.11-.03.08.02.17.11.19.08.03.17-.03.19-.11.03-.09-.03-.17-.11-.19ZM52.25,54.95c-.56-.16-1.16.16-1.32.73-.16.56.17,1.16.73,1.32.57.16,1.16-.16,1.32-.73.17-.56-.16-1.16-.73-1.32ZM39.01,54.31c-.45-.38-1.12-.34-1.51.11-.38.45-.33,1.13.12,1.51s1.12.33,1.51-.12c.39-.45.34-1.12-.11-1.51ZM52.25,54.95c-.56-.16-1.16.16-1.32.73-.16.56.17,1.16.73,1.32.57.16,1.16-.16,1.32-.73.17-.56-.16-1.16-.73-1.32ZM50.19,53.51c-.43-.4-1.11-.37-1.51.07-.4.44-.37,1.11.07,1.51.44.4,1.11.37,1.51-.07.4-.43.37-1.11-.07-1.51ZM47.78,60.14c-.09-.03-.17.02-.19.11-.03.08.02.17.11.19.08.03.17-.03.19-.11.03-.09-.03-.17-.11-.19ZM40.69,60.7c-.08.03-.12.13-.09.21.03.08.13.12.21.09s.12-.13.09-.21c-.03-.08-.13-.12-.21-.09ZM39.01,54.31c-.45-.38-1.12-.34-1.51.11-.38.45-.33,1.13.12,1.51s1.12.33,1.51-.12c.39-.45.34-1.12-.11-1.51ZM37.03,56.65c-.23-.54-.86-.79-1.4-.56-.54.23-.8.86-.56,1.4.23.54.86.8,1.4.56.54-.23.79-.86.56-1.4ZM45.14,47.29s.05-.05.07-.07c-.08-.03-.09,0-.07.07ZM50.19,53.51c-.43-.4-1.11-.37-1.51.07-.4.44-.37,1.11.07,1.51.44.4,1.11.37,1.51-.07.4-.43.37-1.11-.07-1.51ZM47.78,60.14c-.09-.03-.17.02-.19.11-.03.08.02.17.11.19.08.03.17-.03.19-.11.03-.09-.03-.17-.11-.19ZM52.25,54.95c-.56-.16-1.16.16-1.32.73-.16.56.17,1.16.73,1.32.57.16,1.16-.16,1.32-.73.17-.56-.16-1.16-.73-1.32ZM52.25,54.95c-.56-.16-1.16.16-1.32.73-.16.56.17,1.16.73,1.32.57.16,1.16-.16,1.32-.73.17-.56-.16-1.16-.73-1.32ZM50.19,53.51c-.43-.4-1.11-.37-1.51.07-.4.44-.37,1.11.07,1.51.44.4,1.11.37,1.51-.07.4-.43.37-1.11-.07-1.51ZM47.78,60.14c-.09-.03-.17.02-.19.11-.03.08.02.17.11.19.08.03.17-.03.19-.11.03-.09-.03-.17-.11-.19ZM45.14,47.29s.05-.05.07-.07c-.08-.03-.09,0-.07.07ZM45.14,47.29s.05-.05.07-.07c-.08-.03-.09,0-.07.07ZM45.14,47.29s.05-.05.07-.07c-.08-.03-.09,0-.07.07ZM45.14,47.29s.05-.05.07-.07c-.08-.03-.09,0-.07.07ZM45.14,47.29s.05-.05.07-.07c-.08-.03-.09,0-.07.07Z"/>
      <path class="cls-7" d="M47.58,10.08v.33c-1.18-.22-2.39-.33-3.63-.33s-2.45.11-3.62.33v-.33c-9.61,1.72-16.92,10.13-16.92,20.22v29.55c0,10.09,7.31,18.51,16.92,20.23v-.33c1.18.21,2.39.33,3.62.33s2.45-.12,3.63-.33v.33c9.61-1.72,16.92-10.13,16.92-20.23v-29.55c0-10.09-7.31-18.5-16.92-20.22ZM63.4,59.53c0,10.73-8.72,19.45-19.45,19.45s-19.45-8.73-19.45-19.45v-28.9c0-10.73,8.72-19.45,19.45-19.45s19.45,8.73,19.45,19.45v28.9Z"/>
      <g>
        <path class="cls-1" d="M45.14,47.29h0c-.3-.12-.6-.24-.9-.36.34.04.69.2.97.3-.08-.03-.09,0-.07.07Z"/>
        <path class="cls-8" d="M44.91,64.7l.05-.06-.56-.63-.49.71-2.2,3.19c-.15.22,0,.36.17.54l.3-.36-.13-.11s-.02-.04,0-.06.04-.02.06,0l.13.11.1-.13-.17-.13s-.02-.05,0-.07c.01-.01.04-.02.06,0l.17.14.1-.13-.17-.14s-.02-.04,0-.06.04-.02.06,0l.17.14.1-.13-.18-.15s-.03-.05,0-.06c.01-.02.04-.03.06,0l.19.15.1-.13-.2-.16s-.03-.05,0-.06c.01-.02.04-.03.06,0l.2.16.1-.13-.23-.18s-.02-.05,0-.06c.02-.02.05-.03.06,0l.23.18.11-.13-.26-.21s-.02-.05,0-.06c.01-.02.04-.03.06,0l.26.21.1-.13-.26-.21s-.02-.05,0-.07c.01-.01.04-.02.06,0l.26.22.11-.13-.28-.23s-.02-.04,0-.06c.01-.01.04-.02.06,0l.28.23.1-.13-.29-.24s-.03-.04,0-.06c.01-.02.04-.03.06,0l.29.24.11-.13-.3-.24s-.02-.05,0-.06c.01-.02.04-.03.06,0l.3.24.1-.13-.31-.25s-.02-.04,0-.06c.02-.02.05-.02.07,0l.3.25.11-.13-.3-.24s-.03-.04,0-.06c.01-.02.04-.02.06,0l.3.24.1-.12-.31-.25s-.02-.05,0-.06c.01-.02.04-.03.06,0l.31.24.11-.13-.34-.26s-.02-.04,0-.06c.02-.02.05-.02.06,0l.34.26.1-.13h0l-.13-.11-.07-.05-.13-.1s-.03-.04,0-.06c.01-.02.04-.02.06,0h0l.13.11.07.05.13.1.11-.13-.12-.09-.07-.05-.13-.1h-.02s-.02-.06,0-.07c.01-.02.04-.03.06,0l.03.02.13.1.05.05h0l.11.09.1-.13-.34-.26s-.02-.05,0-.06c.01-.02.05-.03.06-.01l.34.27h-.02ZM46.29,61.26l-.05.07c.02.09.05.17.07.26,0-.1-.01-.22-.02-.33Z"/>
        <path class="cls-8" d="M47.66,67.69l-2.7-3.05-.56-.63-.49.71.3-.31s.05-.02.06,0c.02.01.02.04,0,.06l-.3.31.12.11.3-.31s.04-.01.06,0c.01.02.01.05,0,.06l-.07.07-.11.12-.06.06-.06.06.12.11.07-.07.06-.06.11-.12.05-.05s0,0,.01,0c.02,0,.03,0,.05,0,.01.01.02.03,0,.04h0s0,.01-.01.02l-.05.05-.11.12-.06.06-.07.08.11.11.09-.09.22-.22s.04-.01.06,0c.02.02.02.05,0,.07l-.3.3.11.11.3-.3s.05-.02.07,0c.01.01.01.04,0,.06l-.3.3.11.11.28-.28s.05-.02.07,0c.01.02.01.05,0,.07l-.28.28.12.11.26-.28s.05-.01.07,0c.01.02.01.05,0,.06l-.27.28.12.11.28-.28s.04-.02.06,0c.01.01.01.04,0,.06l-.28.28.11.11.27-.27s.04-.02.06,0c.01.01.02.04,0,.06l-.26.27.11.11.26-.27s.05-.02.07,0c.01.01.01.04,0,.06l-.26.27.11.11.25-.26s.05-.02.07,0c.01.01.01.04,0,.06l-.26.26.12.11.24-.24s.05-.02.06,0c.02.01.02.04,0,.06l-.24.24.12.11.24-.24s.04-.01.06,0c.01.02.01.05,0,.06l-.24.24.11.11.21-.21s.05-.02.06,0c.02.01.02.04,0,.06l-.2.21.11.11.18-.19s.05-.02.07,0c.01.01.01.05,0,.06l-.18.19.11.11.17-.17s.05-.01.06,0c.02.02.02.05,0,.06l-.17.17.12.11.15-.16s.05-.01.06,0c.02.02.02.05,0,.06l-.15.16.12.11.15-.16s.04-.01.06,0c.01.02.01.05,0,.06l-.15.16.11.11.12-.13s.05-.01.07,0c.01.02.01.05,0,.06l-.12.13.33.32c.17-.19.29-.35.11-.56h0Z"/>
        <g>
          <path class="cls-5" d="M46.29,61.26l-.05.07c.02.09.05.17.07.26,0-.1-.01-.22-.02-.33ZM45.8,56.28v.17h.17c-.05-.06-.11-.11-.17-.17ZM44.77,55.45s-.01.09-.02.13l.17.03s0-.03,0-.05c-.05-.04-.1-.08-.15-.12ZM43.72,54.74l-.02.13c.09.01.18.03.26.03-.09-.05-.15-.11-.24-.16ZM42.86,54.27s.01.06.02.09l.12-.03s-.09-.05-.14-.07ZM41.47,53.65s-.01-.01-.03-.02c-.05-.03-.11-.05-.16-.07l-.02.1c.09.04.19.09.3.13,0-.04-.02-.09-.09-.14ZM42.73,55.46v.05c.06.04.11.07.17.11v-.15s-.17,0-.17,0ZM44.08,56.58c-.08-.03-.16-.07-.25-.1.05.07.09.15.11.23l.17-.05s-.01-.05-.03-.07Z"/>
          <path class="cls-5" d="M40.88,55.95c-.15-.03-.3-.07-.44-.1v-.05c.05.01.15.03.28.05.07.03.12.07.15.11Z"/>
          <path class="cls-5" d="M42.7,56.16c.06.01.11.03.17.04v.09h-.18v-.13h0Z"/>
          <path class="cls-5" d="M44.11,56.65l-.17.05c-.02-.07-.06-.15-.11-.23.09.03.17.07.25.1.01.02.02.05.03.07Z"/>
          <path class="cls-5" d="M40.22,56.11s-.09-.03-.13-.05l.07-.05s.03.07.05.09Z"/>
          <path class="cls-5" d="M42.98,57.33v.11h-.03c-.05-.02-.1-.04-.15-.06v-.06s.18,0,.18,0Z"/>
          <path class="cls-5" d="M44.17,57.77l-.06.13c-.3-.13-.63-.27-1.01-.41-.03-.01-.07-.03-.11-.05.26.07.48.12.6.15.2.05.4.11.58.17Z"/>
          <path class="cls-5" d="M43.59,57.61c-.12-.03-.34-.09-.6-.15.04.02.08.03.11.05.38.14.71.28,1.01.41l.06-.13c-.19-.06-.38-.11-.58-.17ZM42.97,57.44h-.02s-.1-.03-.15-.04v.13h.17s0-.09,0-.09h.03-.02ZM40.62,57.25s-.02.01-.03.03c.01,0,.03-.02.05-.03,0,0-.02,0-.02,0ZM42.61,58.49v.02c.07.02.13.03.2.05v-.03l-.2-.04Z"/>
          <path class="cls-5" d="M42.81,58.53v.03c-.07-.02-.13-.03-.2-.05v-.02l.2.04Z"/>
          <polygon class="cls-9" points="42.98 57.33 42.97 57.44 42.97 57.45 42.97 57.55 42.79 57.54 42.8 57.4 42.8 57.38 42.8 57.32 42.98 57.33"/>
          <polygon class="cls-5" points="42.9 55.47 42.9 55.62 42.88 56.2 42.87 56.3 42.7 56.29 42.7 56.16 42.73 55.51 42.73 55.46 42.9 55.47"/>
          <path class="cls-5" d="M44.79,53.1c0-.11,0-.22,0-.31,0-.12,0-.23.01-.33h0c.01.16.01.38-.01.64Z"/>
          <path class="cls-5" d="M44.93,55.57s0,.03,0,.05l-.17-.03s.01-.09.02-.13c.05.04.1.08.15.12Z"/>
          <path class="cls-5" d="M45.42,51.55s-.05.03-.07.05c0-.01,0-.03,0-.04.02,0,.05,0,.07,0Z"/>
          <path class="cls-5" d="M45.62,52.1s.03.07.04.12c0,.09,0,.19-.01.28,0,.06-.01.05-.01-.01,0-.06-.01-.12-.03-.17v-.22Z"/>
          <path class="cls-5" d="M45.98,56.44h0s-.17.01-.17.01v-.17c.06.05.12.11.17.16Z"/>
          <path class="cls-6" d="M45.38,51.29c-.01.09-.03.19-.03.27,0,.01,0,.03,0,.04,0,.11,0,.22,0,.32.01.07.03.13.04.19.02.06.04.11.07.16.05.09.11.16.17.22.04.04.05.04.01.01.01-.09.02-.19.01-.28h0c-.01-.37-.13-.76-.28-.93ZM45.55,52.32s-.16-.64-.13-.77c.06.09.17.64.13.77Z"/>
          <path class="cls-6" d="M41.31,53.79c-.06,0-.59-.29-.67-.4.11.02.6.28.67.4Z"/>
          <path class="cls-6" d="M41.55,53.8c-.1-.05-.2-.09-.3-.13l.02-.1c.05.03.11.05.16.07.01,0,.02.01.03.02.07.05.09.1.09.14Z"/>
          <path class="cls-6" d="M40.16,56.02s.03.07.05.09c-.05-.01-.09-.03-.13-.05l.07-.05Z"/>
          <path class="cls-6" d="M40.06,55.95c.09-.02.56.05.65.13-.05.01-.56-.07-.65-.13Z"/>
          <path class="cls-6" d="M40.44,55.85v-.05c.05.01.15.03.28.05.07.03.12.07.15.11-.15-.03-.3-.07-.44-.1Z"/>
          <path class="cls-6" d="M40.64,57.25s-.03.02-.05.03c0-.01.01-.02.03-.03,0,0,.02,0,.02,0Z"/>
          <path class="cls-6" d="M41.02,57.57s-.45-.05-.52-.1c.07-.01.45.05.52.1Z"/>
          <path class="cls-5" d="M42.86,54.27s.01.06.02.09l.12-.03s-.09-.05-.14-.07Z"/>
          <path class="cls-5" d="M43.96,54.9c-.08,0-.17-.01-.26-.03l.02-.13c.09.05.15.11.24.16Z"/>
          <path class="cls-5" d="M44.97,53.07c-.01-.24,0-.45,0-.63.02.15.01.38,0,.63Z"/>
          <path class="cls-5" d="M44.08,52.54c-.38.07-.79.05-1.17-.02v-.03c.05-.03.11-.05.16-.09,0,0,.01,0,.02-.01.32.07.73.15.99.15Z"/>
          <polygon class="cls-6" points="42.04 50.4 42.16 50.81 42.23 51.05 42.45 51.11 42.87 51.23 42.45 51.35 42.23 51.41 42.16 51.65 42.04 52.06 41.92 51.65 41.86 51.41 41.63 51.35 41.21 51.23 41.63 51.11 41.86 51.05 41.92 50.81 42.04 50.4"/>
          <polygon class="cls-6" points="42.73 49.09 42.8 49.33 42.83 49.46 42.97 49.5 43.21 49.57 42.97 49.64 42.83 49.67 42.8 49.8 42.73 50.04 42.66 49.8 42.63 49.67 42.49 49.64 42.25 49.57 42.49 49.5 42.63 49.46 42.66 49.33 42.73 49.09"/>
          <polygon class="cls-6" points="41.45 49.68 41.51 49.92 41.55 50.05 41.68 50.09 41.92 50.16 41.68 50.22 41.55 50.26 41.51 50.4 41.45 50.63 41.38 50.4 41.34 50.26 41.2 50.22 40.97 50.16 41.2 50.09 41.34 50.05 41.38 49.92 41.45 49.68"/>
          <path class="cls-4" d="M41.02,57.57s-.45-.05-.52-.1c.07-.01.45.05.52.1Z"/>
          <path class="cls-4" d="M40.71,56.07s-.56-.07-.65-.13c.09-.02.56.05.65.13Z"/>
          <path class="cls-4" d="M41.31,53.79c-.06,0-.59-.29-.67-.4.11.02.6.28.67.4Z"/>
          <path class="cls-6" d="M43.02,53.37c.02.28.07.56.13.87.08.04.17.09.26.14h0c.11.05.22.12.34.19.14.02.27.03.38.02.12,0,.22-.03.26-.05.09-.18.16-.52.22-.88,0-.02,0-.04,0-.06-.62-.06-.77-.4-1.6-.24h0Z"/>
        </g>
      </g>
      <path class="cls-3" d="M50.88,31.65c-.36-1.2-1-2.22-1.82-3.15-.95-1.06-1.92-2.08-2.65-3.31-.58-.96-1.01-1.98-1.28-3.06-.01-.06,0-.11,0-.26.36.85.69,1.61,1.13,2.33.71,1.18,1.55,2.25,2.47,3.27,1.03,1.13,2.02,2.28,2.54,3.76.5,1.45.47,2.94.4,4.44-.13-1.36-.4-2.7-.79-4.01h0Z"/>
    </g>
    <g>
      <path class="cls-3" d="M45.08,9.66c-.5,1.46-1,2.88-1.49,4.29-.11,0-.08-.09-.1-.14-.46-1.3-.91-2.6-1.36-3.9-.06-.18-.07-.25.16-.25.92.01,1.83,0,2.79,0"/>
      <path class="cls-3" d="M44.16,13.46c.42-1.22.85-2.44,1.27-3.66.05-.13.12-.13.23-.13h1.38c-.96,1.3-1.9,2.57-2.83,3.83-.01-.01-.03-.03-.05-.03"/>
      <path class="cls-3" d="M42.96,13.48s-.06,0-.09-.03c-.92-1.25-1.84-2.49-2.8-3.79h1.48c.11,0,.11.09.13.15.42,1.22.84,2.45,1.26,3.67h0,0Z"/>
      <path class="cls-3" d="M40.08,9.28c.38-.52.73-1.01,1.09-1.49.03-.05.08-.07.14-.07h1.8c-.48.53-.92,1.01-1.36,1.5-.05.05-.1.07-.17.07h-1.49"/>
      <path class="cls-3" d="M47.04,9.28h-1.49c-.07,0-.13-.02-.17-.07-.44-.48-.89-.97-1.36-1.49h1.81c.06,0,.11.03.14.07.35.48.71.97,1.09,1.5"/>
      <path class="cls-3" d="M44.9,9.28h-2.68c.33-.37.63-.7.93-1.03.27-.3.54-.3.81,0,.3.33.6.66.93,1.03"/>
      <path class="cls-3" d="M43.05,13.48l.03.04h-.03s0-.03.01-.05h0"/>
    </g>
  </g>
</svg>