<?xml version="1.0" encoding="UTF-8"?>
<svg xmlns="http://www.w3.org/2000/svg" viewBox="0 0 690.37 489.25">
  <defs>
    <style>
      .cls-1 {
        fill: #fff;
      }

      .cls-2 {
        fill: none;
        stroke: #000;
        stroke-miterlimit: 10;
        stroke-width: 17px;
      }

      .cls-3 {
        fill: #f72a73;
      }

      .cls-4 {
        fill: #f6e24d;
      }
    </style>
  </defs>
  <g id="Layer_1" data-name="Layer 1" focusable="false">
    <path class="cls-1" d="M685.72,282.28c-.31,4.67-6.6,5.59-6.6,5.59l-7.82.53-23.76-.92c-14.5-.84-22.93,1.61-22.93,1.61-1.97,1.54-1.91,4.99-1.91,4.99l-.06,5.67c-.15,5.14-1.53,14.8-1.53,14.8-1.38,9.66-1.61,14.57-1.61,14.57-.31,1.3,1.23,2.75,1.23,2.75,1.45,1.39,3.29,1.77,3.29,1.77l4.29.54,6.9,1.07,7.82,1.3c13.34,2.38,23.69,8.43,23.69,8.43,1.54.85,1.54,3.45,1.54,3.45,0,2.61-1.38,3.69-1.38,3.69-3.07,1.91-8.66,1.91-8.66,1.91l-8.97-.31-15.19-2.07-15.48-.92c-3.53.69-5.21,4.6-5.21,4.6l-2.53,6.67-5.3,12.19-5.36,12.04c-.8,1.3-.29,2.91-.29,2.91.69,2,3.37,3.38,3.37,3.38l20.63,10.12c12.57,6.13,20.01,11.42,20.01,11.42,4.44,3.99,3.14,8.59,3.14,8.59-.07,1.99-1.53,3.52-1.53,3.52-1.69,1.84-4.29,1.69-4.29,1.69-7.06-1.07-16.95-5.6-16.95-5.6l-16.48-7.28c-2.15-.69-7.44-3.22-7.44-3.22-4.68-2.15-7.51-2.84-7.51-2.84l-4.6.08c-2.3.76-3.68,2.3-3.68,2.3-9.12,10.2-19.93,19.7-19.93,19.7-16.03,12.73-25,18.56-25,18.56-12.65,8.28-26.83,13.95-26.83,13.95-14.49,5.82-31.05,10.5-31.05,10.5-22.85,6.44-43.78,8.82-43.78,8.82-13.34,2.61-35.88,4.29-35.88,4.29-45,3.45-90.54-.69-90.54-.69l-38.64-3.75c-26.37-2.99-44.09-7.29-44.09-7.29-19.09-4.67-42.85-14.33-42.85-14.33-19.25-7.9-42.71-24.08-42.71-24.08-9.12-6.28-24.99-18.7-24.99-18.7-1.99-1.85-4.75-1.92-4.75-1.92-2.53,0-4.52,1.23-4.52,1.23-9.05,3.68-21.85,11.65-21.85,11.65l-21.39,13.19c-2.15,1.61-4.91,1.99-4.91,1.99-2.99.38-5.75-.77-5.75-.77-1.71-1.22-1.99-3.98-1.99-3.98v-4.6c1.99-3.99,7.97-8.97,7.97-8.97,4.3-3.61,8.44-6.06,8.44-6.06,17.48-9.89,25.91-15.26,25.91-15.26,2.76-1.45,3.22-4.29,3.22-4.29.38-2.61-1.15-4.22-1.15-4.22-2.92-3.6-3.53-5.06-3.53-5.06l-6.59-10.65-6.13-10.81c-4.68-4.76-12.43-3.69-12.43-3.69l-13.95,2.92c-5.6,1.84-12.65,2.99-12.65,2.99-3.91.61-7.36-1.15-7.36-1.15-3.01-1.54-3.3-3.3-3.3-3.3-.3-1.84.85-4.14.85-4.14,1.38-2.61,3.83-3.45,3.83-3.45,5.75-3.6,14.65-6.36,14.65-6.36l15.33-4.45c2.99-1.15,3.91-3.22,3.91-3.22.78-1.84-.06-4.06-.06-4.06-1.99-6.21-4.52-18.17-4.52-18.17-2.68-12.81-4.29-18.4-4.29-18.4-1.53-2.68-5.52-2.92-5.52-2.92l-6.9.15-18.78,1.61-13.42,1.46c-8.05.99-13.65.07-13.65.07-2.59-1.07-2.99-3.98-2.99-3.98.15-6.98,5.44-9.2,5.44-9.2,6.75-3.22,18.18-4.53,18.18-4.53l18.93-2.14,14.8-1.38c2.91-1.92,2.91-6.83,2.91-6.83-.11-7.51.06-8.2.06-8.2,1.53-48.61,29.82-97.67,29.82-97.67,1.54-2.84.7-5.45.7-5.45-5.3-19.16-7.06-28.13-7.06-28.13-3.21-15.87-2.76-29.14-2.76-29.14,1.38-21.31,6.29-36.26,6.29-36.26,7.05-22.85,22-40.4,22-40.4,12.35-10.28,33.2-8.21,33.2-8.21,7.36.77,17.79,3.3,17.79,3.3l16.79,4.29c32.5,10.66,54.58,22.08,54.58,22.08,4.6,2.45,11.66,2,11.66,2,24.84-5.45,48.45-6.67,48.45-6.67l20.01-.69c13.42-.92,20.47-.54,20.47-.54h8.59c4.04.02,8.05.09,11.46.15l2.36-4.43c9.84-15,22.12-26.17,22.64-26.64l1.09-.98.24-.1c12.82-10.9,27.6-14.39,28.25-14.53,3.86-.9,7.91-1.36,12-1.36h30.6l-7.55,4.54c14.53,6.69,26.04,19.25,31.78,26.4l.4.49,3.75,6.43,10.58-6.43c10.89-5.44,18.94-8.66,18.94-8.66,8.89-3.61,19.7-6.75,19.7-6.75l18.17-3.53c10.81-1.45,19.25.08,19.25.08,8.97,1.99,16.02,10.2,16.02,10.2,4.06,4.67,10.12,15.64,10.12,15.64,7.65,17.33,11.02,41.06,12.36,53.65l2.69.41,4.07.96c11.46,2.92,19.4,11.57,20.27,12.54,8.04,9.14,9.74,19.79,9.97,21.51.97,6.62.85,13.32.84,14.12-.34,25.09-11.98,49.84-12.48,50.88l-.79,1.61c-7.17,12.34-12.04,19.13-12.25,19.41l-.28.39-3.02,3.33c3.91,10.5,5.68,18.91,5.68,18.91l4.76,30.44c.15,1.68,1.3,3.14,1.3,3.14,1.3,1.76,3.07,1.69,3.07,1.69,1.61.3,4.83,0,4.83,0l5.44-.31,19.09.53,17.86,1.99c6.6,2.53,7.06,2.84,7.06,2.84,3.9,2.15,4.6,5.83,4.6,5.83Z"/>
    <path d="M489.37,297.06c-3.69-1.92-8.59-2.3-8.59-2.3-5.06-.39-8.97,1.15-8.97,1.15-4.75,2.14-8.13,7.36-8.13,7.36-2.98,4.6-4.13,10.27-4.13,10.27-.75,8.2-.23,13.26-.23,13.26.68,7.29,4.14,12.12,4.14,12.12,3.6,4.98,9.12,7.13,9.12,7.13,5.67,2.22,11.27.53,11.27.53,11.96-3.75,14.8-22.23,14.8-22.23h-.01c2-18.17-9.27-27.29-9.27-27.29ZM375.98,362.68c-.62-4.9-3.45-9.04-3.45-9.04-2.92-4.22-7.21-6.21-7.21-6.21-9.12-5.44-20.93-5.68-20.93-5.68-12.11-.23-20.7,5.45-20.7,5.45-4.44,2.22-7.36,6.74-7.36,6.74-2.53,4.14-3.22,9.2-3.22,9.2-.84,6.67,1.61,12.04,1.61,12.04,2.53,5.6,8.05,8.36,8.05,8.36,10.66,5.21,22.08,5.59,22.08,5.59,12.8.46,21.93-5.67,21.93-5.67,5.14-3.53,7.51-8.97,7.51-8.97,2.46-5.44,1.69-11.81,1.69-11.81ZM220.73,312.24c-1.3-8.36-6.21-13.57-6.21-13.57-4.29-3.3-8.89-4.45-8.89-4.45-5.45-1.38-10.12.54-10.12.54h-.01c-4.14,1.3-7.66,5.29-7.66,5.29-3.3,3.6-4.76,7.9-4.76,7.9-2.76,8.97-2.07,17.4-2.07,17.4.77,9.66,5.98,15.87,5.98,15.87,3.84,4.14,10.2,5.21,10.2,5.21,5.9.92,11.73-1.07,11.73-1.07,4.99-2.15,8.2-7.36,8.2-7.36,2.62-4.37,3.61-10.2,3.61-10.2.99-9.12,0-15.56,0-15.56ZM220.73,312.24c-1.3-8.36-6.21-13.57-6.21-13.57-4.29-3.3-8.89-4.45-8.89-4.45-5.45-1.38-10.12.54-10.12.54h-.01c-4.14,1.3-7.66,5.29-7.66,5.29-3.3,3.6-4.76,7.9-4.76,7.9-2.76,8.97-2.07,17.4-2.07,17.4.77,9.66,5.98,15.87,5.98,15.87,3.84,4.14,10.2,5.21,10.2,5.21,5.9.92,11.73-1.07,11.73-1.07,4.99-2.15,8.2-7.36,8.2-7.36,2.62-4.37,3.61-10.2,3.61-10.2.99-9.12,0-15.56,0-15.56ZM375.98,362.68c-.62-4.9-3.45-9.04-3.45-9.04-2.92-4.22-7.21-6.21-7.21-6.21-9.12-5.44-20.93-5.68-20.93-5.68-12.11-.23-20.7,5.45-20.7,5.45-4.44,2.22-7.36,6.74-7.36,6.74-2.53,4.14-3.22,9.2-3.22,9.2-.84,6.67,1.61,12.04,1.61,12.04,2.53,5.6,8.05,8.36,8.05,8.36,10.66,5.21,22.08,5.59,22.08,5.59,12.8.46,21.93-5.67,21.93-5.67,5.14-3.53,7.51-8.97,7.51-8.97,2.46-5.44,1.69-11.81,1.69-11.81ZM603.01,92.06c-1.34-12.59-4.71-36.32-12.36-53.65,0,0-6.06-10.97-10.12-15.64,0,0-7.05-8.21-16.02-10.2,0,0-8.44-1.53-19.25-.08l-18.17,3.53s-10.81,3.14-19.7,6.75c0,0-8.05,3.22-18.94,8.66l-10.58,6.43-6.59,4s-1.49-2.26-4.18-5.6l6.98,11.95,7.42,12.71c2.67-1.5,5.16-2.86,7.46-4.08,15.21-8.11,22.44-10.49,22.44-10.49,9.81-3.83,20.31-7.28,20.31-7.28,13.27-4.37,18.63-4.91,18.63-4.91l8.04-.53c5.28.63,7.81,5.45,7.81,5.45,5.52,8.28,8.66,16.4,8.66,16.4,2.84,7.29,4.76,17.33,4.76,17.33l2.14,14.18.25,2.13.98,8.53,20.78,3.09s-.2-3.34-.75-8.68ZM489.37,297.06c-3.69-1.92-8.59-2.3-8.59-2.3-5.06-.39-8.97,1.15-8.97,1.15-4.75,2.14-8.13,7.36-8.13,7.36-2.98,4.6-4.13,10.27-4.13,10.27-.75,8.2-.23,13.26-.23,13.26.68,7.29,4.14,12.12,4.14,12.12,3.6,4.98,9.12,7.13,9.12,7.13,5.67,2.22,11.27.53,11.27.53,11.96-3.75,14.8-22.23,14.8-22.23h-.01c2-18.17-9.27-27.29-9.27-27.29ZM681.12,276.45s-.46-.31-7.06-2.84l-17.86-1.99-19.09-.53-5.44.31s-3.22.3-4.83,0c0,0-1.77.07-3.07-1.69,0,0-1.15-1.46-1.3-3.14l-4.76-30.44s-1.77-8.41-5.68-18.91c-1.04-2.79-2.24-5.73-3.59-8.69l-15.75,17.38,1.99,6.44c.23.75.46,1.5.68,2.26,4.86,16.64,6.68,35.08,6.68,35.08,0,3.3-2.38,4.6-2.38,4.6-2.76,1.15-7.97,1.76-7.97,1.76l-8.2,1.23-7.9,1.76c-4.75,1-8.36,2.84-8.36,2.84-3.9,2.91-2.91,7.44-2.91,7.44,2.07,5.29,8.28,5.59,8.28,5.59l12.27-1.61,12.26-1.76.85.07c2.3.24,2.91.77,2.91.77,1.31,1,1.08,4.14,1.08,4.14.28,8.43-.46,12.42-.46,12.42-1.23,10.5-2.99,20.32-2.99,20.32-1.23,1.99-4.36,2.07-4.36,2.07l-5.14-.31-9.2.38c-4.29,1.3-5.44,5.83-5.44,5.83-.17,4.14,5.44,6.59,5.44,6.59l9.97,2.92c1.53.45,2.22,1.84,2.22,1.84.85,1.76-.23,4.36-.23,4.36-3.68,11.89-12.5,26.99-12.5,26.99-2.37,5.45-8.35,3.91-8.35,3.91l-9.28-2.07c-5.37-.99-8.89,1.54-8.89,1.54-1.69.92-2.15,3.22-2.15,3.22-.4,1.99.23,3.68.23,3.68,1.07,3.22,4.67,5.44,4.67,5.44,2.07,1.3,6.52,3.45,6.52,3.45,1.23.84,1.38,2.15,1.38,2.15.17,1.3-1,2.76-1,2.76-6.59,8.43-16.87,16.33-16.87,16.33-7.28,5.44-19.08,12.57-19.08,12.57-33.81,19.17-71.77,25.38-71.77,25.38-24.15,6.13-66.16,8.43-66.16,8.43-51.9,2.91-100.74-2.61-100.74-2.61-23.46-1.84-45.23-7.05-45.23-7.05-8.36-1.99-33.12-9.35-33.12-9.35-17.94-5.37-37.42-16.56-37.42-16.56-15.94-9.13-34.57-23.23-34.57-23.23-.85-.54-.23-2.3-.23-2.3,1.99-2.07,8.74-5.37,8.74-5.37,5.75-2.84,7.82-6.44,7.82-6.44.4-2.99-1.08-5.44-1.08-5.44-1.68-2.84-4.82-2.99-4.82-2.99-5.14-.24-10.51,1.68-10.51,1.68l-9.89,4.14c-7.66,1.46-11.34-3.22-11.34-3.22l-8.44-11.5c-4.44-6.67-7.05-12.34-7.05-12.34-.92-1.76,0-3.45,0-3.45.84-1.53,2.76-2.38,2.76-2.38,6.21-1.68,15.95-5.21,15.95-5.21,2.14-1.53,2.37-2.53,2.37-2.53.61-2.38-.17-4.52-.17-4.52-.92-2.46-3.52-3.15-3.52-3.15l-8.97-.61-10.12,1.08c-4.14,1.53-6.75-.77-6.75-.77-7.44-16.1-8.82-31.74-8.82-31.74v-3.37c-.06-2.23,1.08-3.45,1.08-3.45,1.14-1.23,3.21-1.31,3.21-1.31l7.06.15,6.97.54c2.92-.31,10.2,0,10.2,0,5.98-.54,7.21-5.52,7.21-5.52.23-4.52-4.45-6.52-4.45-6.52-5.82-1.61-8.13-2.68-8.13-2.68l-10.81-1.69-10.65-1.15c-1.3-.15-2.61-1.38-2.61-1.38-1.23-1.15-1.99-2.6-1.99-2.6.51-45.01,18.86-84.65,18.86-84.65,3.68-9.73,11.34-21.69,11.34-21.69l13.96-20.55c2.15-4.6,1.23-8.28,1.23-8.28-1.31-4.29-5.68-4.91-5.68-4.91-2.45-.45-5.06.69-5.06.69l-4.37,2.53c-2.15.69-3.07-.92-3.07-.92-2.83-5.44-4.52-12.57-4.52-12.57-1.3-5.52-2.14-13.57-2.14-13.57.45-20.09,4.6-35.04,4.6-35.04,4.82-17.63,15.41-30.36,15.41-30.36,6.13-6.28,18.09-6.05,18.09-6.05h.03c5.98.15,19.63,3.07,19.63,3.07,34.12,8.66,66.93,27.91,66.93,27.91,7.36,4.21,18.86,1.99,18.86,1.99l9.74-2.22c5.82-1.38,9.58-1.61,9.58-1.61l34.81-2.53c15.74-.63,31.63-.92,41.28-1.05,5.72-.08,9.24-.1,9.24-.1l12.56-23.7s-3.95-.12-9.47-.23c-3.41-.06-7.42-.13-11.46-.15h-8.59s-7.05-.38-20.47.54l-20.01.69s-23.61,1.22-48.45,6.67c0,0-7.06.45-11.66-2,0,0-22.08-11.42-54.58-22.08l-16.79-4.29s-10.43-2.53-17.79-3.3c0,0-20.85-2.07-33.2,8.21,0,0-14.95,17.55-22,40.4,0,0-4.91,14.95-6.29,36.26,0,0-.45,13.27,2.76,29.14,0,0,1.76,8.97,7.06,28.13,0,0,.84,2.61-.7,5.45,0,0-28.29,49.06-29.82,97.67,0,0-.17.69-.06,8.2,0,0,0,4.91-2.91,6.83l-14.8,1.38-18.93,2.14s-11.43,1.31-18.18,4.53c0,0-5.29,2.22-5.44,9.2,0,0,.4,2.91,2.99,3.98,0,0,5.6.92,13.65-.07l13.42-1.46,18.78-1.61,6.9-.15s3.99.24,5.52,2.92c0,0,1.61,5.59,4.29,18.4,0,0,2.53,11.96,4.52,18.17,0,0,.84,2.22.06,4.06,0,0-.92,2.07-3.91,3.22l-15.33,4.45s-8.9,2.76-14.65,6.36c0,0-2.45.84-3.83,3.45,0,0-1.15,2.3-.85,4.14,0,0,.29,1.76,3.3,3.3,0,0,3.45,1.76,7.36,1.15,0,0,7.05-1.15,12.65-2.99l13.95-2.92s7.75-1.07,12.43,3.69l6.13,10.81,6.59,10.65s.61,1.46,3.53,5.06c0,0,1.53,1.61,1.15,4.22,0,0-.46,2.84-3.22,4.29,0,0-8.43,5.37-25.91,15.26,0,0-4.14,2.45-8.44,6.06,0,0-5.98,4.98-7.97,8.97v4.6s.28,2.76,1.99,3.98c0,0,2.76,1.15,5.75.77,0,0,2.76-.38,4.91-1.99l21.39-13.19s12.8-7.97,21.85-11.65c0,0,1.99-1.23,4.52-1.23,0,0,2.76.07,4.75,1.92,0,0,15.87,12.42,24.99,18.7,0,0,23.46,16.18,42.71,24.08,0,0,23.76,9.66,42.85,14.33,0,0,17.72,4.3,44.09,7.29l38.64,3.75s45.54,4.14,90.54.69c0,0,22.54-1.68,35.88-4.29,0,0,20.93-2.38,43.78-8.82,0,0,16.56-4.68,31.05-10.5,0,0,14.18-5.67,26.83-13.95,0,0,8.97-5.83,25-18.56,0,0,10.81-9.5,19.93-19.7,0,0,1.38-1.54,3.68-2.3l4.6-.08s2.83.69,7.51,2.84c0,0,5.29,2.53,7.44,3.22l16.48,7.28s9.89,4.53,16.95,5.6c0,0,2.6.15,4.29-1.69,0,0,1.46-1.53,1.53-3.52,0,0,1.3-4.6-3.14-8.59,0,0-7.44-5.29-20.01-11.42l-20.63-10.12s-2.68-1.38-3.37-3.38c0,0-.51-1.61.29-2.91l5.36-12.04,5.3-12.19,2.53-6.67s1.68-3.91,5.21-4.6l15.48.92,15.19,2.07,8.97.31s5.59,0,8.66-1.91c0,0,1.38-1.08,1.38-3.69,0,0,0-2.6-1.54-3.45,0,0-10.35-6.05-23.69-8.43l-7.82-1.3-6.9-1.07-4.29-.54s-1.84-.38-3.29-1.77c0,0-1.54-1.45-1.23-2.75,0,0,.23-4.91,1.61-14.57,0,0,1.38-9.66,1.53-14.8l.06-5.67s-.06-3.45,1.91-4.99c0,0,8.43-2.45,22.93-1.61l23.76.92,7.82-.53s6.29-.92,6.6-5.59c0,0-.7-3.68-4.6-5.83ZM463.46,338.92c3.6,4.98,9.12,7.13,9.12,7.13,5.67,2.22,11.27.53,11.27.53,11.96-3.75,14.8-22.23,14.8-22.23h-.01c2-18.17-9.27-27.29-9.27-27.29-3.69-1.92-8.59-2.3-8.59-2.3-5.06-.39-8.97,1.15-8.97,1.15-4.75,2.14-8.13,7.36-8.13,7.36-2.98,4.6-4.13,10.27-4.13,10.27-.75,8.2-.23,13.26-.23,13.26.68,7.29,4.14,12.12,4.14,12.12ZM323.69,347.2c-4.44,2.22-7.36,6.74-7.36,6.74-2.53,4.14-3.22,9.2-3.22,9.2-.84,6.67,1.61,12.04,1.61,12.04,2.53,5.6,8.05,8.36,8.05,8.36,10.66,5.21,22.08,5.59,22.08,5.59,12.8.46,21.93-5.67,21.93-5.67,5.14-3.53,7.51-8.97,7.51-8.97,2.46-5.44,1.69-11.81,1.69-11.81-.62-4.9-3.45-9.04-3.45-9.04-2.92-4.22-7.21-6.21-7.21-6.21-9.12-5.44-20.93-5.68-20.93-5.68-12.11-.23-20.7,5.45-20.7,5.45ZM205.63,294.22c-5.45-1.38-10.12.54-10.12.54h-.01c-4.14,1.3-7.66,5.29-7.66,5.29-3.3,3.6-4.76,7.9-4.76,7.9-2.76,8.97-2.07,17.4-2.07,17.4.77,9.66,5.98,15.87,5.98,15.87,3.84,4.14,10.2,5.21,10.2,5.21,5.9.92,11.73-1.07,11.73-1.07,4.99-2.15,8.2-7.36,8.2-7.36,2.62-4.37,3.61-10.2,3.61-10.2.99-9.12,0-15.56,0-15.56-1.3-8.36-6.21-13.57-6.21-13.57-4.29-3.3-8.89-4.45-8.89-4.45ZM220.73,312.24c-1.3-8.36-6.21-13.57-6.21-13.57-4.29-3.3-8.89-4.45-8.89-4.45-5.45-1.38-10.12.54-10.12.54h-.01c-4.14,1.3-7.66,5.29-7.66,5.29-3.3,3.6-4.76,7.9-4.76,7.9-2.76,8.97-2.07,17.4-2.07,17.4.77,9.66,5.98,15.87,5.98,15.87,3.84,4.14,10.2,5.21,10.2,5.21,5.9.92,11.73-1.07,11.73-1.07,4.99-2.15,8.2-7.36,8.2-7.36,2.62-4.37,3.61-10.2,3.61-10.2.99-9.12,0-15.56,0-15.56ZM375.98,362.68c-.62-4.9-3.45-9.04-3.45-9.04-2.92-4.22-7.21-6.21-7.21-6.21-9.12-5.44-20.93-5.68-20.93-5.68-12.11-.23-20.7,5.45-20.7,5.45-4.44,2.22-7.36,6.74-7.36,6.74-2.53,4.14-3.22,9.2-3.22,9.2-.84,6.67,1.61,12.04,1.61,12.04,2.53,5.6,8.05,8.36,8.05,8.36,10.66,5.21,22.08,5.59,22.08,5.59,12.8.46,21.93-5.67,21.93-5.67,5.14-3.53,7.51-8.97,7.51-8.97,2.46-5.44,1.69-11.81,1.69-11.81ZM489.37,297.06c-3.69-1.92-8.59-2.3-8.59-2.3-5.06-.39-8.97,1.15-8.97,1.15-4.75,2.14-8.13,7.36-8.13,7.36-2.98,4.6-4.13,10.27-4.13,10.27-.75,8.2-.23,13.26-.23,13.26.68,7.29,4.14,12.12,4.14,12.12,3.6,4.98,9.12,7.13,9.12,7.13,5.67,2.22,11.27.53,11.27.53,11.96-3.75,14.8-22.23,14.8-22.23h-.01c2-18.17-9.27-27.29-9.27-27.29Z"/>
    <path class="cls-3" d="M632.35,141.45c-.3,23.53-11.65,47.38-11.65,47.38l-.46.99c-7.05,12.12-11.8,18.71-11.8,18.71l-15.75,17.38s-20.63,17.87-43.86,14.42c0,0-15.33-2.3-28.29-14.26,0,0-10.81-10.05-16.94-23.54,0,0-1.84-3.22-2.3-6.82,0,0-7.67,1.99-15.26,1.91,0,0-13.95.08-26.37-6.74,0,0-12.34-6.75-20.32-18.63,0,0-2.3,1.91-4.6,2.99l-1.68.61s-25.84,8.67-45.16,7.36c0,0-19.32-1.3-32.97-12.72l-.4-.31-.28-.39s-18.71-17.78-17.1-48.45c0,0,.92-17.1,9.74-43.62l.17-.62,2.15-5.13,12.56-23.7c9.35-14.26,21.23-24.99,21.23-24.99l.17-.07c11.58-10.35,25.61-13.57,25.61-13.57,3.49-.81,6.92-1.14,10.1-1.14l-.05.03c9.56-.05,16.89,2.59,16.89,2.59l.23.15.28.07c13.81,5.55,25.09,17.74,30.86,24.92l6.98,11.95,7.42,12.71,4.29,10.89,1.23,3.6.06.24s1.45,4.21,1.91,9.73c0,0,11.27.39,21.01,4.76,0,0,10.04,4.44,17.63,12.65l4.22,5.13s3.37-2.99,7.2-4.06c0,0,21.39-7.13,43.93-6.21l20.78,3.09,3.91.92c9.27,2.37,16.02,9.96,16.02,9.96,6.75,7.67,7.9,17.02,7.9,17.02.93,6.29.76,12.81.76,12.81Z"/>
    <path d="M640.01,127.48c-.23-1.72-1.93-12.37-9.97-21.51-.87-.97-8.81-9.62-20.27-12.54l-4.07-.96-2.69-.41-18.78-2.82-.91-.08c-.44-.02-.88-.03-1.32-.04-22.42-.65-43.09,5.85-45.45,6.61-1.01.3-1.98.66-2.89,1.07-8.65-9.25-19.75-14.22-20.18-14.42-5.99-2.68-12.38-4.06-17.09-4.77-.45-2.08-.91-3.61-1.14-4.32l-1.42-4.23-4.66-11.86-.21-.36-11.09-18.98-3.75-6.43-.4-.49c-5.74-7.15-17.25-19.71-31.78-26.4l7.55-4.54h-30.6c-4.09,0-8.14.46-12,1.36-.65.14-15.43,3.63-28.25,14.53l-.24.1-1.09.98c-.52.47-12.8,11.64-22.64,26.64l-2.36,4.43-10.6,19.95-1.73,4.08-.96,2.25-.26.93c-9.01,27.17-10.05,44.89-10.09,45.64-1.64,31.2,15.41,50.61,19.07,54.4l.61.85,1.26.98c15.58,12.94,36.83,14.51,37.72,14.57,20.77,1.41,47.32-7.41,48.44-7.78l1.48-.54c8.38,9.45,17.86,14.7,18.33,14.96,13.79,7.58,28.97,7.79,30.42,7.79,3.35.03,6.69-.28,9.53-.68.18.37.34.68.47.91,6.77,14.71,18.26,25.49,18.77,25.97,14.71,13.57,32.06,16.31,32.81,16.42,2.47.36,4.9.53,7.29.53,18.52,0,34.22-10.03,40.49-14.66,1.7-1.26,2.7-2.12,2.89-2.28l.39-.33,13.39-14.78,3.02-3.33.28-.39c.21-.28,5.08-7.07,12.25-19.41l.79-1.61c.5-1.04,12.14-25.79,12.48-50.88.01-.8.13-7.5-.84-14.12ZM612.69,185.88c-5.72,9.81-9.86,15.84-10.9,17.32l-14.99,16.55c-2.57,2.07-19.19,14.77-36.67,12.18-.13-.02-13.08-2.19-23.79-12.08-.1-.08-9.69-9.15-15-20.84l-.33-.64c-.27-.49-1.09-2.24-1.28-3.74l-1.23-9.54-9.33,2.39c-.06.02-6.74,1.72-13.04,1.64h-.14c-.2,0-12.07-.11-22.24-5.7-.11-.05-10.71-6.03-17.35-15.91l-5.23-7.74-7.23,5.92c-.58.47-1.68,1.27-2.54,1.72l-1.12.41c-1.59.52-24.94,8.05-41.78,6.91-.16-.01-16.45-1.3-27.71-10.43l-.64-.64c-.65-.63-15.88-15.76-14.51-41.85.01-.16,1.03-16.49,9.32-41.41l1.95-4.79,12.19-23c7.04-10.65,15.68-19.28,18.59-22.07l1.15-.99c9.7-8.67,21.76-11.6,21.87-11.63,2.09-.48,4.25-.78,6.46-.88h1.71c6.16-.08,11.26,1.27,13.17,1.83l.46.3,1.07.27c11.6,4.85,21.42,15.42,26.5,21.66l13.75,23.54,3.98,10.1,1.22,3.65s1.13,3.4,1.49,7.7l.64,7.49,7.52.29c.09.01,9.81.42,17.86,4.03.08.04,8.47,3.85,14.69,10.49l9.62,11.78,6.6-5.86c.84-.72,2.6-1.91,3.89-2.26l.39-.12c.2-.07,19.99-6.54,40.46-5.8l19.97,2.97,3.47.81c3.25.85,6.17,2.68,8.28,4.3,2.1,1.62,3.4,3.03,3.4,3.03,4.83,5.48,5.84,12.43,5.84,12.44l.03.2c.8,5.45.67,11.3.67,11.36v.1c-.27,21.31-10.73,43.62-10.86,43.91l-.3.63Z"/>
    <path d="M481.5,60.92l-7.42-12.71c15.93-18.82,7.42,12.71,7.42,12.71Z"/>
    <circle class="cls-2" cx="484.71" cy="141.29" r="54.33"/>
    <ellipse class="cls-4" cx="344.56" cy="367.99" rx="18.55" ry="10.04"/>
  </g>
</svg>