<?xml version="1.0" encoding="UTF-8"?>
<svg xmlns="http://www.w3.org/2000/svg" viewBox="0 0 800 800">
  <defs>
    <style>
      .cls-1 {
        fill: none;
      }

      .cls-1, .cls-2 {
        stroke: #000;
        stroke-miterlimit: 10;
        stroke-width: 17px;
      }

      .cls-2 {
        fill: #de7b97;
      }

      .cls-3 {
        fill: #f6e24d;
      }
    </style>
  </defs>
  <g id="Layer_1" data-name="Layer 1" focusable="false">
    <path d="M546.51,448.56c-3.69-1.92-8.59-2.3-8.59-2.3-5.06-.39-8.97,1.15-8.97,1.15-4.75,2.14-8.13,7.36-8.13,7.36-2.98,4.6-4.13,10.27-4.13,10.27-.75,8.2-.23,13.26-.23,13.26.68,7.29,4.14,12.12,4.14,12.12,3.6,4.98,9.12,7.13,9.12,7.13,5.67,2.22,11.27.53,11.27.53,11.96-3.75,14.8-22.23,14.8-22.23h0c2-18.17-9.27-27.29-9.27-27.29ZM429.67,505.14c-2.92-4.22-7.21-6.21-7.21-6.21-9.12-5.44-20.93-5.68-20.93-5.68-12.11-.23-20.7,5.45-20.7,5.45-4.44,2.22-7.36,6.74-7.36,6.74-2.53,4.14-3.22,9.2-3.22,9.2-.84,6.67,1.61,12.04,1.61,12.04,2.53,5.6,8.05,8.36,8.05,8.36,10.66,5.21,22.08,5.59,22.08,5.59,12.8.46,21.93-5.67,21.93-5.67,5.14-3.53,7.51-8.97,7.51-8.97,2.46-5.44,1.69-11.81,1.69-11.81-.62-4.9-3.45-9.04-3.45-9.04ZM271.66,450.17c-4.29-3.3-8.89-4.45-8.89-4.45-5.45-1.38-10.12.54-10.12.54h-.01c-4.14,1.3-7.66,5.29-7.66,5.29-3.3,3.6-4.76,7.9-4.76,7.9-2.76,8.97-2.07,17.4-2.07,17.4.77,9.66,5.98,15.87,5.98,15.87,3.84,4.14,10.2,5.21,10.2,5.21,5.9.92,11.73-1.07,11.73-1.07,4.99-2.15,8.2-7.36,8.2-7.36,2.62-4.37,3.61-10.2,3.61-10.2.99-9.12,0-15.56,0-15.56-1.3-8.36-6.21-13.57-6.21-13.57ZM738.26,427.95s-.46-.31-7.06-2.84l-17.86-1.99-19.09-.53-5.44.31s-3.22.3-4.83,0c0,0-1.77.07-3.07-1.69,0,0-1.15-1.46-1.3-3.14l-4.76-30.44s-2.83-13.49-9.27-27.6l-15.75,17.38,1.99,6.44c5.37,17.18,7.36,37.34,7.36,37.34,0,3.3-2.38,4.6-2.38,4.6-2.76,1.15-7.97,1.76-7.97,1.76l-8.2,1.23-7.9,1.76c-4.75,1-8.36,2.84-8.36,2.84-3.9,2.91-2.91,7.44-2.91,7.44,2.07,5.29,8.28,5.59,8.28,5.59l12.27-1.61,12.26-1.76.85.07c2.3.24,2.91.77,2.91.77,1.31,1,1.08,4.14,1.08,4.14.28,8.43-.46,12.42-.46,12.42-1.23,10.5-2.99,20.32-2.99,20.32-1.23,1.99-4.36,2.07-4.36,2.07l-5.14-.31-9.2.38c-4.29,1.3-5.44,5.83-5.44,5.83-.17,4.14,5.44,6.59,5.44,6.59l9.97,2.92c1.53.45,2.22,1.84,2.22,1.84.85,1.76-.23,4.36-.23,4.36-3.68,11.89-12.5,26.99-12.5,26.99-2.37,5.45-8.35,3.91-8.35,3.91l-9.28-2.07c-5.37-.99-8.89,1.54-8.89,1.54-1.69.92-2.15,3.22-2.15,3.22-.4,1.99.23,3.68.23,3.68,1.07,3.22,4.67,5.44,4.67,5.44,2.07,1.3,6.52,3.45,6.52,3.45,1.23.84,1.38,2.15,1.38,2.15.17,1.3-1,2.76-1,2.76-6.59,8.43-16.87,16.33-16.87,16.33-7.28,5.44-19.08,12.57-19.08,12.57-33.81,19.17-71.77,25.38-71.77,25.38-24.15,6.13-66.16,8.43-66.16,8.43-51.9,2.91-100.74-2.61-100.74-2.61-23.46-1.84-45.23-7.05-45.23-7.05-8.36-1.99-33.12-9.35-33.12-9.35-17.94-5.37-37.42-16.56-37.42-16.56-15.94-9.13-34.57-23.23-34.57-23.23-.85-.54-.23-2.3-.23-2.3,1.99-2.07,8.74-5.37,8.74-5.37,5.75-2.84,7.82-6.44,7.82-6.44.4-2.99-1.08-5.44-1.08-5.44-1.68-2.84-4.82-2.99-4.82-2.99-5.14-.24-10.51,1.68-10.51,1.68l-9.89,4.14c-7.66,1.46-11.34-3.22-11.34-3.22l-8.44-11.5c-4.44-6.67-7.05-12.34-7.05-12.34-.92-1.76,0-3.45,0-3.45.84-1.53,2.76-2.38,2.76-2.38,6.21-1.68,15.95-5.21,15.95-5.21,2.14-1.53,2.37-2.53,2.37-2.53.61-2.38-.17-4.52-.17-4.52-.92-2.46-3.52-3.15-3.52-3.15l-8.97-.61-10.12,1.08c-4.14,1.53-6.75-.77-6.75-.77-7.44-16.1-8.82-31.74-8.82-31.74v-3.37c-.06-2.23,1.08-3.45,1.08-3.45,1.14-1.23,3.21-1.31,3.21-1.31l7.06.15,6.97.54c2.92-.31,10.2,0,10.2,0,5.98-.54,7.21-5.52,7.21-5.52.23-4.52-4.45-6.52-4.45-6.52-5.82-1.61-8.13-2.68-8.13-2.68l-10.81-1.69-10.65-1.15c-1.3-.15-2.61-1.38-2.61-1.38-1.23-1.15-1.99-2.6-1.99-2.6.51-45.01,18.86-84.65,18.86-84.65,3.68-9.73,11.34-21.69,11.34-21.69l13.96-20.55c2.15-4.6,1.23-8.28,1.23-8.28-1.31-4.29-5.68-4.91-5.68-4.91-2.45-.45-5.06.69-5.06.69l-4.37,2.53c-2.15.69-3.07-.92-3.07-.92-2.83-5.44-4.52-12.57-4.52-12.57-1.3-5.52-2.14-13.57-2.14-13.57.45-20.09,4.6-35.04,4.6-35.04,4.82-17.63,15.41-30.36,15.41-30.36,6.13-6.28,18.09-6.05,18.09-6.05h.03c5.98.15,19.63,3.07,19.63,3.07,34.12,8.66,66.93,27.91,66.93,27.91,7.36,4.21,18.86,1.99,18.86,1.99l9.74-2.22c5.82-1.38,9.58-1.61,9.58-1.61l34.81-2.53c25.07-1,50.52-1.15,50.52-1.15l12.56-23.7s-10.35-.31-20.93-.38h-8.59s-7.05-.38-20.47.54l-20.01.69s-23.61,1.22-48.45,6.67c0,0-7.06.45-11.66-2,0,0-22.08-11.42-54.58-22.08l-16.79-4.29s-10.43-2.53-17.79-3.3c0,0-20.85-2.07-33.2,8.21,0,0-14.95,17.55-22,40.4,0,0-4.91,14.95-6.29,36.26,0,0-.45,13.27,2.76,29.14,0,0,1.76,8.97,7.06,28.13,0,0,.84,2.61-.7,5.45,0,0-28.29,49.06-29.82,97.67,0,0-.17.69-.06,8.2,0,0,0,4.91-2.91,6.83l-14.8,1.38-18.93,2.14s-11.43,1.31-18.18,4.53c0,0-5.29,2.22-5.44,9.2,0,0,.4,2.91,2.99,3.98,0,0,5.6.92,13.65-.07l13.42-1.46,18.78-1.61,6.9-.15s3.99.24,5.52,2.92c0,0,1.61,5.59,4.29,18.4,0,0,2.53,11.96,4.52,18.17,0,0,.84,2.22.06,4.06,0,0-.92,2.07-3.91,3.22l-15.33,4.45s-8.9,2.76-14.65,6.36c0,0-2.45.84-3.83,3.45,0,0-1.15,2.3-.85,4.14,0,0,.29,1.76,3.3,3.3,0,0,3.45,1.76,7.36,1.15,0,0,7.05-1.15,12.65-2.99l13.95-2.92s7.75-1.07,12.43,3.69l6.13,10.81,6.59,10.65s.61,1.46,3.53,5.06c0,0,1.53,1.61,1.15,4.22,0,0-.46,2.84-3.22,4.29,0,0-8.43,5.37-25.91,15.26,0,0-4.14,2.45-8.44,6.06,0,0-5.98,4.98-7.97,8.97v4.6s.28,2.76,1.99,3.98c0,0,2.76,1.15,5.75.77,0,0,2.76-.38,4.91-1.99l21.39-13.19s12.8-7.97,21.85-11.65c0,0,1.99-1.23,4.52-1.23,0,0,2.76.07,4.75,1.92,0,0,15.87,12.42,24.99,18.7,0,0,23.46,16.18,42.71,24.08,0,0,23.76,9.66,42.85,14.33,0,0,17.72,4.3,44.09,7.29l38.64,3.75s45.54,4.14,90.54.69c0,0,22.54-1.68,35.88-4.29,0,0,20.93-2.38,43.78-8.82,0,0,16.56-4.68,31.05-10.5,0,0,14.18-5.67,26.83-13.95,0,0,8.97-5.83,25-18.56,0,0,10.81-9.5,19.93-19.7,0,0,1.38-1.54,3.68-2.3l4.6-.08s2.83.69,7.51,2.84c0,0,5.29,2.53,7.44,3.22l16.48,7.28s9.89,4.53,16.95,5.6c0,0,2.6.15,4.29-1.69,0,0,1.46-1.53,1.53-3.52,0,0,1.3-4.6-3.14-8.59,0,0-7.44-5.29-20.01-11.42l-20.63-10.12s-2.68-1.38-3.37-3.38c0,0-.51-1.61.29-2.91l5.36-12.04,5.3-12.19,2.53-6.67s1.68-3.91,5.21-4.6l15.48.92,15.19,2.07,8.97.31s5.59,0,8.66-1.91c0,0,1.38-1.08,1.38-3.69,0,0,0-2.6-1.54-3.45,0,0-10.35-6.05-23.69-8.43l-7.82-1.3-6.9-1.07-4.29-.54s-1.84-.38-3.29-1.77c0,0-1.54-1.45-1.23-2.75,0,0,.23-4.91,1.61-14.57,0,0,1.38-9.66,1.53-14.8l.06-5.67s-.06-3.45,1.91-4.99c0,0,8.43-2.45,22.93-1.61l23.76.92,7.82-.53s6.29-.92,6.6-5.59c0,0-.7-3.68-4.6-5.83ZM520.6,490.42c3.6,4.98,9.12,7.13,9.12,7.13,5.67,2.22,11.27.53,11.27.53,11.96-3.75,14.8-22.23,14.8-22.23h0c2-18.17-9.27-27.29-9.27-27.29-3.69-1.92-8.59-2.3-8.59-2.3-5.06-.39-8.97,1.15-8.97,1.15-4.75,2.14-8.13,7.36-8.13,7.36-2.98,4.6-4.13,10.27-4.13,10.27-.75,8.2-.23,13.26-.23,13.26.68,7.29,4.14,12.12,4.14,12.12ZM538.64,212.42c20.32-11.42,29.9-14.57,29.9-14.57,9.81-3.83,20.31-7.28,20.31-7.28,13.27-4.37,18.63-4.91,18.63-4.91l8.04-.53c5.28.63,7.81,5.45,7.81,5.45,5.52,8.28,8.66,16.4,8.66,16.4,2.84,7.29,4.76,17.33,4.76,17.33l2.14,14.18,1.23,10.66,20.78,3.09s-2.22-37.65-13.11-62.33c0,0-6.06-10.97-10.12-15.64,0,0-7.05-8.21-16.02-10.2,0,0-8.44-1.53-19.25-.08l-18.17,3.53s-10.81,3.14-19.7,6.75c0,0-8.05,3.22-18.94,8.66l-17.17,10.43s-1.49-2.26-4.18-5.6l6.98,11.95,7.42,12.71ZM380.83,498.7c-4.44,2.22-7.36,6.74-7.36,6.74-2.53,4.14-3.22,9.2-3.22,9.2-.84,6.67,1.61,12.04,1.61,12.04,2.53,5.6,8.05,8.36,8.05,8.36,10.66,5.21,22.08,5.59,22.08,5.59,12.8.46,21.93-5.67,21.93-5.67,5.14-3.53,7.51-8.97,7.51-8.97,2.46-5.44,1.69-11.81,1.69-11.81-.62-4.9-3.45-9.04-3.45-9.04-2.92-4.22-7.21-6.21-7.21-6.21-9.12-5.44-20.93-5.68-20.93-5.68-12.11-.23-20.7,5.45-20.7,5.45ZM262.77,445.72c-5.45-1.38-10.12.54-10.12.54h-.01c-4.14,1.3-7.66,5.29-7.66,5.29-3.3,3.6-4.76,7.9-4.76,7.9-2.76,8.97-2.07,17.4-2.07,17.4.77,9.66,5.98,15.87,5.98,15.87,3.84,4.14,10.2,5.21,10.2,5.21,5.9.92,11.73-1.07,11.73-1.07,4.99-2.15,8.2-7.36,8.2-7.36,2.62-4.37,3.61-10.2,3.61-10.2.99-9.12,0-15.56,0-15.56-1.3-8.36-6.21-13.57-6.21-13.57-4.29-3.3-8.89-4.45-8.89-4.45ZM277.87,463.74c-1.3-8.36-6.21-13.57-6.21-13.57-4.29-3.3-8.89-4.45-8.89-4.45-5.45-1.38-10.12.54-10.12.54h-.01c-4.14,1.3-7.66,5.29-7.66,5.29-3.3,3.6-4.76,7.9-4.76,7.9-2.76,8.97-2.07,17.4-2.07,17.4.77,9.66,5.98,15.87,5.98,15.87,3.84,4.14,10.2,5.21,10.2,5.21,5.9.92,11.73-1.07,11.73-1.07,4.99-2.15,8.2-7.36,8.2-7.36,2.62-4.37,3.61-10.2,3.61-10.2.99-9.12,0-15.56,0-15.56ZM433.12,514.18c-.62-4.9-3.45-9.04-3.45-9.04-2.92-4.22-7.21-6.21-7.21-6.21-9.12-5.44-20.93-5.68-20.93-5.68-12.11-.23-20.7,5.45-20.7,5.45-4.44,2.22-7.36,6.74-7.36,6.74-2.53,4.14-3.22,9.2-3.22,9.2-.84,6.67,1.61,12.04,1.61,12.04,2.53,5.6,8.05,8.36,8.05,8.36,10.66,5.21,22.08,5.59,22.08,5.59,12.8.46,21.93-5.67,21.93-5.67,5.14-3.53,7.51-8.97,7.51-8.97,2.46-5.44,1.69-11.81,1.69-11.81ZM546.51,448.56c-3.69-1.92-8.59-2.3-8.59-2.3-5.06-.39-8.97,1.15-8.97,1.15-4.75,2.14-8.13,7.36-8.13,7.36-2.98,4.6-4.13,10.27-4.13,10.27-.75,8.2-.23,13.26-.23,13.26.68,7.29,4.14,12.12,4.14,12.12,3.6,4.98,9.12,7.13,9.12,7.13,5.67,2.22,11.27.53,11.27.53,11.96-3.75,14.8-22.23,14.8-22.23h0c2-18.17-9.27-27.29-9.27-27.29Z"/>
    <path class="cls-2" d="M689.49,292.95c-.3,23.53-11.65,47.38-11.65,47.38l-.46.99c-7.05,12.12-11.8,18.71-11.8,18.71l-15.75,17.38s-20.63,17.87-43.86,14.42c0,0-15.33-2.3-28.29-14.26,0,0-10.81-10.05-16.94-23.54,0,0-1.84-3.22-2.3-6.82,0,0-7.67,1.99-15.26,1.91,0,0-13.95.08-26.37-6.74,0,0-12.34-6.75-20.32-18.63,0,0-2.3,1.91-4.6,2.99l-1.68.61s-25.84,8.67-45.16,7.36c0,0-19.32-1.3-32.97-12.72l-.4-.31-.28-.39s-18.71-17.78-17.1-48.45c0,0,.92-17.1,9.74-43.62l.17-.62,2.15-5.13,12.56-23.7c9.35-14.26,21.23-24.99,21.23-24.99l.17-.07c11.58-10.35,25.61-13.57,25.61-13.57,3.49-.81,6.92-1.14,10.1-1.14l-.05.03c9.56-.05,16.89,2.59,16.89,2.59l.23.15.28.07c13.81,5.55,25.09,17.74,30.86,24.92l6.98,11.95,7.42,12.71,4.29,10.89,1.23,3.6.06.24s1.45,4.21,1.91,9.73c0,0,11.27.39,21.01,4.76,0,0,10.04,4.44,17.63,12.65l4.22,5.13s3.37-2.99,7.2-4.06c0,0,21.39-7.13,43.93-6.21l20.78,3.09,3.91.92c9.27,2.37,16.02,9.96,16.02,9.96,6.75,7.67,7.9,17.02,7.9,17.02.93,6.29.76,12.81.76,12.81Z"/>
    <path d="M538.64,212.42l-7.42-12.71c15.93-18.82,7.42,12.71,7.42,12.71Z"/>
    <circle class="cls-1" cx="541.85" cy="292.79" r="54.33"/>
    <ellipse class="cls-3" cx="401.7" cy="519.49" rx="18.55" ry="10.04"/>
  </g>
</svg>