<?xml version="1.0" encoding="UTF-8"?>
<svg xmlns="http://www.w3.org/2000/svg" viewBox="0 0 117.19 88.85">
  <defs>
    <style>
      .cls-1 {
        fill: #f72a73;
        stroke: #000;
        stroke-miterlimit: 10;
        stroke-width: 2px;
      }
    </style>
  </defs>
  <g id="Layer_1" data-name="Layer 1" focusable="false">
    <path class="cls-1" d="M99.74,1.51c5.89-.85,11.26-.7,14.69,4.78,4.39,7.01-.85,16.07-.53,23.47.34,7.64,6.01,12.49.92,20.84-8.62,14.15-38.04.79-46.67-8.84,5.24-5.75,5.65-15.56-.1-21.14l.36-1.39c8.72-5.97,20.7-16.18,31.33-17.71ZM104.97,4.25c-2.56-2.16-25.81,10.75-29,13.98,8.14-3.03,18.86-5.89,26.25-10.24,1.5-.88,3.08-1.66,2.74-3.75Z"/>
    <path class="cls-1" d="M51.9,43.14c-10.55,7.17-31.38,19.02-43.43,10.11-9.38-6.94-1.98-17.2-1.88-25.67.09-7.64-4.85-15.36.39-22.84,9.43-13.44,36.47,7.77,45.54,14.49-5.6,8.79-5.79,14.89-.61,23.91ZM44.98,18.23c-1.62-2.23-4.92-3.73-7.33-5.16-3.87-2.31-13.91-8.41-17.64-9.37-1.36-.35-4.09-.51-4.02,1.05.15,3.32,24.72,12.29,28.98,13.49Z"/>
    <path class="cls-1" d="M62.07,44.33c3.04-3.48,11.9,3.42,14.45,5.87,4.12,3.96,16.68,19.27,19.89,24.13.73,1.1,2.06,2.24.66,3.45-2.72,2.94-9.6,2.57-13.12,3.94-1.89.74-5.57,4.91-6.99,4.08-4.8-4.21-17.55-38.43-14.89-41.47Z"/>
    <path class="cls-1" d="M58.86,44.35c2.91,3.36-10.43,36.87-14.86,41.44-1.25.92-5.2-3.37-7-4.07-3.52-1.37-10.4-1-13.12-3.94-1.4-1.21-.06-2.36.66-3.45,3.45-5.22,15.42-19.62,19.89-24.13,2.52-2.54,11.28-9.48,14.43-5.85Z"/>
    <path class="cls-1" d="M57.69,19.45c17.33-3.9,17.33,28.66-1.78,22.35-6.92-2.29-7.52-20.26,1.78-22.35Z"/>
  </g>
</svg>